<svg id="Layer_1" data-name="Layer 1" xmlns="http://www.w3.org/2000/svg" viewBox="0 0 1399.11828 623.83286"><defs><style>.cls-1,.cls-3{fill:#64c5ba;}.cls-1{opacity:0.16;}.cls-2{fill:#fff;}.cls-4{fill:#d3d1d0;}.cls-5{fill:#d44d35;}</style></defs><path class="cls-1" d="M1075.969,826.62558v567.159a5.14744,5.14744,0,0,0,8.85527,3.57046l5.68423-5.90291a5.14745,5.14745,0,0,1,7.34762-.06933l12.07679,12.0768a5.14744,5.14744,0,0,0,7.09249.17793l13.96186-12.6269a5.14744,5.14744,0,0,1,7.15053.23692l11.60435,11.98359a5.14743,5.14743,0,0,0,7.27087.12453l12.68961-12.23655a5.14744,5.14744,0,0,1,7.14607,0l12.74881,12.29348a5.14743,5.14743,0,0,0,7.21281-.06557l11.89086-11.89086a5.14744,5.14744,0,0,1,7.41679.14258l10.89809,11.77a5.14744,5.14744,0,0,0,7.03654.4867l15.69425-12.84069a5.14744,5.14744,0,0,1,7.3227.82369l8.33543,10.71706a5.14744,5.14744,0,0,0,7.50661.66586l14.54754-13.09275a3.49375,3.49375,0,0,1,5.04569.39l11.71384,15.18807.013.01659a1.62257,1.62257,0,0,0,2.5094-.08139q.18-.22488.39141-.48118c3.56418-4.32135,13.44582-14.92237,13.44582-14.92237a3.49375,3.49375,0,0,1,4.9871-.04706l13.2684,13.2684a5.14744,5.14744,0,0,0,7.09249.17793l13.96186-12.6269a5.14744,5.14744,0,0,1,7.15053.23692l11.60434,11.98359a5.14745,5.14745,0,0,0,7.27088.12453l12.68961-12.23655a5.14744,5.14744,0,0,1,7.14607,0l12.7488,12.29348a5.14744,5.14744,0,0,0,7.21282-.06557l11.89086-11.89086a5.14744,5.14744,0,0,1,7.41679.14258l10.89809,11.77a5.14744,5.14744,0,0,0,7.03654.4867l15.69425-12.84069a5.14744,5.14744,0,0,1,7.3227.82369l8.33543,10.71706a5.14744,5.14744,0,0,0,7.50661.66586l13.25647-11.9308a5.14745,5.14745,0,0,1,7.43394.57458l3.13,3.84134a5.14744,5.14744,0,0,0,9.13793-3.25149V787.59348a5.14744,5.14744,0,0,0-5.14744-5.14744H1120.98095a1.65368,1.65368,0,0,0-1.15794.47307L1076.4647,825.445A1.65367,1.65367,0,0,0,1075.969,826.62558Z" transform="translate(-1075.96896 -782.44604)"/><path class="cls-1" d="M1870.42618,826.62558v567.159a5.14744,5.14744,0,0,0,8.85526,3.57046l5.68423-5.90291a5.14745,5.14745,0,0,1,7.34762-.06933l12.07679,12.0768a5.14744,5.14744,0,0,0,7.09249.17793l13.96186-12.6269a5.14744,5.14744,0,0,1,7.15053.23692l11.60435,11.98359a5.14743,5.14743,0,0,0,7.27087.12453l12.68962-12.23655a5.14743,5.14743,0,0,1,7.14606,0l12.74881,12.29348a5.14743,5.14743,0,0,0,7.21281-.06557l11.89087-11.89086a5.14743,5.14743,0,0,1,7.41678.14258l10.89809,11.77a5.14744,5.14744,0,0,0,7.03654.4867l15.69425-12.84069a5.14744,5.14744,0,0,1,7.3227.82369l8.33543,10.71706a5.14744,5.14744,0,0,0,7.50661.66586l14.54754-13.09275a3.49375,3.49375,0,0,1,5.04569.39l11.71385,15.18807.013.01659a1.62257,1.62257,0,0,0,2.5094-.08139q.18-.22488.39141-.48118c3.56419-4.32135,13.44582-14.92237,13.44582-14.92237a3.49375,3.49375,0,0,1,4.9871-.04706l13.2684,13.2684a5.14744,5.14744,0,0,0,7.09249.17793l13.96186-12.6269a5.14744,5.14744,0,0,1,7.15053.23692l11.60435,11.98359a5.14743,5.14743,0,0,0,7.27087.12453l12.68961-12.23655a5.14744,5.14744,0,0,1,7.14607,0l12.74881,12.29348a5.14743,5.14743,0,0,0,7.21281-.06557l11.89087-11.89086a5.14743,5.14743,0,0,1,7.41678.14258l10.89809,11.77a5.14744,5.14744,0,0,0,7.03654.4867l15.69425-12.84069a5.14744,5.14744,0,0,1,7.3227.82369l8.33543,10.71706a5.14744,5.14744,0,0,0,7.50661.66586l13.25647-11.9308a5.14744,5.14744,0,0,1,7.43394.57458l3.13,3.84134a5.14743,5.14743,0,0,0,9.13792-3.25149V787.59348a5.14744,5.14744,0,0,0-5.14744-5.14744H1915.43817a1.65365,1.65365,0,0,0-1.15794.47307L1870.92192,825.445A1.65363,1.65363,0,0,0,1870.42618,826.62558Z" transform="translate(-1075.96896 -782.44604)"/><path class="cls-2" d="M1907.31525,1209.52h177.531c2.40458,0,4.8185.06184,7.22252,0,.1035-.00267.2074,0,.311,0,3.21727,0,3.22259-5,0-5h-177.531c-2.40459,0-4.8185-.06185-7.22253,0-.1035.00266-.20739,0-.31095,0-3.21726,0-3.22259,5,0,5Z" transform="translate(-1075.96896 -782.44604)"/><path class="cls-2" d="M1907.31525,1255.14378h177.531c2.40458,0,4.8185.06184,7.22252,0,.1035-.00266.2074,0,.311,0,3.21727,0,3.22259-5,0-5h-177.531c-2.40459,0-4.8185-.06185-7.22253,0-.1035.00266-.20739,0-.31095,0-3.21726,0-3.22259,5,0,5Z" transform="translate(-1075.96896 -782.44604)"/><path class="cls-2" d="M1907.31525,1300.76754h177.531c2.40458,0,4.8185.06185,7.22252,0,.1035-.00266.2074,0,.311,0,3.21727,0,3.22259-5,0-5h-177.531c-2.40459,0-4.8185-.06185-7.22253,0-.1035.00266-.20739,0-.31095,0-3.21726,0-3.22259,5,0,5Z" transform="translate(-1075.96896 -782.44604)"/><path class="cls-2" d="M1907.31525,1346.3913h177.531c2.40458,0,4.8185.06185,7.22252,0,.1035-.00266.2074,0,.311,0,3.21727,0,3.22259-5,0-5h-177.531c-2.40459,0-4.8185-.06184-7.22253,0-.1035.00267-.20739,0-.31095,0-3.21726,0-3.22259,5,0,5Z" transform="translate(-1075.96896 -782.44604)"/><path class="cls-2" d="M1120.30535,1201.65405h177.531c2.40458,0,4.8185.06185,7.22252,0,.1035-.00266.20739,0,.311,0,3.21726,0,3.22259-5,0-5h-177.531c-2.40459,0-4.81851-.06184-7.22253,0-.1035.00267-.20739,0-.31095,0-3.21726,0-3.22259,5,0,5Z" transform="translate(-1075.96896 -782.44604)"/><path class="cls-2" d="M1120.30535,1247.27781h177.531c2.40458,0,4.8185.06185,7.22252,0,.1035-.00266.20739,0,.311,0,3.21726,0,3.22259-5,0-5h-177.531c-2.40459,0-4.81851-.06184-7.22253,0-.1035.00267-.20739,0-.31095,0-3.21726,0-3.22259,5,0,5Z" transform="translate(-1075.96896 -782.44604)"/><path class="cls-2" d="M1120.30535,1292.90158h177.531c2.40458,0,4.8185.06184,7.22252,0,.1035-.00267.20739,0,.311,0,3.21726,0,3.22259-5,0-5h-177.531c-2.40459,0-4.81851-.06185-7.22253,0-.1035.00266-.20739,0-.31095,0-3.21726,0-3.22259,5,0,5Z" transform="translate(-1075.96896 -782.44604)"/><path class="cls-2" d="M1120.30535,1338.52534h177.531c2.40458,0,4.8185.06185,7.22252,0,.1035-.00266.20739,0,.311,0,3.21726,0,3.22259-5,0-5h-177.531c-2.40459,0-4.81851-.06185-7.22253,0-.1035.00266-.20739,0-.31095,0-3.21726,0-3.22259,5,0,5Z" transform="translate(-1075.96896 -782.44604)"/><rect class="cls-3" x="291.41559" width="291.71861" height="291.71861"/><path class="cls-4" d="M1443.14744,939.15081l11.63334,11.63334,18.64146,18.64146,4.25706,4.25706a20.63383,20.63383,0,0,0,14.14214,5.85787,22.25069,22.25069,0,0,0,14.14213-5.85787c3.49888-3.81149,6.09645-8.81555,5.85787-14.14213a20.84638,20.84638,0,0,0-5.85787-14.14214l-11.63334-11.63335-18.64146-18.64145-4.25706-4.25706a20.63383,20.63383,0,0,0-14.14214-5.85787,22.25069,22.25069,0,0,0-14.14213,5.85787c-3.49888,3.81149-6.09644,8.81555-5.85787,14.14213a20.84638,20.84638,0,0,0,5.85787,14.14214Z" transform="translate(-1075.96896 -782.44604)"/><path class="cls-4" d="M1589.899,833.17872,1578.7434,844.3343l-26.79222,26.79222-32.41711,32.41711-28.03023,28.03023c-4.54343,4.54343-9.12136,9.05516-13.6316,13.6316-.06384.06478-.12863.12863-.19294.19294a20.63386,20.63386,0,0,0-5.85786,14.14214,22.25061,22.25061,0,0,0,5.85786,14.14213c3.81149,3.49888,8.81555,6.09644,14.14214,5.85787a20.84636,20.84636,0,0,0,14.14213-5.85787l11.15558-11.15557,26.79222-26.79222,32.41711-32.41711,28.03023-28.03024c4.54343-4.54342,9.12136-9.05516,13.6316-13.6316.06384-.06477.12863-.12863.19294-.19293a20.63382,20.63382,0,0,0,5.85786-14.14214,22.25061,22.25061,0,0,0-5.85786-14.14214c-3.81149-3.49888-8.81555-6.09644-14.14214-5.85786a20.84639,20.84639,0,0,0-14.14213,5.85786Z" transform="translate(-1075.96896 -782.44604)"/><rect class="cls-5" x="1107.39966" width="291.71861" height="291.71861"/><path class="cls-4" d="M2258.976,887.82331l11.15558,11.15558,26.79222,26.79222,32.4171,32.4171,28.03024,28.03024c4.54343,4.54343,9.05516,9.12136,13.6316,13.6316.06477.06384.12863.12863.19294.19294a20.63384,20.63384,0,0,0,14.14213,5.85786,22.25061,22.25061,0,0,0,14.14214-5.85786c3.49888-3.81149,6.09644-8.81555,5.85786-14.14214a20.84639,20.84639,0,0,0-5.85786-14.14213l-11.15558-11.15558-26.79222-26.79222L2329.115,901.39381l-28.03023-28.03023c-4.54343-4.54343-9.05516-9.12136-13.6316-13.6316-.06477-.06384-.12863-.12863-.19294-.19294a20.63379,20.63379,0,0,0-14.14213-5.85786A22.25061,22.25061,0,0,0,2258.976,859.539c-3.49888,3.81149-6.09644,8.81555-5.85786,14.14214a20.84635,20.84635,0,0,0,5.85786,14.14213Z" transform="translate(-1075.96896 -782.44604)"/><path class="cls-4" d="M2371.19564,856.5677l-11.15558,11.15558-26.79222,26.79222-32.41711,32.4171-28.03023,28.03024c-4.54343,4.54343-9.12136,9.05516-13.6316,13.6316-.06384.06477-.12863.12863-.19294.19294a20.63379,20.63379,0,0,0-5.85786,14.14213,22.25061,22.25061,0,0,0,5.85786,14.14214c3.81149,3.49888,8.81555,6.09644,14.14214,5.85786a20.84635,20.84635,0,0,0,14.14213-5.85786l11.15558-11.15558,26.79222-26.79222,32.4171-32.4171,28.03024-28.03024c4.54343-4.54343,9.12136-9.05516,13.6316-13.6316.06384-.06477.12863-.12863.19294-.19294a20.63384,20.63384,0,0,0,5.85786-14.14213,22.25061,22.25061,0,0,0-5.85786-14.14214c-3.81149-3.49888-8.81555-6.09644-14.14214-5.85786a20.84635,20.84635,0,0,0-14.14213,5.85786Z" transform="translate(-1075.96896 -782.44604)"/></svg>