<svg xmlns="http://www.w3.org/2000/svg" viewBox="0 0 72.09 72.09"><defs><style>.cls-1{fill:#64c5ba;}</style></defs><g id="Layer_2" data-name="Layer 2"><g id="Layer_1-2" data-name="Layer 1"><path class="cls-1" d="M36,6.35A29.58,29.58,0,1,1,6.42,36.16,29.58,29.58,0,0,1,36,6.35ZM64.61,35.94A28.61,28.61,0,1,0,36,64.53h0A28.68,28.68,0,0,0,64.59,35.94Z"/><path class="cls-1" d="M14.11,10.49c.23,0,.44,0,.49.15.15.42.53.56.86.78a.71.71,0,0,1,.12,1l-.05.06c-.3.33-.66.61-1,.91a.21.21,0,0,1-.32,0L12.83,11.8c-.07-.08-.14-.18-.05-.26a3.32,3.32,0,0,1,1.27-1S14.13,10.49,14.11,10.49Zm.72,1.34c-.18,0-.66.39-.58.5s.15.31.28.25a.78.78,0,0,0,.53-.53c0-.14-.11-.22-.23-.22Zm-1,0a1,1,0,0,0,.43-.45c0-.12,0-.21-.15-.2a.64.64,0,0,0-.53.42c-.05.08.08.17.25.21Z"/><path class="cls-1" d="M49.74,67.27a.61.61,0,0,1-.61-.46.35.35,0,0,0-.33-.31.74.74,0,0,1-.59-.88.67.67,0,0,1,.15-.33,9.65,9.65,0,0,1,1-.94c.12-.12.22-.07.32,0L51.08,66c.07.09.17.2.05.3a5.34,5.34,0,0,1-1.16,1A1,1,0,0,1,49.74,67.27Zm-.07-1.86c-.09-.12-.15-.25-.31-.26s-.54.45-.52.56a.2.2,0,0,0,.22.19h.06a.88.88,0,0,0,.55-.48Zm.65.76c0-.13-.12-.26-.21-.23a.79.79,0,0,0-.5.46c0,.11.08.23.19.21a1,1,0,0,0,.53-.44Z"/><path class="cls-1" d="M58.58,13.7a1.4,1.4,0,0,1-1-.56c-.53-.5-.53-.5,0-1,.36-.38.72-.73,1.06-1.11.17-.18.32-.19.49,0a4.67,4.67,0,0,0,.45.44,1,1,0,0,1,.36,1.31A1.6,1.6,0,0,1,58.58,13.7Zm.79-1.41a.66.66,0,0,0-.36-.56c-.2-.1-.26.12-.36.21l-.54.54a.22.22,0,0,0-.08.31.16.16,0,0,0,.08.08c.15.13.3.33.55.21A1.35,1.35,0,0,0,59.37,12.29Z"/><path class="cls-1" d="M13.5,58a1.41,1.41,0,0,1,1,.57c.58.57.65.35,0,1-.3.32-.61.65-.91.95s-.4.43-.83,0q-.13-.15-.3-.3A1,1,0,0,1,12.2,59,1.55,1.55,0,0,1,13.5,58Zm-.24,2a.34.34,0,0,1,.06-.12c.2-.21.41-.42.6-.65.08-.08.3-.16.12-.33s-.31-.45-.61-.31a1.3,1.3,0,0,0-.65.73A.58.58,0,0,0,13.26,60Z"/><path class="cls-1" d="M40.57,5l-.84-.09c-.23,0-.27-.16-.24-.36.1-.65.2-1.3.28-2,0-.24.14-.3.36-.26s.62.09.92.15a.91.91,0,0,1,.79.88,1.88,1.88,0,0,1-.11.91C41.54,4.86,41.28,5,40.57,5Zm.6-1.24V3.45A.52.52,0,0,0,40.63,3c-.37,0-.26.26-.3.43s-.07.51-.12.76,0,.27.22.3c.53.11.75-.11.79-.68Z"/><path class="cls-1" d="M31.42,66.61c1.16,0,1.2.07,1.06,1.18,0,.4-.12.79-.16,1.18,0,.24-.12.33-.35.29s-.59-.06-.88-.11a1,1,0,0,1-.82-.81,1.3,1.3,0,0,1,.81-1.66A1.37,1.37,0,0,1,31.42,66.61Zm.43,1c0-.15.09-.34-.13-.4s-.45-.1-.61.13a1.31,1.31,0,0,0-.15,1c.06.28.33.34.57.34s.21-.23.23-.38.07-.48.1-.71Z"/><path class="cls-1" d="M20.9,65.4c0-.57.07-1.15.11-1.73,0-.14,0-.38.19-.34s.53.08.48.37c-.07.46.22.55.52.66a.31.31,0,0,0,.41-.07.6.6,0,0,1,.25-.16.46.46,0,0,1,.45.18c.14.16-.07.24-.16.32-.45.44-.92.87-1.38,1.31-.17.16-.31.3-.59.17a.46.46,0,0,1-.29-.56V65.4Z"/><path class="cls-1" d="M51.26,6c0,.66-.1,1.31-.16,2,0,.12,0,.35-.18.3s-.48-.07-.44-.35-.19-.54-.48-.65-.34-.14-.49.06-.42.12-.65,0-.16-.15,0-.26c.57-.52,1.15-1,1.71-1.57.2-.19.37,0,.55,0S51.25,5.85,51.26,6Zm-.7.36c-.15.11-.33.19-.39.38C50.72,7,50.48,6.55,50.56,6.38Z"/><path class="cls-1" d="M30.93,5.16c-.21,0-.26-.09-.28-.25-.08-.44-.17-.89-.23-1.3s-.12-.43-.43-.34-.37,0-.4-.27.16-.25.32-.28l1.41-.23c.19,0,.33-.05.37.2s-.05.32-.26.33c-.39,0-.43.2-.36.53s.14.81.22,1.21S31.21,5.17,30.93,5.16Z"/><path class="cls-1" d="M40.71,69.11c-.18,0-.24,0-.27-.22s0-.32.22-.32c.42,0,.48-.17.37-.55a9.87,9.87,0,0,1-.22-1.25c-.05-.22,0-.31.25-.34s.36,0,.4.23c.06.44.14.89.21,1.3,0,.25.12.44.44.33s.35-.07.41.21-.11.3-.3.33Z"/><path class="cls-1" d="M3.43,36.65A.73.73,0,0,1,2.65,36v-.11a.8.8,0,0,1,.78-.79.84.84,0,0,1,.81.82.77.77,0,0,1-.81.74Z"/><path class="cls-1" d="M68.57,36.65a.74.74,0,0,1-.78-.69v-.07a.82.82,0,0,1,.78-.8.8.8,0,0,1,.79.78.71.71,0,0,1-.66.78Z"/><path class="cls-1" d="M22.43,7.93c-.12,0-.15-.11-.2-.19-.29-.62-.58-1.23-.88-1.83-.11-.23,0-.34.17-.43s.33-.12.44.13c.27.6.56,1.2.84,1.8a.37.37,0,0,1-.18.49A.32.32,0,0,1,22.43,7.93Z"/><path class="cls-1" d="M49.62,63.66c.14,0,.18.12.22.22.29.6.57,1.2.86,1.79.1.2.1.33-.13.44s-.35.06-.46-.17c-.27-.59-.56-1.16-.84-1.75a.37.37,0,0,1,.35-.53Z"/><path class="cls-1" d="M50.65,24.23v4.11c0,1.12-.08,2.24-.14,3.35,0,.29,0,.45.36.5a1.89,1.89,0,0,1,.65.24,1.46,1.46,0,0,1,.93,1.51,9.65,9.65,0,0,0,0,1.7,5.48,5.48,0,0,1-.65,3,1.34,1.34,0,0,0-.14.65A5.53,5.53,0,0,1,50.58,43a.63.63,0,0,0-.1.48v4.3a2.24,2.24,0,0,1-.32,1.15,24.85,24.85,0,0,1-3.58,4.41C44.79,55.21,42.85,57,41,58.75a2.41,2.41,0,0,1-1.54.56,27.52,27.52,0,0,1-6.54,0A3.11,3.11,0,0,1,31,58.48c-2.24-2.12-4.58-4.16-6.66-6.42a20.32,20.32,0,0,1-2.52-3.19,2.43,2.43,0,0,1-.35-1.31c0-1.39,0-2.78,0-4.16a1.2,1.2,0,0,0-.24-.75,4.28,4.28,0,0,1-.84-2.54,6.18,6.18,0,0,0-.6-2.53,2.7,2.7,0,0,1-.21-1.19c0-.85,0-1.71,0-2.55a1.41,1.41,0,0,1,.71-1.34,1.42,1.42,0,0,1,.77-.34c.5,0,.52-.27.5-.65-.14-3.83-.25-7.64-.21-11.46a1,1,0,0,1,.32-.79,41.17,41.17,0,0,1,4.4-4.05,16.05,16.05,0,0,1,6.78-2.85,16.79,16.79,0,0,1,16,5.35c.54.57,1.11,1.13,1.68,1.68a.63.63,0,0,1,.2.49v4.33Zm-14.6-4.85H28.66a.62.62,0,0,0-.49.2L25.4,22.34a.77.77,0,0,0-.24.59v5.23a1.29,1.29,0,0,1-.17.69c-.72,1.35-1.42,2.7-2.13,4a.81.81,0,0,0-.08.66,5.78,5.78,0,0,1,0,2.68,7.49,7.49,0,0,0-.34,1.49v4.16A10.67,10.67,0,0,0,23,45.48,5.37,5.37,0,0,0,25.43,49a2.81,2.81,0,0,1,.65.48c.3.3.55.24.89,0,1.66-1,3.32-2.09,5.07-3a4,4,0,0,1,3.86-.2.52.52,0,0,0,.51-.06A3.78,3.78,0,0,1,38.66,46a6,6,0,0,1,2,.73c1.58.92,3.15,1.84,4.69,2.82a.66.66,0,0,0,.87,0c.56-.47,1.17-.89,1.77-1.31a1.26,1.26,0,0,0,.34-.42,13.53,13.53,0,0,0,1.26-5.84c0-1.16,0-2.32,0-3.48a3.89,3.89,0,0,0-.19-1.31,5.61,5.61,0,0,1,0-3.53.94.94,0,0,0-.07-.77c-.74-1.3-1.44-2.66-2.17-4a1.24,1.24,0,0,1-.15-.65V23a.73.73,0,0,0-.19-.58c-.94-.92-1.87-1.86-2.79-2.79a.85.85,0,0,0-.66-.26ZM49.48,31.24h.07c.07-1.31.18-2.62.2-3.92,0-2.32,0-4.65,0-7a.78.78,0,0,0-.25-.6c-.55-.53-1.09-1.06-1.62-1.62a15.22,15.22,0,0,0-5-3.67,17,17,0,0,0-8.25-1.36A15.1,15.1,0,0,0,25,17.35l-2.26,2.24a1.21,1.21,0,0,0-.41.93c0,2.88.06,5.77.14,8.66a15.41,15.41,0,0,0,.1,2.25c.51-.95,1-1.81,1.42-2.66a2.18,2.18,0,0,0,.25-1.06V22.48a.71.71,0,0,1,.23-.56c1.07-1.05,2.13-2.12,3.18-3.18a.74.74,0,0,1,.56-.24H43.92a.68.68,0,0,1,.52.21q1.59,1.61,3.19,3.18a.85.85,0,0,1,.26.66c0,1.81,0,3.62,0,5.43a1,1,0,0,0,.1.45c.49.94,1,1.87,1.49,2.8ZM40.33,58l.1,0L42.62,56a.49.49,0,0,0,.12-.43V53.26c0-.36.07-.51.49-.52s.48.2.47.54v1.55l.16.13a7.62,7.62,0,0,1,.91-1.05,1.74,1.74,0,0,0,.71-1.69,5.06,5.06,0,0,1,0-1.1.65.65,0,0,0-.35-.65c-1.76-1-3.49-2.11-5.26-3.11a3.18,3.18,0,0,0-3.27-.17,1,1,0,0,1-1,0,3.14,3.14,0,0,0-3.16.15c-1.75.95-3.45,2-5.15,3a.52.52,0,0,0-.27.48V53a1,1,0,0,0,.4.91c.43.36.8.76,1.21,1.14a3.11,3.11,0,0,0,.65.55V53.16c0-.3,0-.48.41-.45s.57,0,.56.46c0,1,0,2,0,3a.56.56,0,0,0,.13.47l1.7,1.55a.34.34,0,0,0,.38.11c.14-.05.09-.21.09-.33V54.11c0-.38.13-.48.49-.48s.47.12.47.49V58c0,.3,0,.45.41.47.55,0,1.1,0,1.65.05.33,0,.41-.11.4-.42V54.75c0-.36.09-.51.47-.5s.5.11.48.49v3.44c0,.26.06.35.34.32.55-.06,1.09,0,1.65-.09.38,0,.5-.17.49-.55V53.79c0-.38.2-.4.48-.4s.49,0,.48.4c0,.55,0,1.08,0,1.62ZM50.5,41a4.19,4.19,0,0,0,.24-1.49A2.9,2.9,0,0,1,51,38.27a4.44,4.44,0,0,0,.57-2.36c0-.65,0-1.31,0-2a1,1,0,0,0-1-.81.16.16,0,0,0-.15.12,5.65,5.65,0,0,0-.19,3.54,4.89,4.89,0,0,1,.26,1.66c0,.84,0,1.7,0,2.55Zm-29-.08h.09v-.74A15.19,15.19,0,0,1,22,35.72a3.58,3.58,0,0,0-.06-2c-.06-.21-.1-.47-.34-.55a1,1,0,0,0-1,.8V36.3a2.84,2.84,0,0,0,.23,1.19,5.06,5.06,0,0,1,.59,2.61,4.28,4.28,0,0,0,.11.8Zm4.63,11.67V51a.6.6,0,0,0-.27-.53l-2.09-1.52a1.67,1.67,0,0,1-.55-.66c-.22-.46-.46-.91-.65-1.37a2.33,2.33,0,0,0,.1,1.45,24,24,0,0,0,3.44,4.22Zm20.3-.46a19.8,19.8,0,0,0,3-3.74,2.32,2.32,0,0,0,.09-1.14,2.63,2.63,0,0,0-.27.56,2.54,2.54,0,0,1-1.1,1.39c-.53.34-1,.73-1.51,1.1a.47.47,0,0,0-.24.37c0,.45,0,.92,0,1.45Z"/><path class="cls-1" d="M35.46,61.78c0,.78-.2,1.06-.65,1a.52.52,0,0,1-.5-.38,2,2,0,0,1,0-1A.57.57,0,0,1,35,61a.56.56,0,0,1,.46.46A1.13,1.13,0,0,1,35.46,61.78Zm-.46.14v-.15c0-.13,0-.35-.13-.35s-.15.23-.17.37a.14.14,0,0,0,0,.09c0,.18-.07.49.17.49s.09-.31.13-.45Z"/><path class="cls-1" d="M39.08,61.85c0-.6.2-.88.61-.88s.66.3.62.89-.2.93-.65.92S39.07,62.5,39.08,61.85Zm.76,0c-.05-.15.12-.46-.16-.46s-.14.29-.14.45-.08.49.16.49.11-.25.14-.44Z"/><path class="cls-1" d="M32.55,62.36c.16.11.51-.09.5.24s-.35.14-.54.21h-.12c-.18-.05-.44.12-.54-.11s.13-.41.29-.58.28-.28.41-.43a.17.17,0,0,0,0-.24l0,0c-.1-.1-.19,0-.25,0a.24.24,0,0,1-.33.11.2.2,0,0,1-.09-.07c-.11-.15,0-.3.14-.4a.74.74,0,0,1,.87,0,.6.6,0,0,1,0,.81C32.78,62.08,32.67,62.22,32.55,62.36Z"/><path class="cls-1" d="M37.3,62.4h.3c.14,0,.26,0,.26.19s-.09.21-.24.21H37c-.12,0-.28.06-.33-.11a.35.35,0,0,1,.11-.34c.17-.19.34-.38.52-.56s.2-.24.07-.37-.2,0-.27.1a.25.25,0,0,1-.36,0h0c-.11-.12,0-.25.07-.34a.69.69,0,0,1,.88-.12.52.52,0,0,1,.15.72l0,0A5.29,5.29,0,0,1,37.3,62.4Z"/><path class="cls-1" d="M34,36.9v5.73c0,.38.09.55.49.5a1.55,1.55,0,0,1,1.55.59c.11.14.19.1.29,0,.65-.87,1.61-.66,2.47-.59.33,0,.16.39.18.61s0,.3-.25.3h-.89c-.61,0-.85.16-1,.76-.07.33-.24.37-.52.38s-.75,0-.85-.54a.73.73,0,0,0-.83-.58h-1c-.45,0-.59-.15-.54-.56V32.22c0-.37-.1-.5-.5-.5H25.91a.54.54,0,0,0-.56.33c-.12.23-.28.44-.38.66a.32.32,0,0,1-.52.15c-.5-.31-.51-.29-.2-.81a2,2,0,0,0,.22-.37c.27-.8.82-1,1.63-.94,2.49.06,5,0,7.47,0,.37,0,.47.09.47.47Z"/><path class="cls-1" d="M42.89,30.57h3.92a.56.56,0,0,1,.57.33c.21.42.43.83.65,1.23s-.14.39-.31.51-.37.26-.51,0a.41.41,0,0,1-.07-.11c-.23-.84-.8-1-1.63-1-2.16.06-4.33,0-6.5,0a.54.54,0,0,1-.56-.52.53.53,0,0,1,.07-.3c.1-.17.28-.12.42-.12Z"/><path class="cls-1" d="M43.18,34.94H40.26c-.36,0-.44-.13-.43-.45s0-.52.41-.52h6c.35,0,.34.22.32.46s.1.52-.34.51Z"/><path class="cls-1" d="M28.36,35.35H25.44c-.35,0-.45-.13-.44-.45s0-.53.44-.53h5.88c.39,0,.38.22.38.49s0,.49-.39.49H28.36Z"/><path class="cls-1" d="M36.57,30.68v2.37c0,.31,0,.47-.4.46s-.57,0-.56-.47V28.27a.53.53,0,0,1,.44-.59.51.51,0,0,1,.36.08c.2.08.15.26.15.4C36.57,29,36.57,29.83,36.57,30.68Z"/><path class="cls-1" d="M36.29,50.41H31.11c-.37,0-.45-.14-.45-.47s.06-.49.44-.49H41.56c.38,0,.39.19.39.47s0,.49-.43.49H36.29Z"/><path class="cls-1" d="M36.3,51.6h1.83c.28,0,.42.09.39.39s.11.55-.35.55c-1.21,0-2.43,0-3.64.06-.49,0-.41-.28-.44-.58s.15-.39.43-.38H36.3Z"/><path class="cls-1" d="M36,72.09a36,36,0,1,1,14.08-2.84A36,36,0,0,1,36,72.09ZM36,.6A35.32,35.32,0,1,0,71.32,35.92h0A35.38,35.38,0,0,0,36,.6Z"/></g></g></svg>
