<svg id="Layer_1" data-name="Layer 1" xmlns="http://www.w3.org/2000/svg" viewBox="0 0 1200 900"><defs><style>.cls-1{fill:#0d2d3e;}.cls-2{fill:#fff;}</style></defs><title>banner (1)</title><path class="cls-1" d="M670.85,96.41A64.35,64.35,0,1,1,606.5,32.06a64.35,64.35,0,0,1,64.35,64.35"/><path class="cls-2" d="M606.78,44.66a51.55,51.55,0,1,1-51.53,52c-.23-28.89,23.49-52.12,51.53-51.95m49.87,51.57a49.86,49.86,0,1,0-49.89,49.82h0a50,50,0,0,0,49.85-49.82Z"/><path class="cls-2" d="M550,97.46a1.25,1.25,0,0,1-1.34-1.15.54.54,0,0,1,0-.18A1.37,1.37,0,0,1,550,94.75a1.46,1.46,0,0,1,1.41,1.42A1.35,1.35,0,0,1,550,97.46Z"/><path class="cls-2" d="M663.55,97.46a1.27,1.27,0,0,1-1.35-1.19.57.57,0,0,1,0-.13,1.45,1.45,0,0,1,1.37-1.39,1.41,1.41,0,0,1,1.38,1.36,1.26,1.26,0,0,1-1.16,1.35.88.88,0,0,1-.23,0"/><path class="cls-2" d="M568.65,51.87c.39,0,.75,0,.84.26.27.74.92,1,1.5,1.36a1.25,1.25,0,0,1,.21,1.75l-.09.1c-.52.57-1.14,1.06-1.67,1.58a.36.36,0,0,1-.56,0l-2.48-2.77c-.11-.13-.23-.3-.09-.45a6.19,6.19,0,0,1,2.22-1.78c.07-.07.15-.05.12-.05m1.24,2.34c-.31,0-1.14.68-1,.87s.27.53.49.44a1.42,1.42,0,0,0,.93-.93c0-.24-.19-.38-.41-.38Zm-1.72,0a1.83,1.83,0,0,0,.75-.78c0-.21,0-.38-.26-.36a1.12,1.12,0,0,0-.93.74c-.08.13.14.3.44.36Z"/><path class="cls-2" d="M646.15,57.47a2.41,2.41,0,0,1-1.74-1c-.92-.88-.92-.88,0-1.8.61-.65,1.24-1.27,1.84-1.92.3-.32.55-.35.86,0a8,8,0,0,0,.78.76,1.8,1.8,0,0,1,.62,2.28,2.83,2.83,0,0,1-2.36,1.66M647.52,55a1.16,1.16,0,0,0-.63-1c-.34-.18-.44.21-.63.37s-.62.63-.94.93a.4.4,0,0,0-.14.55.44.44,0,0,0,.14.13c.27.23.53.58,1,.37A2.38,2.38,0,0,0,647.52,55"/><path class="cls-2" d="M614.75,42.31l-1.46-.17c-.4,0-.47-.27-.41-.61.17-1.14.35-2.28.49-3.42,0-.43.24-.53.62-.47s1.07.16,1.61.28A1.58,1.58,0,0,1,617,39.44a3.13,3.13,0,0,1-.19,1.6c-.33,1-.78,1.33-2,1.27m1-2.17V39.6a.9.9,0,0,0-.94-.84c-.65,0-.45.46-.52.76s-.12.88-.21,1.31,0,.48.39.54c.92.18,1.29-.2,1.37-1.2Z"/><path class="cls-2" d="M633.39,44.09c-.1,1.14-.18,2.28-.28,3.41,0,.21.08.61-.32.53s-.83-.13-.77-.62c.08-.69-.32-.94-.83-1.14-.33-.15-.6-.23-.85.11s-.74.21-1.14,0-.28-.25-.07-.45c1-.91,2-1.82,3-2.74.34-.33.64,0,1,.06s.3.53.32.84m-1.22.62c-.27.2-.57.32-.68.65,1,.48.54-.36.68-.65"/><path class="cls-2" d="M598,42.57c-.38,0-.46-.14-.5-.42-.14-.77-.3-1.55-.4-2.27-.07-.48-.21-.76-.74-.6s-.65,0-.71-.46.29-.44.56-.48c.82-.14,1.65-.26,2.47-.41.33-.06.57-.08.64.35s-.08.56-.46.57c-.67,0-.75.35-.62.92s.24,1.42.38,2.11-.14.72-.62.69"/><path class="cls-2" d="M583.13,47.41c-.2,0-.26-.19-.34-.34-.51-1.07-1-2.13-1.54-3.19-.18-.38-.06-.59.3-.75s.58-.19.76.23c.48,1.06,1,2.1,1.48,3.14a.65.65,0,0,1-.32.86.57.57,0,0,1-.34,0"/><path class="cls-2" d="M632.33,75.81V83c0,1.94-.14,3.89-.24,5.83,0,.5,0,.78.61.86a3.38,3.38,0,0,1,1.14.44,2.56,2.56,0,0,1,1.63,2.62,16.26,16.26,0,0,0,0,3,9.77,9.77,0,0,1-1.14,5.27,2.47,2.47,0,0,0-.25,1.14,9.55,9.55,0,0,1-1.88,6.38,1.16,1.16,0,0,0-.18.85v7.48a3.73,3.73,0,0,1-.55,2,42.28,42.28,0,0,1-6.24,7.68c-3.12,3.3-6.5,6.33-9.77,9.47a4.11,4.11,0,0,1-2.7,1,47.09,47.09,0,0,1-11.38,0,5.44,5.44,0,0,1-3.36-1.43c-3.9-3.7-8-7.26-11.61-11.2a35.23,35.23,0,0,1-4.38-5.57,4.13,4.13,0,0,1-.62-2.27c0-2.43,0-4.84.06-7.26a2.08,2.08,0,0,0-.42-1.29,7.47,7.47,0,0,1-1.46-4.43,10.86,10.86,0,0,0-1.05-4.41,5,5,0,0,1-.37-2.08c0-1.49.08-3,0-4.45a2.48,2.48,0,0,1,1.24-2.33,2.58,2.58,0,0,1,1.34-.59c.87,0,.9-.47.88-1.14-.25-6.66-.43-13.31-.36-20a1.75,1.75,0,0,1,.55-1.37c2.52-2.39,4.8-5,7.67-7.06a27.94,27.94,0,0,1,11.81-5,29.3,29.3,0,0,1,27.84,9.32c.94,1,1.93,2,2.92,2.93a1.11,1.11,0,0,1,.36.85v7.55Zm-25.45-8.45H594a1.17,1.17,0,0,0-.86.35c-1.59,1.61-3.2,3.21-4.81,4.81a1.3,1.3,0,0,0-.43,1v9.11a2.33,2.33,0,0,1-.29,1.19c-1.25,2.36-2.48,4.72-3.73,7.08a1.4,1.4,0,0,0-.12,1.13,10.27,10.27,0,0,1,0,4.68,12.17,12.17,0,0,0-.6,2.59v7.25a18.8,18.8,0,0,0,.92,6.27c.78,2.49,1.76,4.87,4.29,6.18a4.94,4.94,0,0,1,1.14.84c.51.51.94.42,1.54,0,2.9-1.82,5.79-3.64,8.83-5.25a7,7,0,0,1,6.73-.35.91.91,0,0,0,.9-.1,6.42,6.42,0,0,1,3.91-.49,10.55,10.55,0,0,1,3.42,1.27c2.75,1.6,5.5,3.2,8.17,4.91a1.13,1.13,0,0,0,1.52,0c1-.81,2.05-1.54,3.08-2.28a2.17,2.17,0,0,0,.61-.73,23.35,23.35,0,0,0,2.18-10.18c.08-2,0-4,0-6.07a6.71,6.71,0,0,0-.32-2.27,9.69,9.69,0,0,1,0-6.16,1.58,1.58,0,0,0-.13-1.34c-1.28-2.27-2.51-4.63-3.77-7a2.27,2.27,0,0,1-.28-1.14v-9a1.28,1.28,0,0,0-.32-1c-1.64-1.6-3.25-3.23-4.87-4.86a1.51,1.51,0,0,0-1.14-.45ZM630.28,88h.12c.13-2.28.32-4.55.35-6.83.08-4,0-8.1.08-12.14a1.34,1.34,0,0,0-.43-1c-1-.92-1.9-1.85-2.82-2.82a26.54,26.54,0,0,0-8.78-6.4,29.77,29.77,0,0,0-14.37-2.37,26.4,26.4,0,0,0-16.83,7.4l-3.94,3.91a2.12,2.12,0,0,0-.71,1.62c0,5,.1,10.06.24,15.1a28.43,28.43,0,0,0,.18,3.91c.88-1.65,1.66-3.15,2.47-4.63a3.85,3.85,0,0,0,.44-1.85V72.77a1.25,1.25,0,0,1,.39-1c1.87-1.83,3.72-3.69,5.55-5.54a1.3,1.3,0,0,1,1-.42h27.39a1.16,1.16,0,0,1,.91.37c1.84,1.86,3.69,3.7,5.55,5.55a1.45,1.45,0,0,1,.47,1.14c0,3.15.08,6.31,0,9.46a1.57,1.57,0,0,0,.17.79Q629,85.59,630.28,88Zm-15.95,46.6.19.07,3.81-3.6a.9.9,0,0,0,.21-.75v-3.93c0-.64.12-.9.85-.91s.83.35.82.94v2.7l.27.22a14.58,14.58,0,0,1,1.6-1.82,3.07,3.07,0,0,0,1.23-3,8.8,8.8,0,0,1,0-1.92,1.15,1.15,0,0,0-.61-1.14c-3.06-1.79-6.08-3.67-9.16-5.42a5.53,5.53,0,0,0-5.7-.28,1.79,1.79,0,0,1-1.71,0,5.47,5.47,0,0,0-5.51.25c-3,1.66-6,3.48-9,5.32a.87.87,0,0,0-.47.83v3.7a1.8,1.8,0,0,0,.7,1.59c.74.62,1.39,1.33,2.09,2a5.19,5.19,0,0,0,1.14.95v-4.23c0-.53.08-.84.72-.79s1,0,1,.81c-.06,1.74,0,3.5,0,5.25a.93.93,0,0,0,.24.82c1,.89,2,1.8,3,2.7a.63.63,0,0,0,.67.19c.25-.09.16-.38.16-.58V127.9c0-.66.21-.84.85-.84s.82.21.82.85v6.83c0,.53.08.79.71.82.95,0,1.92,0,2.88.09.58,0,.7-.19.69-.73V129c0-.62.16-.89.82-.86s.87.19.85.85v6c0,.46.1.62.58.56,1-.09,1.91-.06,2.88-.15.66-.06.86-.29.85-1v-7.1c0-.66.35-.7.84-.7s.86,0,.84.71c-.06.95,0,1.88,0,2.81ZM632.06,105a7.32,7.32,0,0,0,.43-2.58,4.74,4.74,0,0,1,.42-2.16,7.85,7.85,0,0,0,1-4.11c-.08-1.13,0-2.27,0-3.48a1.71,1.71,0,0,0-1.72-1.41.25.25,0,0,0-.25.21,9.85,9.85,0,0,0-.34,6.16,8.63,8.63,0,0,1,.46,2.9c-.07,1.47,0,3,0,4.45Zm-50.56-.12h.15v-1.3c.07-2.6-.16-5.19.67-7.76a6.29,6.29,0,0,0-.11-3.57c-.09-.37-.16-.82-.59-1a1.7,1.7,0,0,0-1.77,1.4v4.14a4.68,4.68,0,0,0,.4,2.08,8.9,8.9,0,0,1,1,4.55,6.46,6.46,0,0,0,.19,1.39Zm8.07,20.33v-2.79a1,1,0,0,0-.47-.92c-1.22-.87-2.43-1.79-3.64-2.66a3,3,0,0,1-1-1.14c-.38-.81-.8-1.6-1.14-2.39a4.14,4.14,0,0,0,.18,2.53,43.15,43.15,0,0,0,6,7.35Zm35.38-.8a34.8,34.8,0,0,0,5.26-6.52,4.07,4.07,0,0,0,.17-2,4.25,4.25,0,0,0-.48,1,4.36,4.36,0,0,1-1.92,2.42c-.92.6-1.76,1.28-2.64,1.92a.78.78,0,0,0-.4.65c0,.78,0,1.59,0,2.51Z"/><path class="cls-2" d="M605.85,141.27c0,1.35-.35,1.84-1.14,1.77a.9.9,0,0,1-.86-.67,3.16,3.16,0,0,1,0-1.67,1,1,0,0,1,2,0,2.73,2.73,0,0,1,0,.57m-.81.24a1.22,1.22,0,0,0,0-.27c0-.22.08-.6-.23-.61s-.26.4-.29.65a.38.38,0,0,0,0,.15c0,.32-.12.85.3.85s.16-.52.22-.77"/><path class="cls-2" d="M612.16,141.38c0-1,.34-1.53,1.07-1.53s1.14.52,1.07,1.54S614,143,613.16,143s-1-.49-1-1.63m1.33,0c-.1-.26.19-.8-.28-.8s-.24.5-.24.79-.15.84.27.84.19-.43.25-.76Z"/><path class="cls-2" d="M600.77,142.27c.29.19.9-.16.88.42s-.61.25-.94.36a.37.37,0,0,1-.21,0c-.32-.07-.78.21-.94-.19s.23-.72.51-1,.47-.49.7-.75a.3.3,0,0,0,0-.42s0,0,0,0c-.17-.17-.32-.08-.42.08a.44.44,0,0,1-.58.21.43.43,0,0,1-.16-.14c-.19-.25,0-.51.25-.69a1.26,1.26,0,0,1,1.5,0,1,1,0,0,1,0,1.41,6.94,6.94,0,0,1-.59.75"/><path class="cls-2" d="M609.06,142.34h.52c.24,0,.46,0,.46.33s-.17.37-.42.37h-1.14c-.2,0-.49.11-.58-.19a.67.67,0,0,1,.2-.6c.29-.33.6-.65.9-1s.35-.42.12-.64-.34,0-.47.16a.44.44,0,0,1-.63,0l0,0c-.19-.19,0-.42.13-.59a1.2,1.2,0,0,1,1.53-.21.92.92,0,0,1,.25,1.27l0,0a10.2,10.2,0,0,1-.81,1"/><path class="cls-2" d="M603.37,97.89v10c0,.66.16,1,.86.88a2.69,2.69,0,0,1,2.7,1c.18.25.33.18.5,0,1.14-1.51,2.8-1.14,4.32-1,.57,0,.26.68.31,1.06s-.07.53-.45.53h-1.55c-1,0-1.48.27-1.73,1.32-.13.57-.42.65-.92.66-.74,0-1.3,0-1.48-.94a1.25,1.25,0,0,0-1.45-1h-1.7c-.78.08-1-.27-.94-1a1.5,1.5,0,0,0,0-.3V89.75c0-.66-.18-.89-.86-.89H589.21a1,1,0,0,0-1,.6c-.2.38-.48.75-.66,1.13s-.44.54-.9.27c-.87-.54-.89-.5-.34-1.42a3.11,3.11,0,0,0,.38-.63c.46-1.4,1.43-1.68,2.83-1.64,4.34.1,8.69,0,13,0,.65,0,.82.16.81.82Z"/><path class="cls-2" d="M618.8,86.87h6.83a1,1,0,0,1,1,.58c.37.72.75,1.44,1.14,2.14s-.25.67-.55.88-.65.47-.89-.08l-.11-.19c-.41-1.47-1.4-1.76-2.85-1.71-3.77.11-7.54,0-11.32,0a1,1,0,0,1-1-.9.93.93,0,0,1,.14-.54c.17-.29.48-.2.73-.2Z"/><path class="cls-2" d="M619.31,94.48h-5.1c-.62,0-.76-.23-.74-.79s0-.9.7-.9h10.42c.63,0,.61.39.57.8s.17.91-.6.89Z"/><path class="cls-2" d="M593.47,95.19h-5.09c-.6,0-.78-.21-.76-.77s0-.92.76-.92h10.25c.68,0,.66.37.67.85s0,.86-.68.84h-5.15Z"/><path class="cls-2" d="M607.79,87.05V91.2c0,.52-.07.82-.71.78s-1,0-1-.81V82.86a.91.91,0,0,1,.77-1,1,1,0,0,1,.62.13c.35.15.26.46.26.71,0,1.42,0,2.91,0,4.38"/><path class="cls-2" d="M607.3,121.44h-9c-.65,0-.78-.24-.78-.82s.09-.85.76-.85h18.22c.68,0,.69.33.69.82s0,.86-.74.85H607.3Z"/><path class="cls-2" d="M607.32,123.51h3.18c.5,0,.74.16.68.69s.19,1-.6,1c-2.12,0-4.24,0-6.36.1-.84,0-.7-.5-.76-1s.26-.67.75-.66h3.11Z"/><path class="cls-2" d="M606.78,159.24a62.85,62.85,0,1,1,24.54-5,62.83,62.83,0,0,1-24.54,5m0-124.6A61.56,61.56,0,1,0,668.34,96.2a61.56,61.56,0,0,0-61.56-61.56"/><path class="cls-2" d="M645.14,139.73c-.39,0-.75,0-.84-.26-.28-.74-.93-1-1.51-1.37a1.24,1.24,0,0,1-.2-1.74l.09-.1c.51-.57,1.14-1.06,1.66-1.59a.39.39,0,0,1,.57,0l2.47,2.77c.12.14.24.31.09.46a6.18,6.18,0,0,1-2.22,1.77.19.19,0,0,1-.11.06m-1.24-2.35c.31,0,1.14-.68,1-.86s-.27-.54-.49-.45a1.39,1.39,0,0,0-.93.94c0,.24.19.37.41.37Zm1.72,0c-.26.21-.62.39-.75.79,0,.2,0,.38.26.35a1.15,1.15,0,0,0,.93-.74c.08-.12-.15-.29-.44-.35Z"/><path class="cls-2" d="M567.64,134.13a2.43,2.43,0,0,1,1.74,1c.92.87.92.87,0,1.8-.62.64-1.24,1.27-1.84,1.92-.3.32-.55.34-.86,0a8,8,0,0,0-.78-.76,1.8,1.8,0,0,1-.62-2.28,2.78,2.78,0,0,1,2.36-1.66m-1.37,2.46a1.13,1.13,0,0,0,.63,1c.34.19.44-.2.62-.36s.63-.64,1-.93a.41.41,0,0,0,.14-.55.62.62,0,0,0-.14-.14c-.27-.22-.54-.58-1-.36a2.38,2.38,0,0,0-1.24,1.38"/><path class="cls-2" d="M599,149.28l1.47.17c.4,0,.47.28.41.62-.17,1.14-.35,2.28-.49,3.42,0,.43-.24.53-.62.46s-1.08-.16-1.61-.27a1.59,1.59,0,0,1-1.37-1.53,3.19,3.19,0,0,1,.2-1.59c.33-1,.78-1.33,2-1.28m-1,2.18V152a.92.92,0,0,0,.95.85c.65,0,.44-.46.51-.77s.13-.87.22-1.31,0-.47-.39-.53c-.92-.18-1.3.19-1.38,1.19Z"/><path class="cls-2" d="M580.4,147.51c.09-1.14.17-2.28.28-3.42,0-.2-.08-.6.32-.52s.83.12.77.61c-.08.7.32.95.83,1.14.33.16.59.24.84-.1s.74-.22,1.14,0,.29.25.08.44c-1,.91-2,1.82-3,2.75-.34.33-.64,0-.95-.06s-.31-.54-.32-.84m1.22-.63c.26-.19.57-.32.67-.65-.94-.48-.53.37-.67.65"/><path class="cls-2" d="M615.83,149c.37,0,.45.15.5.42.14.78.3,1.55.4,2.28.07.48.2.75.74.59s.65,0,.7.47-.28.43-.55.48c-.82.13-1.65.26-2.47.41-.33.05-.57.08-.64-.36s.08-.55.45-.56c.68,0,.75-.36.63-.93s-.24-1.41-.39-2.1.15-.72.63-.7"/><path class="cls-2" d="M630.65,144.18c.21,0,.27.2.35.34.51,1.07,1,2.13,1.53,3.19.19.39.07.59-.29.75s-.58.2-.77-.22c-.47-1.06-1-2.1-1.48-3.15a.66.66,0,0,1,.66-.91"/></svg>