<svg id="Layer_1" data-name="Layer 1" xmlns="http://www.w3.org/2000/svg" viewBox="0 0 250 250">
    <defs>
        <style>.cls-1{fill:#0b2d3e;}.cls-2{fill:#fff;}</style>
    </defs>
    <title>200</title>
    <path class="cls-1" d="M247.21,124.59A121.71,121.71,0,1,1,125.5,2.88,121.71,121.71,0,0,1,247.21,124.59" />
    <path class="cls-2" d="M126,26.7A97.5,97.5,0,1,1,28.56,125C28.13,70.32,73,26.38,126,26.7m94.3,97.54A94.29,94.29,0,1,0,126,218.46H126a94.51,94.51,0,0,0,94.26-94.22Z" />
    <path class="cls-2" d="M18.68,126.57a2.36,2.36,0,0,1-2.54-2.19,1.82,1.82,0,0,1,0-.33,2.59,2.59,0,0,1,2.56-2.61,2.77,2.77,0,0,1,2.67,2.69,2.56,2.56,0,0,1-2.69,2.44Z" />
    <path class="cls-2" d="M233.39,126.57a2.41,2.41,0,0,1-2.55-2.26,1.93,1.93,0,0,1,0-.24,2.72,2.72,0,0,1,2.59-2.63A2.68,2.68,0,0,1,236,124a2.39,2.39,0,0,1-2.19,2.57,3.23,3.23,0,0,1-.44,0" />
    <path class="cls-2" d="M53.91,40.34c.73,0,1.42,0,1.59.49.52,1.4,1.75,1.85,2.85,2.59a2.34,2.34,0,0,1,.38,3.29,1.54,1.54,0,0,1-.17.19c-1,1.08-2.15,2-3.14,3a.72.72,0,0,1-1.08,0l-4.67-5.24c-.22-.25-.46-.58-.18-.86a11.74,11.74,0,0,1,4.2-3.36c.13-.13.28-.1.22-.1m2.35,4.43c-.58,0-2.16,1.29-1.92,1.64s.52,1,.93.84A2.65,2.65,0,0,0,57,45.48c.09-.45-.36-.71-.77-.71Zm-3.26,0c.5-.39,1.17-.73,1.43-1.48,0-.39,0-.72-.5-.67A2.15,2.15,0,0,0,52.17,44c-.16.24.27.56.83.67Z" />
    <path class="cls-2" d="M200.49,50.93a4.62,4.62,0,0,1-3.3-1.85c-1.74-1.66-1.74-1.66,0-3.4,1.17-1.23,2.35-2.41,3.49-3.64.56-.61,1-.65,1.62,0a16.77,16.77,0,0,0,1.48,1.44A3.41,3.41,0,0,1,205,47.79a5.31,5.31,0,0,1-4.46,3.14m2.58-4.65a2.15,2.15,0,0,0-1.18-1.83c-.65-.34-.84.39-1.19.69s-1.18,1.2-1.78,1.76a.75.75,0,0,0-.26,1,.81.81,0,0,0,.26.26c.51.43,1,1.09,1.81.68a4.42,4.42,0,0,0,2.34-2.6" />
    <path class="cls-2" d="M141.11,22.27l-2.78-.33c-.75,0-.88-.51-.77-1.16.32-2.15.67-4.31.92-6.46,0-.82.46-1,1.19-.88s2,.3,3,.51a3,3,0,0,1,2.59,2.89,5.94,5.94,0,0,1-.37,3c-.62,1.94-1.48,2.52-3.81,2.42m2-4.12v-1a1.71,1.71,0,0,0-1.78-1.59c-1.23,0-.85.86-1,1.44s-.23,1.66-.4,2.48,0,.9.73,1c1.74.34,2.45-.37,2.6-2.26Z" />
    <path class="cls-2" d="M176.35,25.63c-.18,2.15-.33,4.3-.52,6.46,0,.38.15,1.14-.61,1s-1.57-.24-1.46-1.17c.15-1.31-.6-1.78-1.57-2.15-.63-.3-1.12-.45-1.6.2s-1.4.4-2.15,0-.54-.48-.15-.84c1.9-1.73,3.79-3.45,5.66-5.2.65-.62,1.21,0,1.79.11s.58,1,.61,1.6M174,26.81c-.5.37-1.08.6-1.27,1.23,1.79.9,1-.69,1.27-1.23" />
    <path class="cls-2" d="M109.34,22.76c-.71,0-.86-.28-.94-.79-.26-1.47-.56-2.93-.76-4.31-.13-.91-.38-1.42-1.4-1.12s-1.22,0-1.33-.89.54-.81,1-.9c1.55-.26,3.13-.5,4.68-.78.62-.1,1.07-.15,1.2.67s-.15,1.06-.86,1.08c-1.27,0-1.42.67-1.18,1.74s.45,2.67.73,4-.28,1.36-1.19,1.31" />
    <path class="cls-2" d="M81.3,31.91c-.38,0-.49-.36-.64-.64-1-2-1.92-4-2.91-6-.34-.73-.13-1.12.56-1.42s1.1-.37,1.44.43c.91,2,1.88,4,2.8,5.94a1.22,1.22,0,0,1-.62,1.62,1.12,1.12,0,0,1-.63.1" />
    <path class="cls-2" d="M174.34,85.63V99.19c0,3.69-.26,7.37-.45,11,0,1,0,1.49,1.16,1.64a6.31,6.31,0,0,1,2.16.82,4.82,4.82,0,0,1,3.08,4.95,29.1,29.1,0,0,0,0,5.6,18.39,18.39,0,0,1-2.16,10,4.85,4.85,0,0,0-.47,2.15,18.2,18.2,0,0,1-3.56,12.09,2.17,2.17,0,0,0-.34,1.59v14.15a7.09,7.09,0,0,1-1,3.81,80.76,80.76,0,0,1-11.81,14.52c-5.9,6.24-12.29,12-18.47,17.92a7.94,7.94,0,0,1-5.11,1.83,90.16,90.16,0,0,1-21.53,0,10.33,10.33,0,0,1-6.36-2.72c-7.36-7-15.07-13.72-21.94-21.17a66.38,66.38,0,0,1-8.29-10.53,7.8,7.8,0,0,1-1.17-4.31c0-4.58,0-9.15.11-13.72a3.89,3.89,0,0,0-.8-2.45A14.11,14.11,0,0,1,74.61,138a20.91,20.91,0,0,0-2-8.33,9,9,0,0,1-.72-3.94c0-2.8.15-5.63,0-8.4a4.74,4.74,0,0,1,2.35-4.42,4.92,4.92,0,0,1,2.54-1.12c1.64,0,1.7-.88,1.66-2.15C78,97,77.64,84.44,77.77,71.84a3.36,3.36,0,0,1,1.06-2.58c4.76-4.52,9.06-9.52,14.49-13.35a52.72,52.72,0,0,1,22.33-9.39,55.38,55.38,0,0,1,52.66,17.61c1.79,1.9,3.66,3.73,5.54,5.54a2.17,2.17,0,0,1,.67,1.61V85.56Zm-48.13-16H101.85a2.18,2.18,0,0,0-1.62.64c-3,3.06-6,6.08-9.11,9.11a2.42,2.42,0,0,0-.79,2V98.59a4.56,4.56,0,0,1-.56,2.26c-2.37,4.46-4.7,8.92-7,13.38a2.58,2.58,0,0,0-.24,2.15,19.18,19.18,0,0,1,0,8.85,23.62,23.62,0,0,0-1.14,4.89v13.72a36.37,36.37,0,0,0,1.74,11.85c1.49,4.71,3.34,9.21,8.12,11.69A9.08,9.08,0,0,1,93.36,169c1,1,1.79.8,2.91,0,5.49-3.44,11-6.89,16.71-9.93a13.25,13.25,0,0,1,12.73-.66,1.71,1.71,0,0,0,1.7-.2,12.28,12.28,0,0,1,7.39-.92,19.86,19.86,0,0,1,6.46,2.41c5.22,3,10.4,6.05,15.46,9.28a2.15,2.15,0,0,0,2.87,0c1.87-1.53,3.88-2.91,5.84-4.31a4.31,4.31,0,0,0,1.14-1.37A44.31,44.31,0,0,0,170.7,144c.15-3.81,0-7.64,0-11.48a12.79,12.79,0,0,0-.6-4.3,18.32,18.32,0,0,1,0-11.66,3,3,0,0,0-.26-2.52c-2.41-4.3-4.74-8.76-7.13-13.16a4.24,4.24,0,0,1-.51-2.15V81.64a2.44,2.44,0,0,0-.61-1.91c-3.1-3-6.16-6.12-9.21-9.2a2.87,2.87,0,0,0-2.16-.86Zm44.25,39.08h.24c.24-4.3.6-8.61.67-12.92.15-7.64,0-15.31.15-23a2.51,2.51,0,0,0-.82-2c-1.81-1.74-3.59-3.51-5.34-5.34a50.3,50.3,0,0,0-16.6-12.1A56.32,56.32,0,0,0,121.58,49,49.78,49.78,0,0,0,89.75,63l-7.46,7.39a4,4,0,0,0-1.33,3c0,9.52.19,19,.45,28.56a52.39,52.39,0,0,0,.35,7.41c1.65-3.12,3.14-6,4.67-8.77a7.25,7.25,0,0,0,.82-3.48V79.88A2.34,2.34,0,0,1,88,78c3.53-3.47,7-7,10.49-10.49a2.47,2.47,0,0,1,1.85-.8h51.8a2.16,2.16,0,0,1,1.72.71q5.23,5.25,10.51,10.49a2.82,2.82,0,0,1,.88,2.15c0,6,.15,11.93,0,17.9a2.92,2.92,0,0,0,.33,1.48q2.4,4.64,4.88,9.22Zm-30.14,88.13.34.13,7.21-6.8a1.66,1.66,0,0,0,.39-1.43v-7.42c0-1.21.24-1.71,1.62-1.73s1.57.67,1.55,1.79v5.1l.51.41a27.45,27.45,0,0,1,3-3.44,5.73,5.73,0,0,0,2.32-5.58,18.25,18.25,0,0,1,0-3.62,2.13,2.13,0,0,0-1.14-2.15c-5.79-3.41-11.5-7-17.33-10.25a10.43,10.43,0,0,0-10.77-.54,3.37,3.37,0,0,1-3.23,0,10.34,10.34,0,0,0-10.43.47c-5.77,3.15-11.37,6.59-17,10.06a1.63,1.63,0,0,0-.88,1.57v7a3.46,3.46,0,0,0,1.31,3c1.4,1.16,2.63,2.49,4,3.74A9.32,9.32,0,0,0,104,189v-8c0-1,.15-1.57,1.36-1.49s1.87,0,1.83,1.53c-.11,3.3,0,6.62,0,9.93a1.79,1.79,0,0,0,.45,1.55c1.87,1.68,3.73,3.41,5.58,5.11a1.21,1.21,0,0,0,1.27.36c.47-.17.3-.71.3-1.1V184.13c0-1.24.41-1.59,1.62-1.59s1.55.41,1.55,1.62v12.92c0,1,.15,1.49,1.33,1.55,1.81,0,3.64,0,5.45.17,1.1,0,1.34-.36,1.31-1.38v-11.2c0-1.18.3-1.68,1.55-1.63s1.64.36,1.6,1.61v11.33c0,.86.19,1.16,1.1,1.06,1.81-.18,3.61-.11,5.44-.28,1.25-.11,1.64-.56,1.62-1.81V183.06c0-1.25.67-1.32,1.59-1.32s1.62,0,1.58,1.34c-.11,1.79,0,3.55,0,5.32Zm33.53-56a13.6,13.6,0,0,0,.79-4.89,9.2,9.2,0,0,1,.8-4.07,14.76,14.76,0,0,0,1.87-7.77c-.15-2.16,0-4.31,0-6.6a3.22,3.22,0,0,0-3.25-2.67.5.5,0,0,0-.47.41,18.74,18.74,0,0,0-.65,11.65,15.92,15.92,0,0,1,.88,5.47c-.12,2.78,0,5.6,0,8.43Zm-95.63-.24h.28v-2.45c.13-4.91-.3-9.83,1.27-14.67a11.88,11.88,0,0,0-.21-6.76c-.17-.69-.3-1.55-1.12-1.81a3.18,3.18,0,0,0-3.34,2.65v7.81a8.93,8.93,0,0,0,.76,3.95A16.73,16.73,0,0,1,77.79,138a13.66,13.66,0,0,0,.37,2.63ZM93.47,179.1v-5.28a1.85,1.85,0,0,0-.88-1.74c-2.31-1.66-4.59-3.39-6.89-5a5.65,5.65,0,0,1-1.81-2.16c-.71-1.53-1.51-3-2.16-4.52a7.75,7.75,0,0,0,.35,4.78,79.67,79.67,0,0,0,11.33,13.91Zm66.92-1.53a65.92,65.92,0,0,0,10-12.32,7.79,7.79,0,0,0,.32-3.77,8.12,8.12,0,0,0-.9,1.85,8.36,8.36,0,0,1-3.65,4.59c-1.72,1.12-3.31,2.41-5,3.62a1.49,1.49,0,0,0-.78,1.22c0,1.49,0,3,0,4.76Z" />
    <path class="cls-2" d="M124.27,209.42c0,2.56-.67,3.49-2.15,3.36a1.72,1.72,0,0,1-1.64-1.27,6.3,6.3,0,0,1,0-3.17,1.89,1.89,0,0,1,3.72,0,3.58,3.58,0,0,1,.07,1.08m-1.53.45a4,4,0,0,0,0-.49c0-.44.15-1.14-.43-1.17s-.5.76-.56,1.23a1.31,1.31,0,0,0,0,.28c0,.6-.22,1.62.58,1.62s.3-1,.41-1.47" />
    <path class="cls-2" d="M136.2,209.63c0-2,.65-2.88,2-2.88s2.15,1,2,2.91-.67,3.08-2.15,3.05-1.92-.92-1.9-3.08m2.52,0c-.19-.49.37-1.5-.54-1.5s-.45.94-.45,1.48-.28,1.6.52,1.6.36-.82.47-1.45Z" />
    <path class="cls-2" d="M114.66,211.31c.54.37,1.7-.3,1.66.8s-1.14.47-1.76.69a.94.94,0,0,1-.41,0c-.61-.15-1.47.39-1.77-.37s.43-1.35,1-1.89.9-.93,1.33-1.42a.57.57,0,0,0,.08-.79l-.08-.07c-.32-.33-.6-.15-.79.15a.81.81,0,0,1-1.09.38.76.76,0,0,1-.31-.25c-.37-.48,0-1,.47-1.32a2.43,2.43,0,0,1,2.84,0,1.94,1.94,0,0,1,0,2.67,11.85,11.85,0,0,1-1.12,1.42" />
    <path class="cls-2" d="M130.34,211.44h1c.46,0,.86,0,.86.63s-.32.71-.79.71h-2.16c-.38,0-.92.19-1.09-.37a1.25,1.25,0,0,1,.38-1.14c.54-.62,1.12-1.23,1.71-1.83s.64-.8.21-1.2-.65,0-.88.3a.85.85,0,0,1-1.19.06l-.06-.06c-.37-.37,0-.8.24-1.12a2.27,2.27,0,0,1,2.9-.39,1.72,1.72,0,0,1,.47,2.39l-.06.09a16.62,16.62,0,0,1-1.53,1.93" />
    <path class="cls-2" d="M119.58,127.39v18.88c0,1.25.3,1.84,1.63,1.66a5.12,5.12,0,0,1,5.1,1.94c.35.47.63.35,1,0,2.16-2.86,5.3-2.15,8.17-1.94,1.07,0,.49,1.29.58,2s-.13,1-.84,1h-2.93c-2,0-2.8.51-3.27,2.5-.26,1.07-.8,1.22-1.75,1.24-1.4,0-2.46,0-2.8-1.78a2.39,2.39,0,0,0-2.74-1.9h-3.23c-1.46.15-1.93-.49-1.76-1.85a5.23,5.23,0,0,0,0-.56V112c0-1.25-.35-1.68-1.64-1.68H92.8a1.85,1.85,0,0,0-1.87,1.12c-.39.73-.9,1.42-1.25,2.15s-.84,1-1.7.5c-1.66-1-1.68-1-.65-2.67a6.44,6.44,0,0,0,.72-1.21c.88-2.65,2.71-3.17,5.36-3.1,8.2.19,16.43,0,24.64,0,1.22,0,1.55.3,1.53,1.55Z" />
    <path class="cls-2" d="M148.76,106.54h12.92a1.8,1.8,0,0,1,1.87,1.1c.69,1.35,1.42,2.71,2.16,4s-.48,1.27-1,1.65-1.23.89-1.68-.15a2.6,2.6,0,0,1-.21-.36c-.78-2.78-2.65-3.32-5.39-3.23-7.13.21-14.26,0-21.4,0a1.79,1.79,0,0,1-1.88-1.7,1.75,1.75,0,0,1,.26-1c.32-.56.9-.38,1.38-.38Z" />
    <path class="cls-2" d="M149.72,120.93h-9.64c-1.17,0-1.45-.44-1.4-1.49s0-1.7,1.33-1.7h19.71c1.18,0,1.14.73,1.08,1.51s.32,1.72-1.15,1.68Z" />
    <path class="cls-2" d="M100.86,122.28H91.23c-1.14,0-1.48-.41-1.44-1.46s0-1.75,1.44-1.75h19.39c1.29,0,1.24.71,1.27,1.62s0,1.61-1.3,1.59h-9.73Z" />
    <path class="cls-2" d="M127.93,106.88v7.84c0,1-.13,1.55-1.33,1.49s-1.86,0-1.84-1.53V99a1.72,1.72,0,0,1,2.63-1.7c.67.28.5.86.5,1.33,0,2.69,0,5.52,0,8.29" />
    <path class="cls-2" d="M127,171.92H109.93c-1.23,0-1.47-.45-1.47-1.55s.17-1.61,1.44-1.61h34.46c1.27,0,1.3.62,1.3,1.55s0,1.64-1.4,1.61H127Z" />
    <path class="cls-2" d="M127.05,175.84h6c.94,0,1.4.3,1.29,1.3s.36,1.83-1.14,1.83c-4,0-8,0-12,.19-1.59,0-1.34-.95-1.44-1.94s.49-1.27,1.42-1.25h5.88Z" />
    <path class="cls-2" d="M126,243.4A118.79,118.79,0,1,1,172.45,234,118.81,118.81,0,0,1,126,243.4M126,7.75A116.43,116.43,0,1,0,242.46,124.18,116.43,116.43,0,0,0,126,7.75" />
    <path class="cls-2" d="M198.57,206.51c-.73,0-1.42,0-1.59-.49-.51-1.4-1.74-1.86-2.84-2.59a2.34,2.34,0,0,1-.38-3.3c.05-.06.1-.13.16-.19,1-1.08,2.16-2,3.15-3a.72.72,0,0,1,1.08,0l4.67,5.23c.21.26.45.58.17.86a11.53,11.53,0,0,1-4.2,3.36.35.35,0,0,1-.22.11m-2.34-4.44c.58,0,2.15-1.29,1.92-1.63s-.52-1-.93-.84a2.65,2.65,0,0,0-1.77,1.76c-.08.46.37.71.78.71Zm3.25,0c-.49.39-1.16.74-1.42,1.49,0,.39,0,.71.49.67a2.16,2.16,0,0,0,1.77-1.4c.15-.24-.28-.56-.84-.67Z" />
    <path class="cls-2" d="M52,195.92a4.57,4.57,0,0,1,3.29,1.85c1.75,1.66,1.75,1.66,0,3.4-1.16,1.23-2.34,2.41-3.48,3.64-.56.6-1,.65-1.62,0a14.48,14.48,0,0,0-1.49-1.44,3.41,3.41,0,0,1-1.16-4.31A5.28,5.28,0,0,1,52,195.92m-2.59,4.65a2.16,2.16,0,0,0,1.19,1.83c.65.34.84-.39,1.18-.69s1.19-1.21,1.79-1.77a.75.75,0,0,0,.26-1,.72.72,0,0,0-.26-.26c-.52-.43-1-1.1-1.81-.69a4.42,4.42,0,0,0-2.35,2.61" />
    <path class="cls-2" d="M111.38,224.58l2.77.32c.76,0,.88.52.78,1.17-.32,2.15-.67,4.3-.93,6.46,0,.81-.45,1-1.18.88s-2-.3-3-.52A3,3,0,0,1,107.2,230a6.1,6.1,0,0,1,.36-3c.63-1.94,1.49-2.52,3.82-2.41m-2,4.11v1a1.72,1.72,0,0,0,1.79,1.59c1.23,0,.84-.86,1-1.44s.24-1.66.41-2.48,0-.9-.73-1c-1.75-.35-2.46.36-2.61,2.26Z" />
    <path class="cls-2" d="M76.14,221.22c.17-2.15.32-4.31.52-6.46,0-.39-.15-1.14.6-1s1.57.24,1.47,1.16c-.16,1.32.6,1.79,1.57,2.16.62.3,1.12.45,1.59-.2s1.4-.41,2.16,0,.53.48.14.84c-1.89,1.72-3.79,3.45-5.66,5.19-.64.63-1.2,0-1.79-.11s-.58-1-.6-1.59M78.45,220c.49-.37,1.07-.61,1.27-1.23-1.79-.91-1,.69-1.27,1.23" />
    <path class="cls-2" d="M143.14,224.08c.71,0,.86.28,1,.8.26,1.47.56,2.93.75,4.31.13.9.39,1.42,1.4,1.12s1.23,0,1.34.88-.54.82-1.06.91c-1.55.26-3.12.49-4.67.77-.63.11-1.08.15-1.21-.67s.15-1,.86-1.07c1.28,0,1.43-.67,1.19-1.75s-.45-2.67-.73-4,.28-1.36,1.18-1.32" />
    <path class="cls-2" d="M171.18,214.93c.39,0,.5.37.65.65,1,2,1.91,4,2.91,6,.34.73.12,1.12-.56,1.42s-1.1.37-1.45-.43c-.9-2-1.87-4-2.8-5.95a1.23,1.23,0,0,1,.62-1.62,1.25,1.25,0,0,1,.63-.1" />
</svg>