<svg xmlns="http://www.w3.org/2000/svg" viewBox="0 0 21.09 21.09">
    <defs>
        <style>
            .cls-1{fill:none;stroke:#64C5BA;stroke-miterlimit:10;}
            .cls-2{fill:white}
        </style>
    </defs>
    <g id="Layer_2" data-name="Layer 2">
        <g id="Layer_1-2" data-name="Layer 1">
            <polygon class="cls-1" points="18.89 20.59 0.5 20.59 0.5 2.3 2.27 0.5 20.59 0.5 20.59 18.66 18.89 20.59" />
            <path class="cls-2" d="M11.14,14.31A.4.4,0,0,1,11,13.8l2.44-4.55A.18.18,0,0,0,13.21,9L8.4,12.1a.18.18,0,0,1-.16,0L3.36,9.77a.17.17,0,0,1,0-.32l13.56-4.7a.4.4,0,0,1,.53.39V16.61a.5.5,0,0,1-.72.45Z" />
        </g>
    </g>
</svg>