<svg xmlns="http://www.w3.org/2000/svg" viewBox="0 0 21.09 21.09">
    <defs>
        <style>
            .cls-1{fill:none;stroke:#64C5BA;stroke-miterlimit:10;}
            .cls-2{stroke-width:0.75px;fill:white}
        </style>
    </defs>
    <g id="Layer_2" data-name="Layer 2">
        <g id="Layer_1-2" data-name="Layer 1">
            <polygon class="cls-1" points="18.89 20.59 0.5 20.59 0.5 2.3 2.27 0.5 20.59 0.5 20.59 18.66 18.89 20.59" />
            <path class="cls-2" d="M17,8.05C15.48,20.19,5.16,16.39,3.7,15.79a0,0,0,0,1,0-.08A6.39,6.39,0,0,0,8,14.39a0,0,0,0,0,0-.07c-3.91-1.78-3.85-4.56-3.82-5,0,0,0,0,0,0l1.25.36a0,0,0,0,0,0-.07c-1.71-2-1.16-3.66-1-4a0,0,0,0,1,.07,0c1.25,2.86,5.78,3.2,6.22,3.23,0,0,0,0,0,0,.85-5.42,5-2.95,5.27-2.77a0,0,0,0,0,0,0l1.76-.85s.07,0,0,.06L16.79,6.82a0,0,0,0,0,0,.06l1.63-.33a0,0,0,0,1,0,.07L17,8A0,0,0,0,0,17,8.05Z" />
        </g>
    </g>
</svg>