<svg id="Layer_1" data-name="Layer 1" xmlns="http://www.w3.org/2000/svg" viewBox="0 0 339.85 350"><defs><style>.cls-1{fill:#fff;}</style></defs><path class="cls-1" d="M458.41,551.11c-6.49-2.51-12.08-6.2-13.25-13.57a72.89,72.89,0,0,1,0-23.9c1.4-8.06,8.47-13.39,16.69-13.54,5.46-.1,10.93-.11,16.39,0a17.43,17.43,0,0,1,17.3,17.48c.09,5,0,9.95,0,14.92,0,9-4.27,14.9-12.65,17.91a6.94,6.94,0,0,0-1.2.7Z" transform="translate(-300.15 -201.11)"/><path class="cls-1" d="M464.24,414.23c0,11.18,0,22.35,0,33.53,0,5-1.68,6-6,3.67q-27.66-15-55.31-30.07a7.45,7.45,0,0,1-4.37-7.27c.07-22.11,0-44.22,0-66.32,0-4.83,1.77-5.82,6.14-3.45,18.76,10.18,37.49,20.42,56.28,30.56a5.41,5.41,0,0,1,3.24,5.47C464.17,391.64,464.24,402.94,464.24,414.23Z" transform="translate(-300.15 -201.11)"/><path class="cls-1" d="M475.91,413.9c0-11.17.07-22.35-.05-33.52a5.36,5.36,0,0,1,3.21-5.45c18.79-10.14,37.52-20.4,56.27-30.59,4.48-2.44,6.17-1.4,6.18,3.76,0,21.86,0,43.73.05,65.59a8,8,0,0,1-4.67,7.85c-18.37,9.89-36.66,19.92-55,29.87-4.3,2.34-6,1.31-6-3.62Q475.89,430.86,475.91,413.9Z" transform="translate(-300.15 -201.11)"/><path class="cls-1" d="M532.43,330.88c-.16,1.65-1.2,2.41-2.42,3.08q-28.78,15.65-57.54,31.34a4.58,4.58,0,0,1-4.8,0q-28.76-15.7-57.52-31.36c-3.36-1.84-3.33-4.3.07-6.16Q438.5,312.31,466.8,297a6.13,6.13,0,0,1,6.24-.18l57.23,31.16A3.43,3.43,0,0,1,532.43,330.88Z" transform="translate(-300.15 -201.11)"/><path class="cls-1" d="M444.58,226.61c0-2.79-.08-5.58,0-8.37a17.42,17.42,0,0,1,17-17c5.7-.15,11.41-.16,17.11,0A17.33,17.33,0,0,1,495.54,218c.17,5.82.19,11.66,0,17.48a17.32,17.32,0,0,1-16.62,16.64c-5.94.2-11.9.22-17.83,0a17.36,17.36,0,0,1-16.48-16.78C444.49,232.44,444.58,229.53,444.58,226.61Z" transform="translate(-300.15 -201.11)"/><path class="cls-1" d="M325.77,276.28c2.79,0,5.58-.07,8.37,0a17.42,17.42,0,0,1,17.06,17c.16,5.7.16,11.42,0,17.12a17.34,17.34,0,0,1-16.77,16.86c-5.82.19-11.66.2-17.48,0a17.34,17.34,0,0,1-16.69-16.94c-.15-5.71-.16-11.42,0-17.12A17.43,17.43,0,0,1,317,276.3C319.94,276.19,322.86,276.29,325.77,276.28Z" transform="translate(-300.15 -201.11)"/><path class="cls-1" d="M613.37,327.29c-3.29-.25-7.31.47-11.27-.58A17.36,17.36,0,0,1,589,310.34c-.14-5.7-.15-11.41,0-17.11A17.37,17.37,0,0,1,606,276.3q8.37-.19,16.75,0a17.4,17.4,0,0,1,17.12,17.28q.17,8.19,0,16.39a17.47,17.47,0,0,1-17.48,17.31C619.64,327.34,616.85,327.29,613.37,327.29Z" transform="translate(-300.15 -201.11)"/><path class="cls-1" d="M325.79,425c2.79,0,5.59-.07,8.38,0a17.43,17.43,0,0,1,17,17c.15,5.7.16,11.41,0,17.11A17.34,17.34,0,0,1,334.4,476c-5.82.18-11.65.2-17.47,0a17.35,17.35,0,0,1-16.67-17c-.15-5.7-.16-11.41,0-17.11A17.41,17.41,0,0,1,317.05,425C320,424.91,322.88,425,325.79,425Z" transform="translate(-300.15 -201.11)"/><path class="cls-1" d="M588.91,450.5c0-2.79-.06-5.59,0-8.38A17.42,17.42,0,0,1,605.86,425q8.55-.24,17.12,0a17.38,17.38,0,0,1,16.92,17.1q.2,8.37,0,16.74A17.42,17.42,0,0,1,622.61,476c-5.46.11-10.93.11-16.38,0a17.46,17.46,0,0,1-17.31-17.48C588.87,455.84,588.91,453.17,588.91,450.5Z" transform="translate(-300.15 -201.11)"/><path class="cls-1" d="M573.84,286.51a6.68,6.68,0,0,1-3.45-1.07q-30.79-16-61.58-32.06c-3.78-2-5-5.22-3.34-8.35s4.87-3.93,8.78-1.9Q544.91,259,575.55,275c3,1.58,4.82,3.77,3.89,7.3A5.44,5.44,0,0,1,573.84,286.51Z" transform="translate(-300.15 -201.11)"/><path class="cls-1" d="M435.35,503.42c-.09,5.74-4.51,8.23-8.94,6-7.47-3.76-14.85-7.7-22.26-11.55q-19.68-10.25-39.36-20.45c-3-1.54-4.92-3.57-4.15-7.18.88-4.08,4.87-5.56,9.24-3.31q17.3,8.91,34.52,17.92,13.39,7,26.78,13.91C433.59,500,435.41,501.6,435.35,503.42Z" transform="translate(-300.15 -201.11)"/><path class="cls-1" d="M510.37,510.31c-2.68-.2-4.61-1.53-5.29-4.17-.81-3.08.27-5.43,3.18-6.93,7-3.62,14-7.29,21-10.93q20.47-10.66,41-21.3c3.73-1.93,6.5-1.49,8.43,1.17,2.23,3.08,1.11,7-2.83,9-11.79,6.21-23.63,12.34-35.46,18.48q-12.73,6.63-25.49,13.22C513.42,509.59,512.07,510.46,510.37,510.31Z" transform="translate(-300.15 -201.11)"/><path class="cls-1" d="M366.05,286.5a5.44,5.44,0,0,1-5.32-4.14c-.75-2.75,0-5.14,2.53-6.59,3.15-1.81,6.42-3.42,9.64-5.09l51.6-26.84a28.73,28.73,0,0,1,2.61-1.29c3.08-1.26,6-.31,7.52,2.38a5.84,5.84,0,0,1-2.23,7.89c-1.64,1-3.41,1.85-5.13,2.74Q399,270.23,370.82,284.9C369.33,285.67,367.89,286.67,366.05,286.5Z" transform="translate(-300.15 -201.11)"/><path class="cls-1" d="M331.56,376.13c0,9.94,0,19.89,0,29.83,0,4.66-2.09,7.28-5.72,7.33s-5.93-2.57-5.93-7.12q0-30.19,0-60.4c0-5.37,4.44-8.39,8.66-6,2.4,1.36,3,3.57,3,6.17C331.54,356,331.56,366.06,331.56,376.13Z" transform="translate(-300.15 -201.11)"/><path class="cls-1" d="M620.25,376.13q0,14.75,0,29.48c0,5-2,7.63-5.73,7.68s-5.92-2.61-5.93-7.49q0-30,0-60c0-2.61.69-4.78,3.13-6.08a5.52,5.52,0,0,1,6.17.47c2,1.4,2.4,3.48,2.39,5.78C620.23,356,620.25,366.06,620.25,376.13Z" transform="translate(-300.15 -201.11)"/><path class="cls-1" d="M366.83,317a13.08,13.08,0,0,1,2.24.76c4.19,2.14,8.4,4.26,12.51,6.56,3.19,1.79,4,4.65,2.51,7.66s-4.55,4.19-7.94,2.53c-4.33-2.12-8.62-4.36-12.82-6.72-2.68-1.5-3.45-4.05-2.52-6.88C361.64,318.43,363.56,317.05,366.83,317Z" transform="translate(-300.15 -201.11)"/><path class="cls-1" d="M366.05,435.25a5.37,5.37,0,0,1-5.19-3.76c-.87-2.46-.59-5.09,1.77-6.48,4.78-2.8,9.7-5.42,14.73-7.73,2.63-1.21,5,.1,6.48,2.53s1.63,5.23-.72,6.91a78.33,78.33,0,0,1-15.93,8.44A4.06,4.06,0,0,1,366.05,435.25Z" transform="translate(-300.15 -201.11)"/><path class="cls-1" d="M579.66,322.74a5.52,5.52,0,0,1-3.17,5.29c-4.16,2.21-8.3,4.47-12.53,6.53-3.37,1.64-6.36.56-7.93-2.59s-.66-5.83,2.56-7.63c4.22-2.35,8.48-4.65,12.85-6.69A5.63,5.63,0,0,1,579.66,322.74Z" transform="translate(-300.15 -201.11)"/><path class="cls-1" d="M579.66,429.33a5.61,5.61,0,0,1-8,5.38c-4.61-2.11-9.09-4.52-13.49-7-2.88-1.64-3.53-4.68-2-7.53s4.31-4.06,7.32-2.63c4.58,2.17,9.05,4.58,13.5,7A5.18,5.18,0,0,1,579.66,429.33Z" transform="translate(-300.15 -201.11)"/><path class="cls-1" d="M464.29,272.33a27.25,27.25,0,0,1,0-3.26,5.68,5.68,0,0,1,6-5.15,5.51,5.51,0,0,1,5.54,5.21,30.75,30.75,0,0,1,.06,5.43c-.16,3.76-2.41,6-5.83,6s-5.61-2.3-5.79-6.08c0-.73,0-1.45,0-2.18Z" transform="translate(-300.15 -201.11)"/><path class="cls-1" d="M464.34,480a19.86,19.86,0,0,1,0-3.62,5.31,5.31,0,0,1,5.59-4.68c3.17,0,5.34,1.6,5.81,4.82a30.35,30.35,0,0,1,.1,5.8c-.16,3.68-2.56,6.08-5.88,6s-5.56-2.45-5.74-6.18c0-.72,0-1.45,0-2.17Z" transform="translate(-300.15 -201.11)"/></svg>