<svg id="Layer_1" data-name="Layer 1" xmlns="http://www.w3.org/2000/svg" viewBox="0 0 360.7 350"><defs><style>.cls-1{fill:#fff;}</style></defs><path class="cls-1" d="M326.1,841.48c26.93,0,53.87.16,80.8-.12,6.84-.08,12,1.79,16.87,6.77q34.22,34.8,69.06,69c5.15,5.06,7.73,10.3,7.37,17.68-.55,11.2-.46,22.45,0,33.66.33,8.89,0,17.14-8.24,22.84-3.28,2.25-2.35,5.66-2.24,9.13.34,10.07-6.39,17.25-15.49,16.52-8.49-.68-13.83-5.35-14.33-14.29-.52-9.46,5.89-16.11,16.12-15.77,10.53.34,14.78-4.92,15.31-14.58,0-.38,0-.75,0-1.12,1-41.47,1-41.45-28.32-70.57-14.32-14.24-28.78-28.36-42.75-42.94-4.83-5.05-9.88-6.85-16.75-6.82q-79.12.33-158.24,0c-6.1,0-10.6,1.64-14.77,6.09-7.92,8.47-16.32,16.47-24.49,24.7-6.91,7-14.73,12.66-13.94,24.88.52,8-7.16,12.17-15.07,11.51-8.42-.71-13.71-5.8-13.78-14.77-.06-8.81,4.76-15.38,13.23-14.87,8.92.54,13.66-3.76,18.92-9.18,9.9-10.2,20.39-19.84,30-30.27,5.33-5.79,11.17-7.69,18.81-7.6C271.48,841.69,298.79,841.49,326.1,841.48Z" transform="translate(-139.55 -841.35)"/><path class="cls-1" d="M397.27,1136.45c.73,11.75-2.44,22.65,8,31.82,6,5.23,3.8,14.36-3.13,19.62-6.3,4.77-13.58,4.73-19.48-.84-6.24-5.88-7.77-14.35-1.46-19.88,7.45-6.52,7.35-13.78,7.15-21.94-.14-5.6.63-11.29-.15-16.79-1.9-13.44,3.44-22.87,12.92-32.31,9.2-9.16,18.33-14.75,31.33-12.48,18.12,3.17,24.68-12.38,34.91-21.75,3.38-3.1-.77-4.81-2.8-6.84-7.71-7.7-8.35-16-2-22.65a15.17,15.17,0,0,1,22,0c5.93,6.29,3.84,14.45-1.82,23-6.77,10.21-14.64,19.11-22.9,28-6.61,7.11-13.66,11.72-23.44,9.57-17.31-3.8-27.21,7.09-36.34,18.49C394,1119,398.84,1128.83,397.27,1136.45Z" transform="translate(-139.55 -841.35)"/><path class="cls-1" d="M232.35,1034c6,0,12-.06,18,0,6.69.09,12.44,0,17.78-6.24,5.86-6.82,14.25-5.91,21,.3,5.87,5.41,5.75,15.73-.24,21.15-6.84,6.19-15.07,6.8-20.92-.11-5-5.92-10.47-6.14-16.86-6.12-15,.06-29.93-.21-44.88.12-6.46.14-11.48-1.55-15.76-6.55-4.12-4.81-8.45-9.68-13.48-13.45-21-15.71-31.94-35.47-26.68-62.35,1-4.92-1.67-8-5.27-11.37-7.1-6.59-7.09-15.75-.93-21.9,5.51-5.51,15.79-5.6,21.39-.18a14.64,14.64,0,0,1-.56,21.85c-5,4.3-5,9.11-5.84,14.7-3.16,20.45,4.63,35.06,19.92,48.65C202.14,1033.07,201.35,1034,232.35,1034Z" transform="translate(-139.55 -841.35)"/><path class="cls-1" d="M447.27,934.46c-9.18-.83-15.48-5.58-14.73-14.87.59-7.18-3.28-10.61-6.86-15.4-14.61-19.56-33.05-28.34-57.82-24.54-11,1.69-22.41.38-33.63.24-7.13-.1-13.38,0-18.89,6.56-5.14,6.17-16.17,4.68-20.91-1.59-5.12-6.78-5.27-14.14.9-20.3s14.5-6.88,20-.69c5.7,6.4,11.83,6.53,19,6.5,20.2-.09,40.4.22,60.6-.16,6.9-.13,12.1,1.61,16.7,6.9,5.39,6.19,11.46,11.8,17.34,17.55,5.44,5.32,9.8,10.87,19.62,10,8.58-.76,14.09,6.36,13.39,15.81C461.29,929.32,455.85,933.64,447.27,934.46Z" transform="translate(-139.55 -841.35)"/><path class="cls-1" d="M252.88,1010.41a14,14,0,0,0-2.24,0c-19.72,3.3-35.58-2.66-47.45-19.12-3.25-4.5-7.1-7.36-14.1-6.29-8.63,1.32-15.93-6.93-15.72-15.28a14.81,14.81,0,0,1,15.3-14.61c9.34.26,14.36,5.31,14.93,14.67.87,14.34,18.52,31,32.93,31.14,6.72.06,13.53-.5,20.15.36,16.2,2.09,28.87-2.87,38.74-16.16,3.21-4.33,5.81-7.73,5.56-13.65-.39-9.52,6.42-15.88,15.1-15.75a15.58,15.58,0,0,1,15,15.16c0,8.57-6.45,15.18-16,14.86-5.44-.19-9.52,1-12.62,5.23C290,1007.82,273.8,1015.14,252.88,1010.41Z" transform="translate(-139.55 -841.35)"/><path class="cls-1" d="M386.13,938.05c.52-8.33.35-14.85-6.41-20.84-6.19-5.48-5.19-13.79.64-20.12a14.66,14.66,0,0,1,21.17-.07c6,6.26,7.12,14.77.91,20-7.47,6.32-7.35,13.51-6.55,21.1,1.21,11.47-2.7,19.79-11.33,27.37-10.92,9.6-20.77,20.42-31.06,30.73-6,6-11.85,11.17-11.21,21.55.53,8.59-7.07,13.07-15.48,12.37s-13.76-6.21-13.74-14.92c0-8.53,4.83-15.33,13.46-14.69,9,.66,13.66-3.85,18.92-9.26,10.41-10.72,20.71-21.6,31.76-31.64C384.15,953.34,388.23,946.7,386.13,938.05Z" transform="translate(-139.55 -841.35)"/><path class="cls-1" d="M316.13,930.39c-11.37,2.76-20.18-1.82-27.7-11-5.39-6.62-12-12.21-18.08-18.3-5.46-5.47-10.32-10.44-19.72-9.86-8.38.53-13.2-6.16-13-15s5.59-14,13.93-14.59c8.51-.62,16,4.43,15.38,12.65-.85,11,5.77,15.94,11.81,22.12,3.66,3.74,8.12,6.91,10.94,11.19,9.7,14.73,24.05,15.29,39.35,14.31,4.34-.28,6.46-2.66,9.14-5.33,7.25-7.22,16.5-7.22,22.68-.44a15.16,15.16,0,0,1-.77,21.21A14.6,14.6,0,0,1,338.29,936C332,927.84,323.92,932.13,316.13,930.39Z" transform="translate(-139.55 -841.35)"/><path class="cls-1" d="M373,996.29c4.29,1.88,6.78-1.13,9.44-3.79,7.92-7.94,16.44-15.36,23.66-23.89,9.47-11.18,19.91-18.73,35.44-15.77,4.18.8,6.57-1.86,9.3-4.76,7.19-7.65,16.11-8,22.62-1.56,5.58,5.54,5.67,15.65.17,21.32-6.32,6.52-15.34,6.07-22.72-1.13s-21.71-7.55-28.91-.55c-11.25,10.94-22.13,22.25-33.34,33.22-2.93,2.87-3.69,5.8-3.64,9.88.13,10.69-5.79,17.12-14.81,17.14a15.34,15.34,0,0,1-15.3-14.76C354.69,1002.24,361.69,996.25,373,996.29Z" transform="translate(-139.55 -841.35)"/><path class="cls-1" d="M457.78,1024.22c-.07,6.61-3,11.32-9.21,14-6.33,2.76-11.66.84-16.46-3.43-10.05-9-16.66-8.82-26.39.74-4.8,4.71-9.9,9.18-14.2,14.32-5,6-11,8.35-18.69,7.57-6-.61-11,.17-15.77,5.64-5.93,6.83-14.15,6.15-21,.18-5.95-5.21-6-15.78-.21-21.16,6.74-6.22,14.22-6.21,21.23-.43,11,9.12,20.36,8.88,30.67-1.28,4.52-4.46,9.29-8.72,13.38-13.55,4.48-5.3,9.68-7.81,16.61-7,5.87.7,10.52-.73,14.48-6s10.29-6,16.34-3.59S458,1017.37,457.78,1024.22Z" transform="translate(-139.55 -841.35)"/><path class="cls-1" d="M376.06,1146.43c-.77,5.92-4,11-11.06,12.77-6.8,1.7-12.7.06-16.67-6-4.22-6.47-3.38-12.87,1.42-18.64,10.21-12.27,9.81-24.13-1.5-35.61-6.82-6.92-13.72-13.77-20.54-20.69-5.23-5.3-9.89-10.07-18.95-9.35-8.67.69-13.2-6-13.24-14.73,0-8.49,6.63-15.29,15-14.76s15.12,4.92,14.44,13.83c-.61,7.94,2.87,12.45,7.89,17.17,6,5.63,11.19,12.19,17.58,17.29,11.34,9,17.55,19.75,15,34.65-.76,4.32.65,7.8,4.68,10.47C374.31,1135.66,376.2,1140.18,376.06,1146.43Z" transform="translate(-139.55 -841.35)"/><path class="cls-1" d="M270.6,973c-.25,5.2-3.75,10.32-10.41,12.39s-12.72.35-16.89-5.49c-4.44-6.21-4.84-13.67.86-18.34,8.57-7,10.12-16.88,5.34-23.52-6.09-8.46-11.52-20.38-25.88-19.72-9.54.45-15.6-6.22-15.42-15.25.16-8.35,6.73-15.21,14.91-14.85,9.26.41,15.29,5.93,14.58,14.88-.57,7.18,2.29,11.19,6.86,15.18,9.73,8.48,18.68,17.23,15.44,32.06-.78,3.58,1.3,6.17,4.37,8.31C268.55,961.57,270.75,965.83,270.6,973Z" transform="translate(-139.55 -841.35)"/></svg>