<svg id="Layer_1" data-name="Layer 1" xmlns="http://www.w3.org/2000/svg" viewBox="0 0 1200 450"><defs><style>.cls-1{fill:#132739;}.cls-2{fill:none;stroke:#fff;stroke-miterlimit:10;}.cls-3{fill:#fff;}</style></defs><rect class="cls-1" width="1200" height="450"/><polygon class="cls-2" points="617.342 314.816 588.383 314.816 588.383 285.996 591.165 283.166 620.033 283.166 620.033 311.775 617.342 314.816"/><path class="cls-3" d="M611.77953,292.00893l-4.67813-1.45306-.53161,1.06321c-.03885-.00431-.07722-.00807-.11589-.01216a.349.349,0,0,0-.10867-.03022c-.44437-.04228-1.24464-.1003-2.25007-.09885a23.63824,23.63824,0,0,0-2.46232.10806.35337.35337,0,0,1-.24084-.18638l-.28721-.57442a.35438.35438,0,0,0-.42207-.18l-4.27644,1.3283a.35206.35206,0,0,0-.18515.13508,19.6361,19.6361,0,0,0-3.16448,12.26051.35333.35333,0,0,0,.09145.20844,11.5392,11.5392,0,0,0,5.17323,2.767.35564.35564,0,0,0,.41308-.16411l.73757-1.303a.35436.35436,0,0,0-.15525-.49414l-.89186-.42735a.35435.35435,0,1,1,.31815-.63314,12.63961,12.63961,0,0,0,5.26762,1.22443l.02515-.12871.02516.12871a11.79963,11.79963,0,0,0,5.48584-1.34672l.567.5316-1.70114.81513,1.06322,1.87833c4.182-1.205,5.52869-2.94155,5.52869-2.94155A19.55844,19.55844,0,0,0,611.77953,292.00893Zm-11.10794,10.13594a2.2786,2.2786,0,1,1,2.08607-2.27046A2.18412,2.18412,0,0,1,600.67159,302.14487Zm6.87544,0a2.27861,2.27861,0,1,1,2.08605-2.27046A2.18413,2.18413,0,0,1,607.547,302.14487Z" transform="translate(0.17187)"/></svg>