<?xml version="1.0" encoding="UTF-8" standalone="no"?>
<svg
   viewBox="0 0 604.66 623.83"
   version="1.1"
   id="svg24"
   sodipodi:docname="14c35cede7e474778d8306b9e17a2f77.svg"
   xmlns:inkscape="http://www.inkscape.org/namespaces/inkscape"
   xmlns:sodipodi="http://sodipodi.sourceforge.net/DTD/sodipodi-0.dtd"
   xmlns="http://www.w3.org/2000/svg"
   xmlns:svg="http://www.w3.org/2000/svg">
  <sodipodi:namedview
     id="namedview26"
     pagecolor="#ffffff"
     bordercolor="#666666"
     borderopacity="1.0"
     inkscape:pageshadow="2"
     inkscape:pageopacity="0.0"
     inkscape:pagecheckerboard="0" />
  <defs
     id="defs4">
    <style
       id="style2">.cls-1{fill:#64c5ba;isolation:isolate;opacity:0.16;}.cls-2{fill:#fff;}.cls-3{fill:#d44d35;}.cls-4{fill:#d3d1d0;}</style>
  </defs>
  <g
     id="Layer_2"
     data-name="Layer 2">
    <g
       id="Layer_1-2"
       data-name="Layer 1">
      <path
         class="cls-1"
         d="M0,44.18V611.34a5.15,5.15,0,0,0,8.86,3.57l5.68-5.9a5.15,5.15,0,0,1,7.28-.14l.07.07L34,621a5.16,5.16,0,0,0,7.1.18l14-12.63a5.15,5.15,0,0,1,7.15.24l11.6,12a5.16,5.16,0,0,0,7.27.12l12.69-12.24a5.16,5.16,0,0,1,7.15,0L113.63,621a5.15,5.15,0,0,0,7.21-.07L132.73,609a5.15,5.15,0,0,1,7.28,0l.14.14,10.9,11.77a5.14,5.14,0,0,0,7,.49l15.7-12.84a5.14,5.14,0,0,1,7.24.72l.08.1,8.34,10.72a5.14,5.14,0,0,0,7.22.9,3.11,3.11,0,0,0,.28-.23l14.55-13.1a3.49,3.49,0,0,1,4.93.26l.12.13,11.71,15.19v0a1.63,1.63,0,0,0,2.29.15,1.58,1.58,0,0,0,.22-.23l.39-.49c3.57-4.32,13.45-14.92,13.45-14.92a3.49,3.49,0,0,1,4.94-.09l0,0L262.86,621a5.16,5.16,0,0,0,7.1.18l14-12.63a5.15,5.15,0,0,1,7.15.24l11.6,12a5.16,5.16,0,0,0,7.27.12l12.69-12.24a5.16,5.16,0,0,1,7.15,0L342.53,621a5.15,5.15,0,0,0,7.21-.07L361.63,609a5.15,5.15,0,0,1,7.28,0l.14.14L380,620.92a5.14,5.14,0,0,0,7,.49l15.7-12.84a5.14,5.14,0,0,1,7.24.72l.08.1,8.34,10.72a5.14,5.14,0,0,0,7.22.9,3.11,3.11,0,0,0,.28-.23l13.26-11.94a5.14,5.14,0,0,1,7.27.39,1.46,1.46,0,0,1,.16.19l3.13,3.84A5.15,5.15,0,0,0,458.8,610V5.15A5.14,5.14,0,0,0,453.65,0H45a1.68,1.68,0,0,0-1.16.47L.5,43A1.65,1.65,0,0,0,0,44.18Z"
         id="path6" />
      <path
         class="cls-2"
         d="M36.89,427.07H214.42c2.4,0,4.82.07,7.22,0H222c3.22,0,3.23-5,0-5H44.42c-2.4,0-4.82-.06-7.22,0h-.31c-3.22,0-3.22,5,0,5Z"
         id="path8" />
      <path
         class="cls-2"
         d="M36.89,472.7H214.42c2.4,0,4.82.06,7.22,0H222c3.22,0,3.23-5,0-5H44.42c-2.4,0-4.82-.06-7.22,0h-.31c-3.22,0-3.22,5,0,5Z"
         id="path10" />
      <path
         class="cls-2"
         d="M36.89,518.32H214.42c2.4,0,4.82.06,7.22,0H222c3.22,0,3.23-5,0-5H44.42c-2.4,0-4.82-.06-7.22,0h-.31c-3.22,0-3.22,5,0,5Z"
         id="path12" />
      <path
         class="cls-2"
         d="M36.89,564H214.42c2.4,0,4.82.06,7.22,0H222c3.22,0,3.23-5,0-5H44.42c-2.4,0-4.82-.07-7.22,0h-.31c-3.22,0-3.22,5,0,5Z"
         id="path14" />
      <rect
         class="cls-3"
         x="312.94"
         width="291.72"
         height="291.72"
         id="rect16" />
      <path
         class="cls-4"
         d="M388.55,105.38l11.16,11.15,26.79,26.8,32.41,32.41,28,28c4.55,4.55,9.06,9.12,13.64,13.63l.19.2a20.61,20.61,0,0,0,14.14,5.85,22.2,22.2,0,0,0,14.14-5.85c3.5-3.81,6.1-8.82,5.86-14.15a20.84,20.84,0,0,0-5.86-14.14L517.9,178.16l-26.79-26.8L458.69,119l-28-28c-4.54-4.55-9.06-9.12-13.63-13.63l-.2-.2a20.59,20.59,0,0,0-14.14-5.85,22.2,22.2,0,0,0-14.14,5.85c-3.5,3.81-6.1,8.82-5.86,14.15A20.84,20.84,0,0,0,388.55,105.38Z"
         id="path18" />
      <path
         class="cls-4"
         d="M500.77,74.12,489.61,85.28l-26.79,26.79L430.4,144.49l-28,28c-4.54,4.54-9.12,9-13.63,13.63l-.19.19a20.66,20.66,0,0,0-5.86,14.14,22.31,22.31,0,0,0,5.86,14.15c3.81,3.49,8.82,6.09,14.14,5.85a20.86,20.86,0,0,0,14.14-5.85L428,203.47l26.79-26.79,32.42-32.42,28-28c4.54-4.54,9.12-9,13.63-13.63.06-.07.13-.13.19-.19a20.64,20.64,0,0,0,5.86-14.15,22.23,22.23,0,0,0-5.86-14.14c-3.81-3.5-8.81-6.09-14.14-5.86A20.89,20.89,0,0,0,500.77,74.12Z"
         id="path20" />
    </g>
  </g>
</svg>
