<svg xmlns="http://www.w3.org/2000/svg" viewBox="0 0 22.35 25.5"><defs><style>.cls-1{fill:#fff;}</style></defs><g id="Layer_2" data-name="Layer 2"><g id="Layer_1-2" data-name="Layer 1"><path class="cls-1" d="M17,9.72a7.33,7.33,0,0,1-5.87,7.11A7.24,7.24,0,0,1,3.86,5.45,7.25,7.25,0,0,1,17,9.72a1.25,1.25,0,0,0,2.5,0,9.86,9.86,0,0,0-6.16-9A9.77,9.77,0,0,0,2.6,3.08a9.73,9.73,0,0,0,7.69,16.36,9.86,9.86,0,0,0,9.16-9.72A1.25,1.25,0,0,0,17,9.72Z"/><path class="cls-1" d="M22,23.37l-5.38-6.32-.78-.91a1.25,1.25,0,0,0-1.76,0,1.28,1.28,0,0,0,0,1.77l5.37,6.31.78.92a1.27,1.27,0,0,0,1.77,0,1.29,1.29,0,0,0,0-1.77Z"/></g></g></svg>