<svg xmlns="http://www.w3.org/2000/svg" viewBox="0 0 383.06 248.8"><defs><style>.cls-1{fill:none;stroke:#fff;stroke-miterlimit:10;}</style></defs><g id="Layer_2" data-name="Layer 2"><g id="Layer_1-2" data-name="Layer 1"><path class="cls-1" d="M297.23,158.13c1.95-1.82,3.89-3.72,5.85-5.56,2.56-2.42,2.57-2.42-.36-4.37-1.58-1.06-3.15-2.14-4.76-3.15-1.12-.71-1-1.15.16-1.66,2.12-.91,4.21-2,6.31-2.95a19.9,19.9,0,0,1-1.75-10l-.14-.12a.7.7,0,0,1-.58-.73l-.25-.57-.26-.44a11.51,11.51,0,0,0-8.84-7.41l-.1.65v3.4c-.74,5.18-1.42,10.36-2.22,15.54-.74,4.88-1.59,9.74-2.39,14.62a10.52,10.52,0,0,0,.6,3h8.87Z"/><path class="cls-1" d="M340,162.87a6.11,6.11,0,0,1-1.35,2.34c-3,3.51-5.88,7.21-8.68,11-.91,1.22-1.48,1.18-2.36.07q-4.8-6-9.68-12a3.44,3.44,0,0,1-.61-1.13c-.26,1.78-.79,3.55-2.13,4.57.62-.27,1-.24,1.15.77.66,5.3,1.39,10.58,2.11,15.86a11.55,11.55,0,0,0,.36,1.65c.3,1,.72,1,1.46.26,1.05-1.07,1.73-2.66,3.54-2.74,1.12-2,2.86-3.38,4.37-5,.7-.76,1.1,0,1.5.44q1.93,2,3.85,4.13c1.54.67,2,2.44,3.3,3.32.45.3.74,1,1.41.68s.51-.92.58-1.49c.57-5.18,1.12-10.35,1.76-15.54.19-1.52.38-2.16,1-2.2A8.26,8.26,0,0,1,340,162.87Z"/><path class="cls-1" d="M28.62,196.87c2.31,1.06,4.57,2.18,6.91,3.23,1.2.54,1.42,1,.17,1.83-2.09,1.32-4.12,2.74-6.19,4.09-1,.65-1.21,1.14-.15,2,2.45,2.11,4.79,4.35,7.18,6.54a2.93,2.93,0,0,1-.13.57H48a2.22,2.22,0,0,1-2-2c-.4-2.56-.36-5.22-1-7.72-1.37-5.67-1.21-11.55-2.65-17.22-.45-1.75-1.32-3.78-.27-5.72a7.65,7.65,0,0,1-.91-4.46,4,4,0,0,1-2,1.83,2,2,0,0,1-2,1.47H37a1.84,1.84,0,0,1-1.06.45l-.18.22a1.93,1.93,0,0,1-1.33,1.11c-.06,0-.12.07-.19.1l-.22.3a6.61,6.61,0,0,1-1.94,1.59,2.72,2.72,0,0,0,.69-.06l.17-.19V185a.44.44,0,0,1-.15.08c-1.36,3-3.47,5.64-5.22,8.44C26.15,195.75,26.09,195.71,28.62,196.87Z"/><path class="cls-1" d="M67.22,215.15c1.83-2.18,3.74-4.63,5.89-6.79,1.42-1.42,1.59-2.19-.29-3.21-1.6-.92-3.06-2-4.57-3.05-.63-.42-1.68-.66-1.68-1.44s1.11-.91,1.76-1.23c2.16-1.06,4.3-2.18,6.53-3,1.9-.73,1.83-1.58.91-3.12-1.66-2.56-3.13-5.26-4.84-8.22l.53,0A11.51,11.51,0,0,1,69.77,183a16.55,16.55,0,0,0-3.56-4.13,2.34,2.34,0,0,1-.37-.4c-.77.26-1.68-.08-3.56-.79a1.65,1.65,0,0,0-.56,1.68,6.58,6.58,0,0,1-.92,3.92,2.06,2.06,0,0,1,.41,2.38c-.69,2.48-.75,5.12-1.25,7.66-.91,4.84-1.06,9.81-2.44,14.62a20.71,20.71,0,0,0-.5,4.57c-.07,1.44-.49,2.38-1.69,2.63Z"/><path class="cls-1" d="M139.47,186.05v-.23a2.56,2.56,0,0,1-.12-1,2.25,2.25,0,0,1-.47-1.73,2.41,2.41,0,0,1-.12-.92,3.53,3.53,0,0,0-.11-.65,2.17,2.17,0,0,1-.39.47,8.06,8.06,0,0,1-1.71,2.74c-2.89,3.34-5.56,6.87-8.33,10.3-.91,1.08-1.54,1.28-2.62,0-3.24-4-6.5-7.92-9.6-12a4.1,4.1,0,0,1-.91-2.58,12.61,12.61,0,0,1-1.46,6.08c.66.28.86,1.54,1.24,4.07.67,4.39,1.31,8.77,2,13.16.23.13.63.22.68.4.55,2,1.14,1,1.83.08A4.92,4.92,0,0,1,122,202c1.16-1.21,2.41-2.33,3.46-3.66s2-1.51,3,0a3.9,3.9,0,0,0,.79.67c1.2-.07,1.69.56,1.62,1.7,2.16.57,2.6,2.89,4.14,4.12.57.46.84,1.29,1.71,1.39.79-6.12,1.63-12.23,2.33-18.38a2,2,0,0,1,.52-1.41,1,1,0,0,1,0-.35Z"/><path class="cls-1" d="M382.53,215.19h-45c-.91,0-1.83.32-2.58-.52-.91-6.12-1.95-12.23-2.74-18.36-.6-4.57-2.46-9.26,1.37-13.35,1.54.66,2,2.44,3.3,3.31.45.31.74,1,1.41.68s.51-.91.57-1.49c.58-5.17,1.13-10.35,1.77-15.54.31-2.47.62-2.62,3-1.63,9.81,4.13,19.35,8.78,28,15.08,3.59,2.61,5.1,6.52,6.22,10.55,1.41,5.09,2.67,10.23,3.57,15.44.13.76.08,1.78,1.22,2Z"/><path class="cls-1" d="M132.51,248.3c.12-3.47,1.28-6.74,1.83-10.13.21-1.3.49-2.59.75-3.89,1.36-2.9,1.94-6.06,2.89-9.14a16.64,16.64,0,0,1,6.39-9.14l4.28-3c1.65,0,2.42-1.38,3.56-2.22a6.41,6.41,0,0,0-3.55,1.89c-1.69-.59-3-1.83-4.51-2.74s-1.17-1.35.14-1.94c2.63-1.17,5.26-2.38,7.9-3.56,1.08-.48,1.27-1,.56-2.09-1.95-3.1-3.83-6.26-5.59-9.47-.69-1.27-1.83-2.36-1.83-4a136.86,136.86,0,0,1,24.14,13.2c-2.93,4.57-5.88,9.07-8.78,13.63-1.32,2.06-1.17,2.15.91,3.24,2.74,1.43,5.84,2.2,8.6,4.17-2.6,1.69-5,3.27-7.46,4.78-.91.59-1.39.92-.73,2.28,3,5.95,5.82,12,8.7,18Zm34.16-44.52a2.88,2.88,0,0,0-3,.85c-.07.09.09.36.15.54.81-.34,1.63-.68,2.44-1a2.07,2.07,0,0,0,.44-.34Zm-10.66,5A2.63,2.63,0,0,0,153.7,210a2.9,2.9,0,0,0,2.31-1.23Z"/><path class="cls-1" d="M236.51,231.71l3.4,16.59H201.28c3-5.93,5.91-11.88,8.91-17.78a1.64,1.64,0,0,0-.35-2.29,1.35,1.35,0,0,0-.33-.19c-1.91-1.18-3.77-2.42-5.65-3.65-.51-.33-1.28-.53-1.21-1.31s.91-1,1.55-1.24c2.3-.92,4.57-1.89,6.77-3,1.39-.7,1.66-1.46.78-2.83-1.94-3-3.8-6.11-5.58-9.18-.56-1-1.27-2.08-1-3.37.77.3,1.54.58,2.3.91,3.07,1.3,5.89,3.14,9.05,4.24.25.78,1,1,1.58,1.3a72.89,72.89,0,0,1,9.41,5.66,14.7,14.7,0,0,1,6.18,7.54C234.67,226,235.58,228.85,236.51,231.71Z"/><path class="cls-1" d="M32.76,185.06c-1.36,3-3.46,5.64-5.22,8.44-1.39,2.25-1.43,2.21,1.08,3.37,2.31,1.06,4.57,2.18,6.91,3.23,1.2.54,1.42,1,.17,1.83-2.09,1.32-4.12,2.74-6.19,4.09-1,.65-1.21,1.14-.15,2,2.45,2.11,4.79,4.35,7.18,6.54l-.14.61H.5v-8.06c.39-1.83.76-3.66,1.19-5.53,1.5-6.48,5.16-10.47,12.06-11.63a76.18,76.18,0,0,0,18-4.78,3.92,3.92,0,0,1,1-.14Z"/><path class="cls-1" d="M205.22,203.47c-.27,1.29.43,2.36,1,3.37C208,210,209.86,213,211.8,216c.91,1.37.61,2.13-.78,2.83-2.21,1.1-4.47,2.09-6.77,3-.62.24-1.48.37-1.56,1.24s.71,1,1.22,1.31c1.83,1.23,3.74,2.47,5.65,3.65a1.63,1.63,0,0,1,.86,2.15,1.57,1.57,0,0,1-.19.33c-3,5.91-5.94,11.88-8.91,17.78h-8.49c.14-1.47.25-2.94.41-4.4q1.29-11.7,2.61-23.4c.31-2.06.63-4.12.91-6.19.67-4.7.91-9.46,2-14.12C200.83,201.37,203.21,202,205.22,203.47Z"/><path class="cls-1" d="M170.71,248.3c-2.88-6-5.69-12.07-8.7-18-.66-1.32-.2-1.69.73-2.28,2.45-1.51,4.86-3.09,7.46-4.78-2.74-2-5.85-2.74-8.6-4.17-2.09-1.09-2.24-1.18-.91-3.24,2.9-4.57,5.85-9.14,8.78-13.63l2.52-1.45c1-.33,1.61-.31,1.83,1.06.77,6.17,1.66,12.32,2.51,18.48l3.36,28Z"/><path class="cls-1" d="M192.36,248.3H180.05c1.19-8.44,2.18-16.91,3.66-25.29.53-3-1.15-4.57-2.47-6.56,1-1.83,2.74-2.95,4.07-4.52.71-.92,1.18-.67,1.83,0,1.19,1.39,2.42,2.75,3.65,4.1-1.6,2.9-2.69,5.7-2,9.32C190.29,233,191.2,240.66,192.36,248.3Z"/><path class="cls-1" d="M181.24,216.45c1.32,2,3,3.55,2.47,6.56-1.48,8.38-2.47,16.85-3.66,25.29h-.42q-1.66-14-3.35-28c.91.34,1.21-.51,1.71-.91C179.1,218.45,179.85,217.07,181.24,216.45Z"/><path class="cls-1" d="M192.36,248.3c-1.16-7.64-2.07-15.33-3.59-22.9-.72-3.66.38-6.4,2-9.32.8.22,1,1.08,1.61,1.53,1.19.92,1.83,2.52,3.44,2.89q-1.31,11.69-2.6,23.4c-.17,1.46-.28,2.93-.41,4.4Z"/><path class="cls-1" d="M113.16,80.45l16.36-7.57c.85,1.15.35,2.47.42,3.7a3.35,3.35,0,0,0,.85,2.3,14.45,14.45,0,0,0,18.56,2.49c2.35-1.5,4.31-3.22,3.71-6.46-.14-.74-.33-1.83,1.07-1.83l9.36,4.42h0v7.38a3.78,3.78,0,0,0-1.82,3,9.94,9.94,0,0,0,2.65,8.36A5.38,5.38,0,0,1,165.75,99c.91,5,3,9.51,7.26,12.69a13.8,13.8,0,0,1,3.31,2.93v4.82a2.29,2.29,0,0,1-2.41,1.76c-7.87-.11-15.73-.08-23.59-.1-1.78-.62-3.73-1-5.32-1.92a39,39,0,0,0-10.82-4.57,30.81,30.81,0,0,0-18.06.53,28.76,28.76,0,0,0-9.6,5.93c-1.38.08-2.74-.43-4.15,0l-1.17-.21c-.26-1.19-.06-2.56-1.21-3.44.65-1.14.38-2.36.31-3.56a1.08,1.08,0,0,0,0-1.43c4-3.41,8.29-6.54,10-11.88.64-2.06,1-4.2,1.57-6.3,2.6-2,4-6.69,2.89-9.6-.31-.77-.63-1.59-1.59-1.83A5.43,5.43,0,0,1,113.16,80.45Z"/><path class="cls-1" d="M224.42,65c-1.61-1.47-3.17-3-4.86-4.39a14.31,14.31,0,0,1-5.13-9.14c-.48-3.26-3-5.35-4.06-8.23-.91-2.37-1.45-4.86.36-7.15a8.1,8.1,0,0,1,.34,1c.53,2.19,1.1,4.37,1.54,6.59.31,1.55,1.44,1.52,2.41,1.18,1.28-.43.23-1.28,0-1.82a17.83,17.83,0,0,1-1.54-5c-.83-7.23,1.5-13.71,5.13-19.7,2.39-3.95,4.87-4.57,8.69-1.91,5.48,3.82,10.43,3.92,15.9-.09,3.89-2.86,6.31-2.34,9.23,1.51,5.55,7.31,8.72,15.2,4.89,24.46-.2.49-.84,1.19-.11,1.69.52.36,1.22.08,1.83,0s.8-.67.91-1.23c.38-1.5.81-3,1.21-4.49,1.83,2.13.67,4.49-.5,5.93-2.74,3.38-3.25,7.52-4.73,11.32-1.4,3.58-4.45,5.66-7.31,7.84a5.87,5.87,0,0,0-1.56,1.34c-1.34.91-2.67,1.78-4,2.64-4.15,2.62-8.39,3.66-12.93.81A54.37,54.37,0,0,0,224.42,65ZM249,54.69c-3.37-5.07-23.76-4.87-26.3.09h2.14c2.74-.05,5.65.43,8.22-.3,2.75-.79,5.17.4,7.75.25s5.34,0,8.22,0Z"/><path class="cls-1" d="M287.88,155.39a9,9,0,0,0,2,5.49c4.3,5,1.4,15.4-1.52,18.61a3.72,3.72,0,0,1-1,.77c-2,1-2.44,2.56-1.77,4.57a4.62,4.62,0,0,0,1.18,2.67c4.05,5,1.56,11.25-2.69,14.23a5,5,0,0,1-2.56-.71,18.84,18.84,0,0,0-4.08-1.94l-7.09-6.75-.06-5.92v-.91c3.17-3.12,6.4-6.18,8.76-10,.68-1.12,1.27-2,2.74-1a2.33,2.33,0,0,0,2.06-.12c3.48-1.41,6.16-8.22,4.57-11.73-.37-.81-.92-1.58-1.83-1.6-1.09,0-.83,1.11-1.08,1.77-.69,1.92-.91,4.08-2.66,5.7a3,3,0,0,1-.17-.78c.07-.63.19-1.26.28-1.88,1.1-7.42.22-14.1-6.7-18.69a14.82,14.82,0,0,1-5.1-5.86c-2.54-5.27-7.45-4.49-10.72-1.71a21.94,21.94,0,0,0-5.3,7.31c-1.68,3.42-3.21,6.93-5.75,9.84-2.9-.25-5.77.36-8.65.37-2.48-.67-3.6,0-4,2.5a14.7,14.7,0,0,0,0,3.38c.09,1.2.69,2.37.35,3.94a13.09,13.09,0,0,1-2.8-4.74c-.57-1.66-1.39-1.3-2.22-.29a4.09,4.09,0,0,0-.66,1.53c-.85,3.31,1.09,8.47,3.9,10.41a3.12,3.12,0,0,0,3.56.4c.72-.43,1.17-.37,1.57.32,2.47,4.18,5.91,7.54,9.35,10.9a.73.73,0,0,0,.12.91c-.28,2.09.41,4.25-.43,6.29a70.31,70.31,0,0,0-6.9,6.46c-2.49,1.06-4.68,2.75-7.36,3.38-.55-.55-1.11-1.09-1.64-1.65-3.22-3.34-4.93-9.38.19-13.08,2.21-1.59,2.24-4.19.42-6.39a24.61,24.61,0,0,1-5-10.35,14.41,14.41,0,0,1,2.16-11.43,8.42,8.42,0,0,0,1.33-3.75,54.71,54.71,0,0,1,2.15-12,37.54,37.54,0,0,0,2-7c.41-.74.84-1.47,1.23-2.21,2.14-4,5.39-6.61,9.95-7,2.42-.19,4-1.51,5.61-2.89,4.36-.85,8.7-2,13.17-.85l4.87,1.25.1.07h0a31.33,31.33,0,0,1,8.7,7.35,9.91,9.91,0,0,0,.59,1.57,48.89,48.89,0,0,1,5.21,13C287,149.91,287.1,152.7,287.88,155.39Z"/><path class="cls-1" d="M174.58,191.86c-1.83-1.67-3.59-3.36-5.48-5-2.81-2.47-3.85-5.82-4.76-9.25-.34-1.29-.66-2.6-1-3.9.27-.15.77,0,.73-.54l-.14-5.13c.53-.58.41-1-.31-1.28a3.48,3.48,0,0,1,0-2.07c.49-.15.83-.35.31-.86.18-.68.33-1.38.56-2,1.44-4,3.83-7.54,4.85-11.7,1-4,3.44-5.93,7.49-6.26a19.87,19.87,0,0,1,8.34,1.07c3.46,1.21,6.86,2.62,10.32,3.8,2,.67,4.06,1.44,6.06,0,.78-.58.79.21.91.57,2.21,7.46,7.25,14.19,5.84,22.6-.12.71,0,1.48,1.06,1.33a62.84,62.84,0,0,0-2.21,7,13.42,13.42,0,0,1-3.72,6.39c-1.94,1.91-4.32,3.36-5.88,5.65a2,2,0,0,0-1.59.46,18.17,18.17,0,0,1-4.13,2.53c-3.47,2-7,2.41-10.66.35Z"/><path class="cls-1" d="M351.2,141c-.09.51-.17,1-.26,1.55-.65.29-.7.82-.55,1.41-.49,5.28-3.31,9.14-7.38,12.26a8.5,8.5,0,0,0-2.9,3c-1.64-.23-2.56,1.12-3.71,1.83-5.06,3.18-10,3.8-15.15.12-1.27-.91-2.53-2-4.19-2.37l-.41-.13c0-1.12-1-1.43-1.68-2-3.39-2.88-6.72-5.77-7.48-10.56a38.76,38.76,0,0,0-1.48-5l.49-.65c.75-.57.58-1.4.54-2.15-.09-1.55-.62-3.14-.39-4.62,1-6.14,2.39-12.2,5.72-17.61a1.46,1.46,0,0,1,1.88-.84l.15.07a15.2,15.2,0,0,0,7.75.22,49.92,49.92,0,0,0,12.14-4.26c4.36-2.18,10.28.36,11.48,5a49.23,49.23,0,0,0,3.72,9.42c1.41,2.86,2.74,5.77,2,9.14a22.37,22.37,0,0,0-.35,5.48Z"/><path class="cls-1" d="M266.88,123.93c-4.48-1.1-8.81,0-13.17.85L252.45,121a148.71,148.71,0,0,1-2.29-16.65,30.25,30.25,0,0,1,.17-8.23,181.48,181.48,0,0,0,2.74-21,35.8,35.8,0,0,1,2-8.84c.91-2.06,2-3.91,4.57-4.29.58-.1.78-.52,1.07-.92a5.6,5.6,0,0,1,3.55-2.48A7.44,7.44,0,0,0,267.24,57a17.35,17.35,0,0,1,10.06-3.52c3.17-.07,6.34-.12,9.52.08a15.36,15.36,0,0,1,6.63,2c2.18,1.24,4.28,2.58,6.62,3.66,2.17,1,4,2.74,6,4.25,1.82,1.36,2.52,3.65,2.74,6-.11.56-.23,1.11.39,1.47a2.91,2.91,0,0,1,.25,1.72c-.4.36-.28.62.14.82.08.3.14.6.21.91,0,0-.1.09-.1.11s.08.16.13.24a4,4,0,0,0,.07.91c-.46.61-.53,1.17.13,1.68a23.53,23.53,0,0,1,.52,6.09c-.13.69-.33,1.38.29,2,.09.91.18,1.74.26,2.61l-.76.87h0l-.43-.46c-1.45-.87-2.1-.19-2.67,1.16-.92,2.06-1.63,4.24-3.28,5.91a21.46,21.46,0,0,1,.28-3.4c.13-1.13.17-2.26.2-3.38.13-5.37-.27-5.67-5.31-4-3.77,1.26-6.17.48-8.33-2.9-1.1-1.72-2.07-3.53-3-5.35-1.36-2.64-2.51-5.39-4-8-1.38-2.39-3.25-2.34-4.76-.08A21.21,21.21,0,0,0,277.7,71c-1.48,3-2.8,6.17-4.57,9.09-3,5-5.25,6.31-10.73,4.11-3-1.2-4-.35-4.08,2.86-.09,2.74.57,5.42.69,8.72-1.83-2.08-2.28-4.27-3.37-6.08-.25-.4-.22-1.11-.81-1.1s-.77.71-1,1.22c-1.36,3.44,1,9.62,4.25,11.33a2.59,2.59,0,0,0,2.82.12c1.21-1,1.53-.17,2,.63a42.71,42.71,0,0,0,8.88,10.17l.28,1.66v7.61C270.33,122.1,268.41,122.62,266.88,123.93Z"/><path class="cls-1" d="M130,65a12.29,12.29,0,0,0-3.81-3.55c-4.26-3.16-5.75-7.81-6.82-12.66a3.18,3.18,0,0,0-1-2c-2.15-1.71-2.74-4.18-3.19-6.67-.3-1.77,0-3.44,1.74-4.51.72,2.31.61,4.74,1.11,7.08.23,1.1.08,3.22.92,3,1.23-.28.68-2.23.4-3.33-1.09-4.14.2-7.77,2-11.37.62-1.23,1.28-1.82,2.74-1.66a24.72,24.72,0,0,0,11.95-2.2c3.31-1.42,5.48-4.09,7.87-6.61.7-.75,1.35-1.43,2.51-.7,1.9,1.18,3.18.42,4.39-1.27,1.48-2,2.28-2,4.06-.21.92.91,1.54,2.13,3.18,2.15,3,.06,4.17,1.08,5,3.91s.63,5.49.62,8.23c0,3.93.51,7.88-.13,11.82-.1.6-.49,2,1.16,1.4-1.41,2.74-1.58,5.86-2.69,8.71-1.41,3.66-4.06,6.12-7.12,8.28a5.21,5.21,0,0,0-2.07,2c-1.09.62-2.18,1.25-3.29,1.83-2.31,1.2-4.48,2.7-7.2,2.92-3.21.27-5.86-1.12-8.52-2.64C132.63,66.27,131.68,65,130,65Z"/><path class="cls-1" d="M26.35,157c-2.49-3.06-4.29-6.4-3.31-10.49.23-1,.67-1.9,1.94-1.83,1.08,2.31,1,5.18,3.46,7.38-.24-1.83-.4-3.1-.59-4.41-.91-6.67.4-12.43,6.27-16.64a20.65,20.65,0,0,0,6.09-6.95c2-3.55,5-4.27,8.61-2.32,2.8,1.51,4.57,4,6,6.63,1.83,3.19,3.08,6.67,5.18,9.7,1.29,1.83,2.84,3.44,5.23,3.55a12,12,0,0,0,4.49-1.08c2.86-1,4.43.14,4.57,3.21.12,2.11-.41,4.14-.69,6.59,1.69-1.38,2.26-3.09,3-4.57a2.41,2.41,0,0,1,2.17-1.62l.57.65c1.5,2.29,1.1,4.72.55,7.17-.57,1.92-2,3.33-2.88,5.09-1.55.48-3,1.62-4.69.21-.37-.31-.79,0-1,.4A54.18,54.18,0,0,1,61.73,169c-2,.67-3.52,2.25-5.48,3.08-2.28,1-4.51,1.66-7.09.91-2.41-.73-4.35-2.28-6.63-3.21h0a1.58,1.58,0,0,0-1.23-.91c-3.42-3.51-6.9-7-9.44-11.22-.21-.37-.6-.72-1-.36C29.23,158.64,27.81,157.64,26.35,157Z"/><path class="cls-1" d="M253.06,75.15a181.48,181.48,0,0,1-2.74,21,30.59,30.59,0,0,0-.17,8.22,148.56,148.56,0,0,0,2.29,16.66l-.47-.2c-.69-1-1.77-.69-2.74-.69H204.35c-1.89,0-3.66.1-4.81-1.74l-.25-2.09.17-2.16,2.43-2c3.36-2.74,6.3-5.74,7.2-10.29.4-2,.71-4.16,1.95-5.94h0l.46-.47v.05a8.3,8.3,0,0,0,1.6-9.68l.59-8.41c2.5-1.13,5-2.28,7.52-3.4.69-.31,1.33-.82,2.18-.62L226,93.35c3.19-3.1,6.05-5.83,8.81-8.65.85-.87,1.28-.92,2.11,0,2.74,3,5.48,5.84,8.64,9.14.85-7.06,1.67-13.71,2.47-20.32,1.31-.47,2.32.38,3.18,1A5.11,5.11,0,0,0,253.06,75.15Z"/><path class="cls-1" d="M146.07,170.81l-7.66,7.06c-1.69.56-3,1.73-4.57,2.61-3.65,2.13-7.39,3.34-11.59,1.22-2.33-1.18-4.42-2.75-6.78-3.87-1.54-1.83-3.57-3.07-5.34-4.57-2.35-2-3.15-4.88-4.73-7.31-.14-2.47-.38-4.84-2.3-6.77a8.84,8.84,0,0,1-2.42-6.19c0-1.13-.44-2.44.83-3.27a27.89,27.89,0,0,0,1.88,7.24,4.57,4.57,0,0,0,0-2.74c-1-7.4.45-14.18,5.12-20.1.48-.63.8-1.38,2-.75a15.26,15.26,0,0,0,11.13,1.19c4.83-1.32,9.77-1.09,14.63-1.66,6.7-.77,10.37,1.93,12.79,8.23a24.43,24.43,0,0,1,1.19,13.59c1.56-1.2,1.34-3.08,2.54-4.14a10.58,10.58,0,0,1-2.85,9.13,3.79,3.79,0,0,0-.92,1.83A46.34,46.34,0,0,1,146.07,170.81Zm-36.48-23.52c-.92.16-1.83.26-2.69.49-1.56.41-2.27,1.83-1.24,3,1.23,1.35,1.31,2.89,1.54,4.48.32,2.15.51,4.32,2.48,5.85,4.2,3.27,10.9,1.94,13.35-2.75.68-1.3,1.09-2.74,1.65-4.11a2.5,2.5,0,0,1,3.25-1.36,2.53,2.53,0,0,1,1.44,1.56c.32.92.54,1.9.91,2.83,1.4,3.89,4.25,5.83,8.05,5.48,5.07-.41,7.25-2.25,8.23-6.71.39-1.89.47-3.83,2-5.43,1.24-1.3.39-2.88-1.56-3.09-4.28-.5-8.61-.92-12.79.28a23.64,23.64,0,0,1-13.54,0,26.56,26.56,0,0,0-2.9-.55c-.13-.21-.27-.24-.43,0h-7.21c-.29-.18-.43-.16-.56.06Z"/><path class="cls-1" d="M111.78,94.16c-.52,2.1-.91,4.24-1.57,6.29-1.66,5.32-6,8.45-9.95,11.89-1.09.65-2.18,1.29-3.25,2-5.08,3.27-10.27,4-15.65.69a3.19,3.19,0,0,0-1.93-.76h0c-.09-.41-.39-.52-.74-.56l-.92-.36a4.18,4.18,0,0,0-.85-1.16c-6-4.3-10.38-9.65-11.53-17.17a.22.22,0,0,0,0-.3A2.74,2.74,0,0,0,65,93a22.06,22.06,0,0,0-1.34-8.55,4,4,0,0,0-.23-2.08.52.52,0,0,0-.1-.72l-.05,0-.32-3.14a.8.8,0,0,0-.11-1.11,71.19,71.19,0,0,1,0-12,.53.53,0,0,0,.09-.74l0,0a32.56,32.56,0,0,1,2.16-8.16,11.74,11.74,0,0,1,6.48-6.3c2.51-1,4.64-2.89,7.41-3.52,5-1.14,9.84-.48,14.63,1a48.71,48.71,0,0,1,20.16,11.61,3.15,3.15,0,0,1,1,3.37c-1.39,5.87-1.2,11.88-1.57,17.89a5.48,5.48,0,0,0-.07,2.35C112.39,86.54,112.62,90.42,111.78,94.16Zm-1.36-13.59a2,2,0,0,0,.36-1.38,25.84,25.84,0,0,0-3.66-10.52c-2.89-4.86-6.73-4.94-10.86-3-2.11,1-4.05,2.37-6.21,3.18-5.94,2.24-13,2.74-17.1-2.74-.74-1-1.09-.44-1.5.25a33.41,33.41,0,0,0-3,6c-1.44,4-3,8.11-2.85,12.32.22,6.51,2.91,12.46,6,18.16a18.2,18.2,0,0,0,5.29,5.48c.21-1.43.29-2.41.53-3.36.37-1.44.78-2.91,2.12-3.8a17.77,17.77,0,0,1,11.68-3.27,10.75,10.75,0,0,1,10,9.2c0,.08.21.13.48.29a24.86,24.86,0,0,0,5.79-7.11A32.91,32.91,0,0,0,111.22,83a3.24,3.24,0,0,0-.8-2.36ZM89.86,113.74c2,0,4.76-1.3,7.37-2.9a1.38,1.38,0,0,0,.79-1.36c-.19-3.76-1.14-4.89-4.88-5.74a32.41,32.41,0,0,1-3.24-.92,1.74,1.74,0,0,0-1.41-.12c-1.59.81-3.39,1-5.07,1.46-2.13.61-4.08,4.29-3.37,6.34a1.57,1.57,0,0,0,.73.71,16.83,16.83,0,0,0,9.08,2.55Z"/><path class="cls-1" d="M284.12,201.7c4.25-3,6.74-9.27,2.69-14.23a4.59,4.59,0,0,1-1.18-2.67,2.84,2.84,0,0,1,1.28-2.16c7.38-5.4,15.62-9.14,23.76-13,1.39-.66,2.82-1.24,4.21-1.89.78-.36,1.26-.47,1.41.67.65,5.29,1.39,10.57,2.11,15.86a11.68,11.68,0,0,0,.35,1.64c.31,1,.73,1,1.47.27,1-1.07,1.72-2.66,3.53-2.74.92,1.63,2.83,2.86,2.53,5.09-.78,5.56-1.69,11.11-2.4,16.68-.42,3.33-1.3,6.61-1.17,10l-13.4.11a3.2,3.2,0,0,1-.49-.67,12.1,12.1,0,0,0-9.35-7.66,61.48,61.48,0,0,1-7.54-2C289.31,204,286.35,203.69,284.12,201.7Z"/><path class="cls-1" d="M164.77,45.84c-1.64.59-1.26-.8-1.16-1.4.64-3.94.13-7.89.14-11.82,0-2.74.16-5.48-.62-8.22s-2-3.86-5-3.92c-1.65,0-2.27-1.27-3.18-2.15-1.83-1.75-2.59-1.83-4.06.21-1.22,1.69-2.5,2.46-4.4,1.27-1.16-.73-1.82,0-2.5.7-2.36,2.52-4.57,5.19-7.88,6.61a24.65,24.65,0,0,1-11.94,2.2A2.45,2.45,0,0,0,121.42,31c-1.82,3.6-3.09,7.22-2,11.37.29,1.09.84,3-.4,3.32-.91.2-.73-1.92-.91-3-.51-2.34-.4-4.77-1.12-7.09-.09-2.25-.24-4.5-.25-6.76,0-1.06-.62-1.44-1.4-1.88-6.72-3.84-9-9.86-6.54-17.09.31-.92.44-1.59,1.83-1,2.8,1.25,5.7.36,8.53-.2a15.4,15.4,0,0,0,6.07-2.81c8.09-5.93,22-7.92,31.67-.91,1.42,1,3.26,1.31,4.57,2.57,3.17,3,4.22,6.92,4.9,11,.92,5.69.53,11.42.11,17.13-.49,3.41-1.54,6.73-1.66,10.2Z"/><path class="cls-1" d="M97.7,194l11.88-5.57a4,4,0,0,1-.91,2.09c-2.46,3.85-4.9,7.73-7.39,11.58-.79,1.22-.65,2,.79,2.57,2.46,1.05,4.85,2.27,7.31,3.39,1.35.62,1.34,1.23.1,2-1.89,1.22-3.66,2.61-5.64,3.73-1.39.81-1.44,1.7-.81,3,1.6,3.2,3.29,6.39,4.74,9.65,1.15,2.61,3.12,4.87,3.53,7.82H73.1c.92-5.79,2.26-11.49,3.6-17.18.14-.62.25-1.25.37-1.83a3.3,3.3,0,0,0,.76-1.94c1.31-6.4,5.18-10.79,10.78-13.88C91.68,197.65,94.64,195.78,97.7,194Z"/><path class="cls-1" d="M351.11,140.2a22.37,22.37,0,0,1,.35-5.48c.76-3.35-.56-6.26-2-9.14a49.23,49.23,0,0,1-3.72-9.42c-1.2-4.57-7.12-7.16-11.48-5a49.92,49.92,0,0,1-12.14,4.26,15.2,15.2,0,0,1-7.75-.22,1.46,1.46,0,0,0-2,.62l-.07.15c-3.33,5.41-4.71,11.47-5.72,17.61-.23,1.48.3,3.07.39,4.62,0,.75.21,1.58-.54,2.16-.32-.25-.8-.36-.79-.92.09-3.4-1.2-6.62-1.33-10a53.73,53.73,0,0,1,.43-19.42c1-4.84,3.19-8.82,8.1-10.73h.5l.34-.18c4.24-3.32,9.19-4.86,14.4-5.66,6.56-1,13.09-.91,19.45,1.26A21.09,21.09,0,0,1,350.54,96c3.66,1.92,3.85,2.54,3.34,6.58-.85,6.8-.68,13.66-.72,20.5V129c-.53,3.65-.32,7.43-1.06,11.09l-.05.06Z"/><path class="cls-1" d="M78.81,144.14a2.42,2.42,0,0,0-2.17,1.62c-.71,1.52-1.28,3.23-3,4.57.27-2.44.8-4.48.69-6.59-.18-3.06-1.75-4.23-4.57-3.21a11.84,11.84,0,0,1-4.49,1.08c-2.4-.11-3.94-1.69-5.23-3.55-2.1-3-3.37-6.5-5.18-9.69-1.51-2.65-3.24-5.13-6-6.64-3.6-2-6.65-1.22-8.61,2.32a20.68,20.68,0,0,1-6.09,7c-5.88,4.2-7.18,10-6.27,16.63.18,1.31.35,2.62.59,4.42C26,149.85,26.1,147,25,144.67c-.67-5.2-.91-10.37.5-15.54a24.14,24.14,0,0,1,6.08-11,39.45,39.45,0,0,0,3.23-3.61,9.08,9.08,0,0,1,6.81-3.81c1.82-.1,3-1.29,4.51-2,7.38-3.72,19.13-2.12,24.39,7.88.91,1.82,1.42,3.84,3,5.28A40.89,40.89,0,0,1,77.87,134l.19.92A32,32,0,0,0,78.81,144.14Z"/><path class="cls-1" d="M213.65,77.44c-.19,2.8-.39,5.61-.58,8.41-.58,3.22-1.51,6.4-1.6,9.68v0L211,96h0c-1.15-.25-.76-1.18-.81-1.89-.12-1.83.69-3.66.38-5.49a50.9,50.9,0,0,0-5.34-16.45c-.75-1.34-1.28-1.41-2.27-.25-1.49,1.74-3.26,3.32-5.61,3.54-4,.38-8.06.29-11.75-1.77-1.66-.91-3.32-1.88-5-2.74-3.71-2-7.31-1.2-9.81,2.15-3.41,4.64-4.4,10-4.51,15.6v5.48c0,.58.23,1.5-.6,1.55s-.56-.83-.61-1.34c-.3-2.88-.54-5.76-.82-8.63,0-2.78.33-5.6-.82-8.22h0a1.28,1.28,0,0,0,.4-1.09c.54-.91.05-1.74-.28-2.56-.29-2.09-.49-4.2-.92-6.27a2.82,2.82,0,0,1,.78-2.88c8.41-8,18.09-13.15,30-13.33a15.14,15.14,0,0,1,9.53,2.94,5.75,5.75,0,0,0,1.61,1c4.66,1.51,6.55,5.25,7.78,9.56C213.53,69,213.57,73.21,213.65,77.44Z"/><path class="cls-1" d="M261.23,38.11c-.4,1.5-.82,3-1.21,4.49-.14.57-.24,1.11-.91,1.24s-1.33.39-1.83,0c-.73-.51-.09-1.2.11-1.7,3.83-9.25.66-17.14-4.89-24.45-2.91-3.85-5.33-4.37-9.23-1.51-5.48,4-10.43,3.9-15.9.08-3.81-2.65-6.3-2-8.68,1.91-3.66,6-6,12.48-5.14,19.71a18.44,18.44,0,0,0,1.54,5c.25.57,1.3,1.42,0,1.83-1,.34-2.1.37-2.41-1.19-.44-2.21-1-4.39-1.53-6.59a8.8,8.8,0,0,0-.35-1c-.59-5.54-1.46-11.08-.64-16.67.59-4.08,1.7-7.91,5.35-10.41,9.79-6.74,20.44-7.81,31.7-4.67A17.15,17.15,0,0,1,254,7.55c.82.71,1.89.5,2.74,1.06A8.86,8.86,0,0,1,260,13.68c2.23,7.32,2.24,14.76,1.47,22.27C261.35,36.72,261.29,37.42,261.23,38.11Z"/><path class="cls-1" d="M111.27,234.22c-.41-2.95-2.38-5.21-3.53-7.82-1.45-3.28-3.14-6.45-4.74-9.65-.63-1.26-.58-2.15.81-3,2-1.12,3.75-2.51,5.64-3.73,1.24-.78,1.25-1.39-.1-2-2.44-1.12-4.83-2.34-7.31-3.39-1.44-.61-1.57-1.35-.79-2.57,2.49-3.85,4.93-7.73,7.39-11.58a3.88,3.88,0,0,0,.91-2.09c4.48-2.9,4.49-2.9,5.27,2.16.66,4.39,1.3,8.77,2,13.16.43,3.77.83,7.54,1.29,11.3.67,5.48,1.37,10.86,2.06,16.3l.09,1.25c-.23.61.51,1.73-.83,1.73C116.7,234.3,114,234.73,111.27,234.22Z"/><path class="cls-1" d="M78,135c0-.32-.12-.63-.18-.91a2.78,2.78,0,0,0,.22-2.22l-1.7-11.24.91-3.65c3.55,4.3,7.12,8.59,10.62,12.94.81,1,1.2,1,2,0,3.31-4.23,6.7-8.4,10.06-12.6,1.15.92.91,2.25,1.2,3.45a4.76,4.76,0,0,0-.51,2c0,5.41-1.05,10.7-1.83,16-.91,6.67-1.65,13.37-2.49,20.05-.35,2.82-.12,5.74-1.33,8.43a5.75,5.75,0,0,1-.33-1c-1-7.1-1.93-14.22-3.07-21.29-.41-2.55-.59-4.85,1.25-6.94.92-1,.63-2-.36-3-3.9-3.82-3.8-3.79-7.53.24-1,1.1-.7,1.71-.16,2.75s1.88,2,1.66,3.53c-1.25,8.56-2.53,17.11-3.79,25.67-1.29-1.83-.72-4-1.11-5.94-.62-3.11-.4-6.4-1.69-9.37.55-2.45.91-4.88-.55-7.18.47-1.12-.43-8.7-1.16-9.67C78.19,135.07,78.08,135.06,78,135Z"/><path class="cls-1" d="M146.07,170.81a46.8,46.8,0,0,0,3-9.21,3.82,3.82,0,0,1,.91-1.83,10.63,10.63,0,0,0,2.86-9.14c1.72-5.92,3-11.88,2.55-18.13,4.88-2.4,9.71-4.86,14.63-7.17,5.83-2.74,5.93-2.62,5.81,4.12-.27.69-.91.76-1.53,1-6.2,2.74-10.25,7.21-11.88,13.89-1.5,6-1.06,12.07-.91,18.12-.45.4-1.18.64-.78,1.48l-.35.64c-.63,1.13-1.07,2.27-.28,3.51l.09.91a.7.7,0,0,0,.3.83h0a.76.76,0,0,0,.11.38l0,.65Z"/><path class="cls-1" d="M60.75,183.3a2.09,2.09,0,0,1,.41,2.39c-.7,2.48-.75,5.12-1.25,7.66-.92,4.83-1.06,9.8-2.44,14.62a20.65,20.65,0,0,0-.51,4.57c-.08,1.76-.69,2.79-2.68,2.68s-3.82,0-5.73,0a2.32,2.32,0,0,1-2.57-2c-.4-2.56-.36-5.22-1-7.72-1.37-5.67-1.21-11.55-2.65-17.22-.45-1.75-1.32-3.78-.27-5.72A7.14,7.14,0,0,0,44,185.46c4.68,5.37,11,4.48,14.92-.36A19.11,19.11,0,0,1,60.75,183.3Z"/><path class="cls-1" d="M97.7,194c-3,1.83-6,3.65-9.09,5.36-5.6,3.09-9.47,7.47-10.78,13.89a3.25,3.25,0,0,1-.76,1.93H67.22c1.83-2.19,3.75-4.64,5.9-6.81,1.42-1.42,1.59-2.19-.29-3.21-1.6-.92-3.06-2-4.57-3.05-.63-.42-1.68-.66-1.68-1.44s1.1-.91,1.76-1.23c2.16-1.06,4.3-2.18,6.53-3,1.9-.73,1.83-1.58.91-3.12-1.66-2.56-3.13-5.26-4.84-8.22a13,13,0,0,1,3.93,1.21c5.62,1.91,11.44,3,17.21,4.33A9.31,9.31,0,0,1,97.7,194Z"/><path class="cls-1" d="M148.63,213l-4.27,3a16.67,16.67,0,0,0-6.4,9.14c-.92,3-1.53,6.2-2.89,9.14l-.91.18c-.83-.24-.75-.8-.67-1.51q1.6-13.32,3.14-26.67c.79-6.12,1.63-12.23,2.33-18.38.19-1.63.7-1.92,2.07-1.13s3,1.12,4.27,2.2c0,1.6,1.12,2.7,1.82,4,1.77,3.21,3.66,6.4,5.6,9.47.7,1.1.51,1.61-.57,2.08-2.64,1.18-5.26,2.4-7.9,3.57-1.31.58-1.53,1.13-.13,1.93s2.81,2.12,4.5,2.75C148.64,212.82,148.63,213,148.63,213Z"/><path class="cls-1" d="M129.48,209.49c1.29,7.72,2.26,15.54,3.42,23.26a1.87,1.87,0,0,1-.08,1.19h.71a2.31,2.31,0,0,1,0-1q1.62-13.34,3.15-26.67c-.92-.1-1.14-.91-1.72-1.39-1.54-1.23-2-3.55-4.14-4.13,1,.91,1,1.83,0,2.88A6.52,6.52,0,0,0,129.48,209.49Z"/><path class="cls-1" d="M120.16,231.34c.59.38.59.8.09,1.25-.13.38.1.92,0,1.35H121a2.1,2.1,0,0,1,0-1.19c1.14-7.83,2.11-15.69,3.4-23.49a6.47,6.47,0,0,0-1.28-5.48c-.41-.55-1-1-1.11-1.76a5,5,0,0,0-2.64,2.17c-.64.91-1.23,1.89-1.83-.08,0-.18-.44-.27-.68-.4.43,3.77.83,7.54,1.29,11.3C118.77,220.47,119.48,225.9,120.16,231.34Z"/><path class="cls-1" d="M82.76,167.27c1.26-8.55,2.54-17.11,3.78-25.66.22-1.5-1-2.39-1.66-3.54-.53-1-.85-1.61.16-2.74,3.73-4,3.66-4.07,7.53-.25,1,1,1.24,1.95.37,3-1.83,2.09-1.67,4.38-1.26,6.93,1.15,7.08,2.06,14.2,3.08,21.3a5.1,5.1,0,0,0,.32,1c0,.44.08.91.12,1.33a80.86,80.86,0,0,1-13,0C82.52,168.27,83,167.92,82.76,167.27Z"/><path class="cls-1" d="M195.8,220.5c-1.64-.37-2.25-2-3.44-2.89-.59-.45-.81-1.31-1.61-1.53l-3.66-4.1c-.62-.72-1.09-.91-1.83,0-1.28,1.57-3,2.74-4.06,4.52-1.39.62-2.14,2-3.26,2.9-.5.41-.78,1.26-1.71.91-.85-6.16-1.74-12.31-2.51-18.48-.17-1.37-.79-1.39-1.83-1.06a9.68,9.68,0,0,0,2.63-3.84,107.07,107.07,0,0,1,9.35,11.27c2,2.64,1.89,2.75,4,.27.5-.59,1-1.19,1.49-1.77,2.74-3.18,5.06-6.71,8-9.72,1.68.6.43,2.32,1.25,3.25-1.06,4.66-1.32,9.42-2,14.12C196.43,216.38,196.08,218.45,195.8,220.5Z"/><path class="cls-1" d="M130.8,200.77c1,.91,1,1.83,0,2.88-1.52,1.67-1.76,3.54-1.37,5.84,1.3,7.72,2.27,15.54,3.43,23.26.19,1.24-.11,1.63-1.36,1.6-3.11-.07-6.23-.09-9.34,0-1.35,0-1.46-.46-1.29-1.6,1.14-7.83,2.11-15.68,3.4-23.49a6.47,6.47,0,0,0-1.28-5.48c-.41-.55-1-1-1.11-1.76,1.16-1.2,2.41-2.33,3.46-3.65s2-1.52,3,0a3.85,3.85,0,0,0,.79.66,4.8,4.8,0,0,0,1.62,1.7Z"/><path class="cls-1" d="M248,73.52c-.8,6.64-1.61,13.26-2.46,20.32-3.13-3.28-5.94-6.15-8.65-9.14-.83-.92-1.26-.87-2.11,0-2.74,2.82-5.62,5.55-8.81,8.65-.92-6.8-1.77-13.38-2.63-19.95a10.62,10.62,0,0,1,.86-3.88c4,3.93,6.94,8.67,10.68,12.79.91,1,1.28,1,2,0,1.56-2.08,3.1-4.18,4.82-6.13,1.94-2.19,3.36-4.82,5.73-6.63C248.44,70.79,247.7,72.22,248,73.52Z"/><path class="cls-1" d="M322.76,215.16c-.13-3.4.75-6.68,1.17-10,.71-5.58,1.61-11.13,2.39-16.69.3-2.22-1.56-3.46-2.52-5.09,1.12-2,2.86-3.38,4.37-5,.7-.76,1.1,0,1.5.44q1.93,2,3.85,4.13c-3.83,4.09-2,8.82-1.37,13.35.82,6.13,1.83,12.24,2.74,18.36a1.18,1.18,0,0,1-.37.09,39.65,39.65,0,0,0-11.2-.13c-.08,0-.14.22-.22.33Z"/><path class="cls-1" d="M312.91,99.37c-4.91,1.91-7.06,5.88-8.1,10.73a53.72,53.72,0,0,0-.43,19.42c-.92-.38-1.14.63-1.7,1l-.14-.12a.83.83,0,0,0-.58-.73l-.25-.57-.26-.45a11.52,11.52,0,0,0-8.84-7.4c0-2.49,0-5-.1-7.47l-.07-1.29a50.06,50.06,0,0,0,9.49-11c.34-.58.65-.83,1.32-.38,1.69,1.12,3.1.38,4.37-.79,2.37-2.19,3.28-5,3.58-8.15H312C312.9,94.45,312.68,96.9,312.91,99.37Z"/><path class="cls-1" d="M95.18,168.62c-.05-.44-.09-.92-.12-1.34,1.2-2.68,1-5.6,1.32-8.42.84-6.68,1.56-13.38,2.5-20.05.75-5.32,1.83-10.61,1.83-16a4.66,4.66,0,0,1,.51-2l1.17.21,2.69,1.59a2.5,2.5,0,0,1-.52,1.58c-2.13,3.29-2.89,7-3.48,10.81-.77,5-.17,9.84.48,14.75-1.28.83-.85,2.15-.84,3.27a8.85,8.85,0,0,0,2.43,6.19c1.91,1.93,2.15,4.3,2.3,6.77-.71,2.12-2.06,3-4.39,2.8C99.1,168.58,97.12,168.93,95.18,168.62Z"/><path class="cls-1" d="M41.32,169.82v1.68L41.15,178c-.26.09-.54.15-.8.25-3.81,1.41-3.81,1.41-6.27-1.75-4.17-5.38-6.2-11.66-7.68-18.17a.47.47,0,0,0-.06-.4V157c1.46.61,2.88,1.61,4.48.28.43-.36.82,0,1,.36,2.54,4.26,6,7.71,9.44,11.22C41.3,169.2,41.31,169.51,41.32,169.82Z"/><path class="cls-1" d="M62.21,177.71c-1-2.61-.19-5.36-.53-8V169a54.68,54.68,0,0,0,9.62-11.35c.25-.41.67-.72,1-.4,1.65,1.4,3.14.26,4.68-.21-.14,2.57-1.39,4.81-2.19,7.19-.46,1.38-1.61,2.51-1.42,4.11-2.07,2.1-2.88,5.08-4.93,7.2-.09.1-.15.25-.23.36C65.87,179.08,65.87,179.08,62.21,177.71Z"/><path class="cls-1" d="M306,141a38.76,38.76,0,0,1,1.48,5c.76,4.79,4.09,7.68,7.48,10.56.67.57,1.66.92,1.68,2H297.46l-.25-.47c2-1.83,3.9-3.72,5.85-5.57,2.56-2.42,2.57-2.42-.35-4.36-1.59-1.06-3.16-2.14-4.77-3.16-1.12-.7-1-1.14.16-1.65,2.12-.92,4.21-2,6.31-3Z"/><path class="cls-1" d="M280.55,132.62c4.57.4,7.76-1.94,10.35-5.41.5-.67,1.06-1.3,1.59-1.95-.73,5.17-1.42,10.35-2.21,15.54-.74,4.88-1.59,9.74-2.4,14.62-.78-2.69-.91-5.48-1.59-8.23a49,49,0,0,0-5.14-13A9.16,9.16,0,0,1,280.55,132.62Z"/><path class="cls-1" d="M73.43,168.36c-.19-1.6.92-2.74,1.42-4.11.79-2.38,2.05-4.62,2.19-7.19.84-1.77,2.32-3.18,2.88-5.1,1.3,3,1.07,6.27,1.69,9.37.4,2-.17,4.13,1.12,5.94.25.65-.21,1-.58,1.39A43.83,43.83,0,0,1,73.43,168.36Z"/><path class="cls-1" d="M340,160.4l.13-1.22c-1.64-.23-2.56,1.12-3.71,1.83-5.06,3.18-10,3.8-15.15.12-1.27-.91-2.53-2-4.19-2.37l.25,1.17a6.38,6.38,0,0,1,.67.38,6.38,6.38,0,0,0-.67-.38c-.22,1.48-.46,2.91.61,4.24q4.89,6,9.68,12c.92,1.12,1.44,1.15,2.36-.07,2.8-3.72,5.64-7.42,8.68-11A5,5,0,0,0,340,160.4Z"/><path class="cls-1" d="M194.57,196a10.15,10.15,0,0,1,2.88-2c0-.57.08-1.13.12-1.7a2,2,0,0,0-1.59.46,18.39,18.39,0,0,1-4.13,2.53c-3.47,2-7,2.41-10.66.35l-6.61-3.73,0,1.22v3.81A106.15,106.15,0,0,1,184,208.16c2,2.64,1.89,2.75,4,.27.5-.59,1-1.19,1.49-1.77,2.74-3.19,5.06-6.71,8-9.72v-3A10,10,0,0,0,194.57,196Z"/><path class="cls-1" d="M154.13,73.06c-.85-.7-.8-1.66-.86-2.64-.1-1.27.48-2.63-.48-3.79l.11-1.76c-1.1.62-2.18,1.26-3.3,1.83-2.3,1.2-4.48,2.7-7.19,2.92-3.22.27-5.87-1.12-8.52-2.63-1.26-.73-2.21-2-3.85-2v.76c-.43,2.35.36,4.8-.56,7.12.85,1.15.34,2.46.42,3.7a3.29,3.29,0,0,0,.85,2.29,14.44,14.44,0,0,0,18.55,2.5c2.36-1.5,4.31-3.22,3.71-6.47C152.92,74.13,152.73,73.05,154.13,73.06Z"/><path class="cls-1" d="M138.33,179.43l.08-1.56c-1.69.56-3,1.73-4.57,2.61-3.65,2.13-7.39,3.34-11.59,1.22-2.33-1.18-4.42-2.75-6.78-3.87v.87A3.84,3.84,0,0,0,116,183c3.1,4.09,6.4,8,9.59,12,1.08,1.32,1.75,1.12,2.63,0,2.74-3.44,5.48-7,8.32-10.3C138,183.15,138.86,181.59,138.33,179.43Z"/><path class="cls-1" d="M247.15,66.21l-.06-1.66c-1.34.91-2.68,1.78-4,2.64-4.16,2.62-8.39,3.65-12.93.8-1.83-1.14-3.77-2-5.68-3l.06.79c-.59,1.23-.17,2.53-.28,3.79,4,3.93,6.94,8.67,10.68,12.79.91,1,1.28,1,2,0,1.56-2.08,3.1-4.18,4.82-6.13,1.94-2.19,3.36-4.82,5.73-6.63C247.38,68.46,247.86,67.27,247.15,66.21Z"/><path class="cls-1" d="M306,141l-1.58-.56a19.9,19.9,0,0,1-1.75-10c.56-.33.75-1.34,1.7-1,.13,3.37,1.42,6.59,1.33,10,0,.53.47.64.79.91C306.34,140.61,306.18,140.82,306,141Z"/><path class="cls-1" d="M76.36,120.66,78,131.91a2.75,2.75,0,0,1-.22,2.21A41.17,41.17,0,0,0,73.46,122Z"/><path class="cls-1" d="M352.08,140.12c.74-3.66.52-7.41,1.05-11.1a7.88,7.88,0,0,1-1,11.09Z"/><path class="cls-1" d="M164.77,45.85c.12-3.48,1.17-6.79,1.67-10.2,2.56,2.46,1,7.58-.51,9.82C165.67,45.87,165.19,45.84,164.77,45.85Z"/><path class="cls-1" d="M63.64,84.41A22.24,22.24,0,0,1,65,93C62.46,91.42,61.62,86,63.64,84.41Z"/><path class="cls-1" d="M160.2,169l-.09-.92c.75-1.11.33-2.33.28-3.51l.35-.64c.58-.55.72.22,1.06.36-.23,1.9.61,3.65.72,5.48-.41.52-.37,1,.23,1.31l.37,2.06-.27,0c-1.41-.15-1.58-1.52-2.26-2.37v-.64c0-.06.11-.12.09-.14a2.35,2.35,0,0,0-.19-.25h0Z"/><path class="cls-1" d="M312,92.1h-.82c-.3-1.1-.6-2.21-.92-3.32l.76-.86A20.65,20.65,0,0,1,312,92.1Z"/><path class="cls-1" d="M130.81,200.78a5,5,0,0,1-1.63-1.7C130.39,199,130.87,199.64,130.81,200.78Z"/><path class="cls-1" d="M310,77.26c-.67-.5-.6-1.07-.14-1.67A2.07,2.07,0,0,1,310,77.26Z"/><path class="cls-1" d="M163.61,73.83c.33.82.82,1.64.29,2.56A3.36,3.36,0,0,1,163.61,73.83Z"/><path class="cls-1" d="M310.8,85.3c-.62-.57-.42-1.26-.29-2A1.92,1.92,0,0,1,310.8,85.3Z"/><path class="cls-1" d="M309.17,70.89c-.62-.36-.51-.92-.4-1.46A1.36,1.36,0,0,1,309.17,70.89Z"/><path class="cls-1" d="M350.39,144c-.15-.59-.1-1.12.55-1.41C351.15,143.17,351.11,143.69,350.39,144Z"/><path class="cls-1" d="M309.56,73.43c-.42-.2-.55-.46-.15-.81A.62.62,0,0,1,309.56,73.43Z"/><path class="cls-1" d="M292.51,123.49a1.1,1.1,0,0,1-.1-1.53l.1-.1Z"/><path class="cls-1" d="M351.11,140.2H352a1,1,0,0,1-.82.81C351.16,140.77,351.14,140.46,351.11,140.2Z"/><path class="cls-1" d="M164.1,173.19c0,.55-.47.39-.74.54-.19-.17-.36-.35-.54-.53l.26,0Z"/><path class="cls-1" d="M302,129.63a.83.83,0,0,1,.58.73A.7.7,0,0,1,302,129.63Z"/><path class="cls-1" d="M309.8,74.67a1.36,1.36,0,0,1-.13-.24l.09-.11A.29.29,0,0,1,309.8,74.67Z"/><path class="cls-1" d="M26.34,157.91a.47.47,0,0,1,.06.4,1.67,1.67,0,0,1-.18-.28A1.25,1.25,0,0,1,26.34,157.91Z"/><path class="cls-1" d="M313.75,99.16l-.34.18Z"/><path class="cls-1" d="M301.45,128.61l.26.45Z"/><path class="cls-1" d="M32.75,185.05l.18-.19V185a.46.46,0,0,1-.16.07Z"/><path class="cls-1" d="M284.12,201.7c2.23,2,5.19,2.32,7.86,3.26a60.55,60.55,0,0,0,7.54,2,12.11,12.11,0,0,1,9.35,7.66,3.2,3.2,0,0,0,.49.67,53.76,53.76,0,0,1,1.83,14.44c0,1.64-.52,2-2.06,2-15.48-.06-31,0-46.44,0-.76,0-1.6.18-2-.77V207.29l.38-.19,5.74,5.31c.58.53,1.07.92,1.67,0,2.9-4.49,6.29-8.67,8.94-13.34a18.55,18.55,0,0,1,4.07,1.94A5,5,0,0,0,284.12,201.7Z"/><path class="cls-1" d="M235.29,202.43c2.68-.64,4.87-2.32,7.36-3.37,2.68,4.16,5.43,8.27,8,12.49,1,1.72,1.69,1.52,2.89.24,1.5-1.62,3.2-3,5.23-4.95v18.35a29.8,29.8,0,0,1-.21,6.54h-22c-.92-2.86-1.83-5.73-2.81-8.59a14.7,14.7,0,0,0-6.18-7.54,73.57,73.57,0,0,0-9.41-5.66c-.6-.29-1.34-.52-1.58-1.3a7,7,0,0,1,3.24-1.43C225,205.86,230.36,204.79,235.29,202.43Z"/><path class="cls-1" d="M258.53,231.73c.48-2.16.2-4.36.21-6.54.05-5.91,0-11.83,0-18.35-2,1.9-3.72,3.33-5.23,4.95-1.2,1.28-1.83,1.48-2.89-.24-2.56-4.22-5.31-8.33-8-12.49a72.65,72.65,0,0,1,6.9-6.46c1,.16,1.34,1,1.83,1.67,2.51,3.31,5,6.63,7.41,10,.81,1.15,1.38,1.3,2.19.14.35-.51.69-1.05,1.07-1.54l8.35-10.59,7.09,6.75c-2.65,4.67-6,8.85-8.94,13.34-.6.92-1.08.51-1.66,0q-2.87-2.67-5.75-5.31c-.32-.3-.37-.11-.37.19V231A2.29,2.29,0,0,1,258.53,231.73Z"/><path class="cls-1" d="M323.12,214.94c.09-.11.15-.32.23-.33a39.65,39.65,0,0,1,11.2.13C330.75,215.41,326.93,215,323.12,214.94Z"/><path class="cls-1" d="M148.63,213v-.33a6.47,6.47,0,0,1,3.55-1.89C151.05,211.66,150.29,213,148.63,213Z"/><path class="cls-1" d="M166.67,203.78a2.07,2.07,0,0,1-.44.34c-.81.37-1.63.71-2.44,1-.06-.18-.22-.45-.15-.54A2.88,2.88,0,0,1,166.67,203.78Z"/><path class="cls-1" d="M164.32,85.74c.27,2.87.52,5.75.81,8.63.05.51-.15,1.4.61,1.34s.6-1,.6-1.55V88.67c.11-5.59,1.1-11,4.51-15.59,2.47-3.35,6.11-4.1,9.82-2.16l5,2.75c3.66,2.06,7.74,2.14,11.76,1.77,2.35-.22,4.11-1.83,5.6-3.55,1-1.16,1.53-1.08,2.28.26a50.8,50.8,0,0,1,5.33,16.45c.31,1.83-.5,3.66-.38,5.48.05.72-.34,1.65.81,1.9-1.23,1.78-1.54,3.91-1.94,5.94-.92,4.57-3.84,7.53-7.21,10.29l-2.43,2-5,3.12c-4,2.54-8.08,3-12.31.54-1.95-1.12-3.92-2.19-5.88-3.29a13.6,13.6,0,0,0-3.31-2.92c-4.29-3.18-6.29-7.64-7.25-12.7a5.47,5.47,0,0,0-1.43-2.74,9.94,9.94,0,0,1-2.66-8.36,3.82,3.82,0,0,1,1.83-3Z"/><path class="cls-1" d="M101.53,149.7c-.65-4.91-1.25-9.8-.48-14.75.6-3.8,1.35-7.52,3.48-10.81a2.51,2.51,0,0,0,.53-1.58,1.68,1.68,0,0,0,1.45-1.54,28.62,28.62,0,0,1,9.58-6,30.89,30.89,0,0,1,18.06-.53A39.22,39.22,0,0,1,145,119.11a27.6,27.6,0,0,0,5.32,1.93,19.82,19.82,0,0,1,5.12,11.41c.46,6.23-.83,12.21-2.56,18.13-1.19,1.06-1,2.95-2.54,4.14a24.53,24.53,0,0,0-1.18-13.59c-2.44-6.32-6.12-9-12.8-8.22-4.87.57-9.82.34-14.62,1.66a15.21,15.21,0,0,1-11.13-1.2c-1.22-.62-1.53.13-2,.75-4.67,5.95-6.13,12.74-5.11,20.11a4.57,4.57,0,0,1,0,2.74A27.68,27.68,0,0,1,101.53,149.7Z"/><path class="cls-1" d="M183.08,127.88a40.14,40.14,0,0,0-6.8-8.5c-.06.15-.12.29-.19.43v.25a8.21,8.21,0,0,1-1.53,3.56c1.39,0,1.4,1.64,1.33,5.8C178.34,129.26,180.65,128.29,183.08,127.88Z"/><path class="cls-1" d="M199.33,116.33l.16-2.16-5,3.12c-4,2.54-8.08,3-12.31.55-1.95-1.13-3.92-2.2-5.88-3.29v4.82a39.83,39.83,0,0,1,6.8,8.5,46.2,46.2,0,0,1,9.69.35c-.15-1,.55-1.69,1.16-2.33,2-2.09,3.37-4.68,5.48-6.64l.14-.84Z"/><path class="cls-1" d="M100.26,112.33c-1.09.65-2.18,1.29-3.25,2-5.08,3.27-10.27,4-15.65.69a3.19,3.19,0,0,0-1.93-.76h0a.71.71,0,0,1-.74-.56l-.92-.36c-.84,1.15-.18,2.48-.45,3.66,3.54,4.3,7.12,8.59,10.62,12.94.8,1,1.19,1,2,0,3.31-4.23,6.7-8.4,10-12.59.65-1.14.38-2.36.31-3.56A1.08,1.08,0,0,0,100.26,112.33Z"/><path class="cls-1" d="M111.78,94.16c.84-3.76.61-7.64,1.31-11.42.91.23,1.28,1,1.58,1.83C115.83,87.49,114.39,92.2,111.78,94.16Z"/><path class="cls-1" d="M164.32,85.74l-.83-.91V77.44C164.64,80.14,164.34,83,164.32,85.74Z"/><path class="cls-1" d="M106.52,121a1.68,1.68,0,0,1-1.46,1.54L102.37,121C103.78,120.59,105.13,121.1,106.52,121Z"/><path class="cls-1" d="M249,54.69c-2.88,0-5.56-.12-8.23,0s-5-1-7.75-.24c-2.55.73-5.48.24-8.22.29h-2.14C225.26,49.82,245.65,49.62,249,54.69Z"/><path class="cls-1" d="M249.48,156.71c2.54-2.92,4.06-6.4,5.75-9.85a22,22,0,0,1,5.3-7.31c3.27-2.74,8.22-3.56,10.72,1.71a14.6,14.6,0,0,0,5.1,5.86c6.92,4.57,7.79,11.27,6.7,18.69-.09.62-.21,1.25-.29,1.88a3.4,3.4,0,0,0,.18.78c1.77-1.62,2-3.77,2.66-5.69.24-.67,0-1.83,1.07-1.78.92,0,1.45.79,1.83,1.6,1.58,3.48-1.09,10.32-4.57,11.74a2.35,2.35,0,0,1-2.05.12c-1.47-1-2.07-.12-2.75,1-2.34,3.83-5.59,6.89-8.75,10a.82.82,0,0,0-.74.9h0a.86.86,0,0,0-.92.43h0a5,5,0,0,0-2.24,1.09c-3.81,2.35-7.67,3-11.77.64-1.37-.78-2.55-2-4.25-2.15h0a.81.81,0,0,0-.65-.91c-3.44-3.36-6.88-6.72-9.35-10.9-.4-.69-.85-.75-1.57-.32a3.1,3.1,0,0,1-3.56-.41c-2.81-1.93-4.75-7.09-3.9-10.4a4.09,4.09,0,0,1,.66-1.53c.83-1,1.65-1.37,2.22.29a13.09,13.09,0,0,0,2.8,4.74c.34-1.57-.26-2.75-.35-3.94a14.7,14.7,0,0,1,0-3.38c.42-2.46,1.54-3.17,4-2.5-2.29.85-3.16,2-2.09,3.17,1.55,1.71,1.49,3.73,1.83,5.7s.92,3.88,2.68,5.1a9,9,0,0,0,12.61-2.22,8.83,8.83,0,0,0,1.1-2.11c.36-1,.68-2,1.11-3a2.33,2.33,0,0,1,2.41-1.38,2.19,2.19,0,0,1,2.11,1.49c.33.85.53,1.76.82,2.62,1,3,2.69,5.49,6,5.82,6,.6,9.85-1.28,10.64-7.45.17-1.36.16-2.9,1.36-3.9a2.38,2.38,0,0,0,.76-2.68c-.29-1-1.3-1-2.1-1.12a35.9,35.9,0,0,0-13.89.53,17.23,17.23,0,0,1-7.74.72Z"/><path class="cls-1" d="M229.25,171c-5.83-.45-11.66-.23-17.48-.13.12-.74.27-1.49.35-2.24.23-2,.57-4-1.08-5.67.56-6.4.81-12.8-.46-19.09-1-5-3-9.38-8.34-11.23a4.81,4.81,0,0,1-2.74-2.17,19,19,0,0,1,.38-5.05c.38-2.52.36-2.55,2.57-1.52,10.82,5,21.8,9.8,31.08,17.63a3.76,3.76,0,0,0,1.34,2.34,55.72,55.72,0,0,0-2.15,11.95,8.41,8.41,0,0,1-1.32,3.75A14.42,14.42,0,0,0,229.25,171Z"/><path class="cls-1" d="M199.86,120.51a2,2,0,0,1-.42-1.26c-2.14,2-3.53,4.57-5.49,6.65a2.83,2.83,0,0,0-1.16,2.33c2.32.58,4.41,1.83,6.79,2.23a19,19,0,0,1,.37-5.05c.2-1.32.29-2,.66-2.12A11.22,11.22,0,0,1,199.86,120.51Z"/><path class="cls-1" d="M249.48,156.71l8.94,1.69a17.55,17.55,0,0,0,7.75-.72,35.51,35.51,0,0,1,13.89-.53c.8.1,1.83.09,2.1,1.11a2.38,2.38,0,0,1-.76,2.68c-1.21,1-1.19,2.54-1.36,3.9-.79,6.17-4.64,8-10.64,7.45-3.35-.34-5-2.82-6-5.81-.29-.87-.49-1.78-.82-2.62a2.18,2.18,0,0,0-2.11-1.49,2.31,2.31,0,0,0-2.41,1.38c-.43,1-.75,2-1.11,3a9.05,9.05,0,0,1-11.6,5.42,9.17,9.17,0,0,1-2.11-1.09c-1.77-1.23-2.34-3.09-2.68-5.1s-.26-4-1.83-5.71c-1.07-1.17-.2-2.32,2.09-3.17C243.71,157.06,246.57,156.45,249.48,156.71Zm-8.07,6.47c0,5.94,2.89,8.8,8.38,8.22,3.31-.32,6.08-3.34,7-7.55.61-2.95-.22-4.44-3.1-5.28-2.54-.74-5.12-.51-7.75-.49-4.07,0-4.4,1.88-4.49,5.1Zm31.15-5.31a16.67,16.67,0,0,0-6.14,1,3.79,3.79,0,0,0-2.68,2.74c-.79,3.44,2.21,8.92,5.31,9.62,5.09,1.15,8.85-1.18,9.8-6.06,1.15-5.93,0-7.28-6.29-7.26Z"/><path class="cls-1" d="M272.12,121.32c.21,1.32-.29,2.57-.38,3.87l-4.86-1.26C268.41,122.62,270.33,122.1,272.12,121.32Z"/><path class="cls-1" d="M233.56,141.52c.91-1.73,1.73-3.47,3.36-4.65a37,37,0,0,1-2,7A3.76,3.76,0,0,1,233.56,141.52Z"/><path class="cls-1" d="M270.33,186.38l-.72,0a.82.82,0,0,1,.72-.91h0C270.34,185.75,270.34,186.06,270.33,186.38Z"/><path class="cls-1" d="M250.52,186.34H250a.77.77,0,0,1-.12-.92A.83.83,0,0,1,250.52,186.34Z"/><path class="cls-1" d="M192.77,128.23c2.31.58,4.4,1.83,6.78,2.23a4.81,4.81,0,0,0,2.74,2.17c5.37,1.83,7.31,6.24,8.34,11.23,1.27,6.32,1,12.71.45,19.09-.5,3.43-1.63,6.75-1.66,10.25h0c-1.1.15-1.18-.62-1.06-1.33,1.41-8.41-3.66-15.13-5.84-22.6-.11-.36-.12-1.14-.92-.57-2,1.47-4.08.7-6,0-3.47-1.18-6.87-2.58-10.32-3.8a20.08,20.08,0,0,0-8.35-1.07c-4,.33-6.5,2.3-7.48,6.26-1,4.16-3.41,7.73-4.86,11.7-.22.66-.37,1.35-.55,2a.75.75,0,0,0-.31.87,3.45,3.45,0,0,0,0,2.06A1.15,1.15,0,0,0,164,168l.13,5.13h-1c-.13-.69-.25-1.37-.37-2.06a1.24,1.24,0,0,0-.23-1.3c-.11-1.83-.91-3.66-.72-5.49a2.36,2.36,0,0,0-.28-1.83c-.17-6.06-.61-12.11.91-18.12a19.71,19.71,0,0,1,11.88-13.89c.58-.25,1.26-.32,1.53-1,2.49-.15,4.8-1.12,7.23-1.53A45.63,45.63,0,0,1,192.77,128.23Z"/><path class="cls-1" d="M164,168.06a1.15,1.15,0,0,1-.31-1.28C164.4,167.05,164.52,167.48,164,168.06Z"/><path class="cls-1" d="M163.65,164.71a.74.74,0,0,1,.31-.86C164.48,164.36,164.14,164.53,163.65,164.71Z"/><path class="cls-1" d="M310.33,88.78c.29,1.11.59,2.22.91,3.31-.29,3.11-1.2,6-3.57,8.15-1.27,1.17-2.69,1.91-4.37.79-.68-.45-1-.2-1.33.38a50,50,0,0,1-9.48,11c-1,0-1.65.68-2.36,1.22-2.74,2.06-5.62,3.66-9.2,3s-6.3-2.57-9-4.66A43,43,0,0,1,263,101.88c-.51-.79-.82-1.62-2-.62a2.59,2.59,0,0,1-2.82-.13c-3.27-1.71-5.61-7.89-4.26-11.32.2-.51.3-1.22,1-1.23s.56.71.8,1.11c1.1,1.83,1.57,4,3.38,6.08-.12-3.3-.78-6-.7-8.72.09-3.21,1.11-4.06,4.09-2.86,5.48,2.2,7.75.91,10.73-4.12,1.73-2.91,3.05-6,4.57-9.09a21.09,21.09,0,0,1,1.38-2.62c1.5-2.27,3.38-2.32,4.76.07,1.47,2.57,2.61,5.32,4,7.95a55,55,0,0,0,3,5.36c2.16,3.37,4.57,4.16,8.33,2.89,5-1.7,5.48-1.39,5.31,4a31.92,31.92,0,0,1-.2,3.38,21.57,21.57,0,0,0-.29,3.4c1.66-1.67,2.4-3.85,3.28-5.9.58-1.35,1.23-2,2.67-1.16l.44.45Z"/><path class="cls-1" d="M292.51,121.86a3.65,3.65,0,0,1,.1-.65c0-2.49,0-5-.1-7.47h0a8,8,0,0,0-.07-1.29c-1,0-1.64.68-2.36,1.22-2.74,2.06-5.62,3.66-9.2,3s-6.3-2.57-9-4.66l.28,1.67h0v7.6c.21,1.32-.29,2.57-.38,3.87l.1.06h0a31.08,31.08,0,0,1,8.7,7.36c4.57.4,7.76-1.94,10.35-5.4.5-.68,1.06-1.31,1.59-2v-1.77a1.09,1.09,0,0,1-.07-1.53Z"/><path class="cls-1" d="M310.33,88.77l-.44-.45Z"/><path class="cls-1" d="M62.21,177.71c-1-2.61-.19-5.36-.53-8h0V169c-2,.67-3.53,2.25-5.48,3.08-2.29,1-4.51,1.66-7.1.91-2.41-.73-4.35-2.28-6.62-3.21H41.27V171a1.4,1.4,0,0,1,.13.34l-.13.15L41.11,178a9,9,0,0,0,.91,4.51A7.11,7.11,0,0,0,44,185.42c4.68,5.36,11,4.47,14.91-.37a21.67,21.67,0,0,1,1.83-1.76,6.61,6.61,0,0,0,.92-3.93A1.63,1.63,0,0,1,62.21,177.71Z"/><path class="cls-1" d="M78,135c.06,0,.16,0,.19.09.73,1,1.64,8.55,1.16,9.67-.18-.22-.37-.44-.56-.65A32.07,32.07,0,0,1,78,135Z"/><path class="cls-1" d="M41.32,169.82v-.91a1.56,1.56,0,0,1,1.23.91Z"/><path class="cls-1" d="M211.47,95.53c.09-3.3,1-6.46,1.6-9.68A8.32,8.32,0,0,1,211.47,95.53Z"/><path class="cls-1" d="M211,96l.46-.47Z"/><path class="cls-1" d="M117.66,147.27a28.69,28.69,0,0,1,2.91.55,23.61,23.61,0,0,0,13.53,0c4.21-1.24,8.55-.78,12.8-.29,1.94.22,2.79,1.83,1.55,3.1-1.54,1.6-1.63,3.54-2,5.43-.91,4.46-3.12,6.3-8.23,6.71-3.8.32-6.65-1.62-8-5.49-.33-.91-.55-1.89-.91-2.82a2.5,2.5,0,0,0-4.69-.2c-.56,1.37-1,2.8-1.65,4.11-2.44,4.73-9.13,6-13.35,2.74-2-1.52-2.15-3.7-2.47-5.85-.24-1.59-.32-3.12-1.55-4.47-1-1.13-.32-2.56,1.24-3,.92-.23,1.83-.33,2.69-.5h7.64Zm-2.21.91c-6.64,0-7.81,1.32-7.1,7.57V156a5.6,5.6,0,0,0,4.57,5.41c6,1.68,9.35-1.83,10.65-7.74.55-2.52-.44-3.8-2.91-4.57a20.54,20.54,0,0,0-5.21-.89Zm23.76-.05a19.74,19.74,0,0,0-6.45,1.19,3.73,3.73,0,0,0-2.44,4,11,11,0,0,0,.91,3.47c1.58,3.65,3.75,5.17,7.08,4.9,4.29-.34,6.22-2,7.14-6.19,1.28-5.73-.06-7.4-6.25-7.45Z"/><path class="cls-1" d="M110,147.26h-.43C109.72,147.07,109.86,147.05,110,147.26Z"/><path class="cls-1" d="M117.66,147.27h-.43C117.39,147,117.53,147.06,117.66,147.27Z"/><path class="cls-1" d="M111.24,83a33.28,33.28,0,0,1-3.81,17.36,24.86,24.86,0,0,1-5.79,7.11c-.27-.15-.46-.21-.48-.29a10.73,10.73,0,0,0-10-9.19,17.53,17.53,0,0,0-11.68,3.27c-1.34.91-1.75,2.36-2.12,3.79a32,32,0,0,0-.53,3.36c-2.18-1.69-4.11-3.3-5.29-5.48-3-5.69-5.73-11.64-5.95-18.16-.14-4.2,1.41-8.32,2.85-12.31a33.18,33.18,0,0,1,3-6.06c.41-.69.76-1.23,1.5-.25,4.08,5.49,11.16,5,17.1,2.75,2.15-.82,4.1-2.2,6.21-3.19,4.13-1.93,8-1.82,10.86,3a25.84,25.84,0,0,1,3.66,10.52,2,2,0,0,1-.36,1.38c-4.87-.91-9.77-1.58-14.62-.16a21.83,21.83,0,0,1-11.89.12,34.63,34.63,0,0,0-14.51-.32c-1.7.28-2.59,1.82-1.56,2.85,1.63,1.7,1.49,3.75,1.83,5.69.73,4.22,2.55,6,7.06,6.49,4.07.47,7.43-1.4,8.74-4.82.47-1.25,1-2.48,1.5-3.66a2.44,2.44,0,0,1,2.54-1.55A2.33,2.33,0,0,1,91.69,87c.35,1,.6,2,.92,3a7.48,7.48,0,0,0,8.22,5.28c4.76-.38,7-2.24,7.89-6.5a22.4,22.4,0,0,0,.45-2.28A4.12,4.12,0,0,1,111.24,83Z"/><path class="cls-1" d="M111.24,83a4.12,4.12,0,0,0-2.1,3.45,22.59,22.59,0,0,1-.45,2.29c-.91,4.26-3.12,6.12-7.88,6.5A7.48,7.48,0,0,1,92.58,90c-.37-1-.61-2-.91-3a2.33,2.33,0,0,0-2.17-1.74A2.43,2.43,0,0,0,87,86.74c-.52,1.21-1,2.45-1.5,3.65-1.31,3.43-4.67,5.29-8.74,4.83-4.5-.51-6.33-2.27-7.06-6.49-.33-2-.18-4-1.83-5.7-1-1-.14-2.56,1.56-2.85a35,35,0,0,1,14.52.32,21.7,21.7,0,0,0,11.88-.12c4.87-1.41,9.77-.71,14.62.17A3.23,3.23,0,0,1,111.24,83Zm-9.57-2.3a19,19,0,0,0-5.85.8,4.19,4.19,0,0,0-3,2.69c-1.35,4.17,2.83,10,7.19,10,4.87,0,7.59-2.58,8-7.65.4-4.57-.34-5.48-4.84-5.86a13,13,0,0,0-1.52,0Zm-24.16.09c-6.74,0-8,1.64-6.71,8.06v.21c.37,2.74,2,4.23,4.57,4.9,5.14,1.37,9.72-2,10.45-7.69.34-2.68-.46-3.93-3-4.79a18,18,0,0,0-5.27-.69Z"/><path class="cls-1" d="M89.86,113.76a16.84,16.84,0,0,1-9.08-2.56,1.52,1.52,0,0,1-.73-.71c-.71-2,1.24-5.73,3.37-6.34,1.68-.5,3.48-.65,5.07-1.46.51-.25.92,0,1.41.12a32.41,32.41,0,0,0,3.24.92c3.74.86,4.69,2,4.88,5.74a1.38,1.38,0,0,1-.79,1.36C94.64,112.44,91.89,113.72,89.86,113.76Z"/><path class="cls-1" d="M79.4,114.2a.7.7,0,0,1-.74-.56C79,113.69,79.31,113.8,79.4,114.2Z"/><path class="cls-1" d="M120.16,231.34c.59.38.59.8.09,1.25Z"/><path class="cls-1" d="M160.39,164.53c.05,1.18.47,2.4-.28,3.51C159.32,166.83,159.76,165.68,160.39,164.53Z"/><path class="cls-1" d="M161.52,162.44a2.34,2.34,0,0,1,.28,1.83c-.34-.14-.48-.92-1.06-.36C160.34,163.07,161.07,162.83,161.52,162.44Z"/><path class="cls-1" d="M160.2,169l.3.83A.7.7,0,0,1,160.2,169Z"/><path class="cls-1" d="M160.52,169.8a1.12,1.12,0,0,1,.19.24l-.09.14A.86.86,0,0,1,160.52,169.8Z"/><path class="cls-1" d="M41.32,171.5V171a1.38,1.38,0,0,1,.12.34Z"/><path class="cls-1" d="M162.52,169.79a1.24,1.24,0,0,1,.23,1.3C162.15,170.75,162.11,170.31,162.52,169.79Z"/><path class="cls-1" d="M260.76,207.26c0-.3.05-.5.37-.19Z"/><path class="cls-1" d="M209.37,173.2c0-3.5,1.16-6.82,1.67-10.25,1.65,1.64,1.31,3.66,1.08,5.67-.08.75-.23,1.5-.35,2.24C210.71,171.38,210.63,172.89,209.37,173.2Z"/><path class="cls-1" d="M270.33,186.38l-.71,0a.9.9,0,0,1-.85.42h0a4.93,4.93,0,0,0-2.25,1.09c-3.8,2.34-7.67,3-11.76.64-1.37-.79-2.55-2-4.25-2.15H250c-.27,2.08.41,4.24-.43,6.29,1,.16,1.34,1,1.83,1.67,2.51,3.31,5,6.62,7.41,10,.81,1.14,1.38,1.3,2.19.14.35-.51.69-1.05,1.07-1.55l8.35-10.58Z"/><path class="cls-1" d="M269.63,186.33a.92.92,0,0,1-.91.43A.83.83,0,0,1,269.63,186.33Z"/><path class="cls-1" d="M241.41,163.18c.09-3.18.42-5.06,4.49-5.07,2.63,0,5.21-.25,7.75.49,2.88.84,3.71,2.33,3.1,5.27-.91,4.22-3.65,7.23-7,7.56C244.3,172,241.4,169.1,241.41,163.18Z"/><path class="cls-1" d="M272.56,157.87c6.34,0,7.44,1.33,6.29,7.26-.91,4.88-4.71,7.2-9.8,6.05-3.1-.7-6.1-6.18-5.31-9.62a3.79,3.79,0,0,1,2.68-2.74A16.66,16.66,0,0,1,272.56,157.87Z"/><path class="cls-1" d="M115.45,148.17a20.84,20.84,0,0,1,5.2.84c2.47.81,3.46,2.1,2.91,4.57-1.29,5.9-4.62,9.43-10.64,7.74a5.64,5.64,0,0,1-4.57-5.41v-.21C107.64,149.49,108.81,148.16,115.45,148.17Z"/><path class="cls-1" d="M139.2,148.08c6.19,0,7.5,1.68,6.24,7.4-.91,4.17-2.85,5.85-7.14,6.19-3.33.27-5.48-1.22-7.08-4.9a10.86,10.86,0,0,1-.91-3.46,3.72,3.72,0,0,1,2.44-4A19.75,19.75,0,0,1,139.2,148.08Z"/><path class="cls-1" d="M101.67,80.71h1.48c4.5.38,5.24,1.28,4.84,5.86-.44,5.07-3.15,7.66-8,7.65-4.35,0-8.54-5.86-7.19-10a4.21,4.21,0,0,1,3-2.69A19,19,0,0,1,101.67,80.71Z"/><path class="cls-1" d="M77.51,80.8a18.11,18.11,0,0,1,5.33.69c2.57.86,3.37,2.11,3,4.79C85.15,92,80.56,95.34,75.43,94c-2.57-.67-4.23-2.18-4.57-4.9v-.21C69.49,82.44,70.77,80.83,77.51,80.8Z"/></g></g></svg>