<svg id="Layer_1" data-name="Layer 1" xmlns="http://www.w3.org/2000/svg" viewBox="0 0 59.82 59.82"><path class="cls-1" d="M538.38,965.52a24.68,24.68,0,0,1-12.16-2.64,10.43,10.43,0,0,1-4-3.55,3.61,3.61,0,0,1-.67-2.12c0-1.9,0-3.79,0-5.68a.56.56,0,0,0-.35-.58c-1.2-.57-2.4-1.17-3.59-1.77-.28-.14-.37-.09-.37.23,0,1.17-.06,2.34,0,3.51a13.21,13.21,0,0,0,.46,2c.68,2.74,1.38,5.46,2,8.2a.9.9,0,0,1-.39,1.07,5.17,5.17,0,0,1-6-.13.7.7,0,0,1-.28-.76c.29-1.69.77-3.34,1.17-5s.81-3.27,1.22-4.9a2.33,2.33,0,0,0,.08-.59q0-2.21,0-4.41a.53.53,0,0,0-.33-.55c-1.28-.64-2.58-1.24-3.82-2a1.69,1.69,0,0,1-.93-1.06,1.47,1.47,0,0,1,.8-1.75c2.83-1.47,5.66-3,8.5-4.4q8.05-4.11,16.13-8.17a4.42,4.42,0,0,1,4.15,0c5,2.45,9.91,5,14.84,7.51q4.92,2.54,9.81,5.11a1.48,1.48,0,0,1,0,2.66c-2,1.16-4.14,2.2-6.23,3.26L554.57,951a.48.48,0,0,0-.32.51c0,1.82,0,3.64,0,5.46a5.07,5.07,0,0,1-1.32,3.29A13.87,13.87,0,0,1,547,964,24.38,24.38,0,0,1,538.38,965.52Zm-19.25-17.61a.55.55,0,0,0,.3.26c5.7,2.91,11.39,5.84,17.1,8.73a3,3,0,0,0,2.73,0c3.27-1.65,6.53-3.33,9.79-5,4.65-2.37,9.3-4.74,13.91-7.18a1,1,0,0,0,.44-.31l-.85-.45c-7.49-3.91-15-7.71-22.54-11.58a4.7,4.7,0,0,0-2.48-.63,1.49,1.49,0,0,0-.69.1l-22.42,11.47c-.7.35-1.39.73-2.07,1.09a.29.29,0,0,0,.16.19,39.36,39.36,0,0,0,3.85,1.91.81.81,0,0,0,.51,0c4.32-.78,8.64-1.63,13-2.47,1.75-.34,3.5-.67,5.23-1.09a1.58,1.58,0,0,0,.81-.44A1.72,1.72,0,0,1,537,942a7.15,7.15,0,0,1,1.79,0,2,2,0,0,1,1.7,1.47,1.71,1.71,0,0,1-1.32,1.62l-.18,0a3.89,3.89,0,0,1-2.8-.27,1.11,1.11,0,0,0-.78-.12l-13.42,2.6Zm18.75,15.89h.64a22.28,22.28,0,0,0,9.82-2.25,9.27,9.27,0,0,0,3.4-2.58,2.81,2.81,0,0,0,.7-1.61c.08-1.64,0-3.27,0-4.9,0-.36-.08-.35-.36-.21-2.1,1.08-4.19,2.15-6.3,3.21s-4.11,2.14-6.22,3.09a4,4,0,0,1-3.43,0c-1.56-.69-3.07-1.5-4.59-2.27q-4-2-8-4.07c-.28-.14-.36-.12-.35.21,0,1.43,0,2.87,0,4.3a3.69,3.69,0,0,0,1.22,2.78,11.25,11.25,0,0,0,3.64,2.38A22.87,22.87,0,0,0,537.88,963.8Zm-21.53-6.88c-.15.08-.14.2-.17.31l-.54,2.09c-.26,1.08-.52,2.16-.76,3.24-.11.51-.07.56.44.71a3.68,3.68,0,0,0,2.13,0c.31-.08.39-.24.32-.54-.16-.65-.29-1.31-.45-2C517,959.46,516.68,958.19,516.35,956.92Z" transform="translate(-510.3 -930)"/><path class="cls-1" d="M552.69,984.54c-.08.43-.13.75-.21,1.07-.13.51-.37.61-.82.32a10.45,10.45,0,0,1-1.63-1.41.47.47,0,0,0-.68-.08c-1,.57-2,1.15-3.09,1.65-.2.1-.39.2-.59,0a.55.55,0,0,1-.15-.65c.24-.67.48-1.33.71-2,0-.14.18-.3.06-.41s-.26,0-.39.06c-4,1.29-7.87,2.74-11.73,4.34-1.45.6-2.9,1.21-4.36,1.79a7.2,7.2,0,0,1-8.84-2.67,8.19,8.19,0,0,1-.64-1,.32.32,0,0,0-.51-.15c-.37.18-.75.34-1.13.5a.87.87,0,0,1-1.3-.57,6.44,6.44,0,0,1-.39-1.67,15.23,15.23,0,0,1,0-4,7.36,7.36,0,0,1,5.92-6.17c3-.57,6-1,8.94-1.58,5.93-1.09,11.87-2.17,17.69-3.74,4.08-1.11,8.14-2.25,12.21-3.39a6.07,6.07,0,0,1,6.32,1.48,7,7,0,0,1,2,5.8,7.21,7.21,0,0,1-1.25,3.67,5.25,5.25,0,0,1-3.17,2.22l-5.76,1.29q-1.14.25-2.25.54c-.39.1-.42.17-.2.51.37.59.78,1.16,1.15,1.75.16.25.43.54.24.85s-.58.22-.89.18q-1.11-.12-2.22-.3a.39.39,0,0,0-.49.26,21.17,21.17,0,0,1-1.19,2.5c-.11.19-.22.41-.48.41s-.4-.23-.5-.44S552.84,984.93,552.69,984.54Zm-24.25-10.27a2.4,2.4,0,0,0,.7.54c2.87,1.87,5.72,6,4.24,10.79,0,.09-.1.21,0,.28s.21,0,.31-.06c4.34-1.78,8.76-3.37,13.22-4.81a.63.63,0,0,0,.43-.41c.31-.82.63-1.63,1-2.44a.78.78,0,0,0,0-.6,4,4,0,0,1,.51-4.39.33.33,0,0,0,0-.5,4,4,0,0,0-3.13-1.51,11.88,11.88,0,0,0-2.52.29c-4.28.83-8.55,1.69-12.84,2.47C529.68,974,529.09,974.15,528.44,974.27Zm40-2.73a6,6,0,0,0-.23-1.67c-.72-2.42-2.82-4.43-6.11-3.47s-6.38,1.81-9.57,2.7l-2.77.77c-.12,0-.42.07-.12.28a7,7,0,0,1,1.69,1.79.85.85,0,0,0,.41.36,4,4,0,0,1,2.77,3.4,2.68,2.68,0,0,0,.41,1.07c.33.5.68,1,1,1.48a.32.32,0,0,0,.4.16c3-.8,6-1.37,9-2.09a3.28,3.28,0,0,0,1.72-1.07A6,6,0,0,0,568.48,971.54ZM524.77,975c-2.46,0-4.08.81-5.18,2.54a8.24,8.24,0,0,0-.88,6.2.23.23,0,0,0,.11.19c.21.08.81-.31.82-.54,0-.45,0-.9,0-1.34a5,5,0,0,1,3.2-4.6,5.21,5.21,0,0,1,4.55.63,5.7,5.7,0,0,1,3,5.77,3.24,3.24,0,0,1-3.72,3,4.59,4.59,0,0,1-3.1-1.61,3.92,3.92,0,0,1-.94-3.43,1.1,1.1,0,0,1,.16-.46,2.33,2.33,0,0,1,3.45-.68,3.58,3.58,0,0,1,.93,1,.47.47,0,0,0,.67.24l.35-.13c.27-.09.3-.22.16-.47a4.75,4.75,0,0,0-2.91-2.32,3,3,0,0,0-4,2,4.73,4.73,0,0,0,.24,3.54,5.78,5.78,0,0,0,6.75,3.3,5,5,0,0,0,3.57-3.93,7.26,7.26,0,0,0-.77-4.35A7.94,7.94,0,0,0,524.77,975Zm24.77.81a2.22,2.22,0,0,0,1,1.8,1.45,1.45,0,0,0,2.27-.8,2.38,2.38,0,0,0-1.52-2.94.94.94,0,0,0-.62,0A1.79,1.79,0,0,0,549.54,975.84Zm2,4.21c.07-.22-.07-.36-.39-.42a5.91,5.91,0,0,1-1-.29c-.33-.14-.47,0-.59.27-.38,1-.75,2-1.06,3-.06.2-.23.47-.07.58s.37-.13.54-.24c1.08-.65,1-.66,1.92.12l0,0c.21.22.3.12.33-.14C551.3,982,551.41,981.1,551.53,980.05Zm-22.79,3.41c-.47.19-.9.38-1.34.54a.86.86,0,0,1-1.29-.64,2.66,2.66,0,0,0-.68-1.14.71.71,0,0,0-.91-.22.72.72,0,0,0-.3.85,3,3,0,0,0,2.49,2.42A1.64,1.64,0,0,0,528.74,983.46Zm26.51-2.33h.37c.2,0,.29-.06.16-.26-.52-.84-1.1-1.63-1.68-2.42-.07-.09-.16-.19-.26,0a3,3,0,0,1-1.05.87c-.13.09-.19.18-.13.34a28.71,28.71,0,0,0,1.06,2.71c.08.16.17.18.25,0s.19-.41.27-.62C554.5,981.11,554.56,981.07,555.25,981.13Z" transform="translate(-510.3 -930)"/></svg>