<svg id="Layer_1" data-name="Layer 1" xmlns="http://www.w3.org/2000/svg" viewBox="0 0 43.9 43.75"><circle class="cls-1" cx="21.9" cy="21.38" r="20"/><path class="cls-2" d="M540.29,982.1a21.88,21.88,0,1,1,21.88-22A21.88,21.88,0,0,1,540.29,982.1Zm-9.4-9.9c1.81.56,2.9-.45,4-1.61,3-3.09,6.08-6.11,9.13-9.16,4.2-4.2,4.2-4.2-.21-8.11-.05-.05-.11-.1-.15-.15-.46-.56-.86-.61-1.42-.06-4.47,4.52-9,8.95-13.44,13.54-1.32,1.38-.68,3.4-.41,5C528.61,972.8,530.07,972,530.89,972.2Zm18.55-16.12a27.23,27.23,0,0,0,2.56-2.84c.53-.81-.15-1.49-.75-2.07s-1.38-1.31-2-2c-1.09-1.24-2-.95-3.11.05-1.55,1.33-1.88,2.34-.06,3.67a24,24,0,0,1,2.5,2.44C548.81,955.55,549.08,955.76,549.44,956.08Z" transform="translate(-518.27 -938.35)"/></svg>