<svg id="Layer_1" data-name="Layer 1" xmlns="http://www.w3.org/2000/svg" viewBox="0 0 20.57 18.54"><path class="cls-1" d="M529.88,960.21c0-2,0-4,0-6a3.08,3.08,0,0,1,3.3-3.28h6.75a3.08,3.08,0,0,1,3.29,3.3c0,.6,0,1.2,0,1.81a1,1,0,0,1-1,1,1,1,0,0,1-1-1.06c0-.6,0-1.21,0-1.81,0-.84-.36-1.21-1.2-1.21h-6.85c-.87,0-1.23.35-1.23,1.24q0,3.38,0,6.75c0,1.7,0,3.4,0,5.1,0,.95.34,1.29,1.28,1.29h6.75c.9,0,1.25-.35,1.25-1.27,0-.58,0-1.17,0-1.75a1,1,0,0,1,1-1.06,1,1,0,0,1,1,1c0,.7,0,1.39,0,2.09a3,3,0,0,1-3,3q-3.65.06-7.29,0a3,3,0,0,1-3-3.11C529.87,964.31,529.88,962.26,529.88,960.21Z" transform="translate(-529.88 -950.95)"/><path class="cls-1" d="M546.77,961.24H535.36a2.4,2.4,0,0,1-.65-.07.93.93,0,0,1-.71-1,.94.94,0,0,1,.7-.94,2.14,2.14,0,0,1,.71-.06H546.8l.05-.12c-.39-.38-.78-.75-1.16-1.14a1,1,0,1,1,1.42-1.46c1,1,2,2,2.95,2.95a1,1,0,0,1,0,1.6l-3,3a1,1,0,1,1-1.44-1.46c.38-.38.78-.75,1.17-1.13Z" transform="translate(-529.88 -950.95)"/></svg>