<svg id="Layer_1" data-name="Layer 1" xmlns="http://www.w3.org/2000/svg" viewBox="0 0 47.77 47.23"><defs><style>.cls-1{fill:#7a7574;}</style></defs><path class="cls-1" d="M529,943.44c.3,2.34-.49,3.28-2.47,3.11-1.76-.15-3.5-.43-5.25-.66-1-.12-1.43-.86-1.93-1.55-.38-.51-.78-1-1.42-1.83-.24,3.3-.45,6.24-.67,9.19-.3,4-.57,8-.91,12a3.36,3.36,0,0,1-3.67,3.4c-.59,0-1.18,0-1.76,0a3.31,3.31,0,0,1-3.42-3.15c-.31-3.25-.56-6.5-.77-9.76a2.33,2.33,0,0,0-1.42-2.27,3.19,3.19,0,0,1-1.86-3.12c0-3.21-.05-6.42,0-9.63a4.56,4.56,0,0,1,4-4.52c.69-.1,1.07,0,1.28.77.43,1.53,1,3,1.46,4.55,1.14-.66-.39-2.89,1.84-2.75,2,.13.46,2.07,1.58,2.73.45-1.37,1-2.76,1.33-4.19.29-1.13.9-1.28,1.87-1a3.76,3.76,0,0,1,2.19,1.51c.62.94,1.32,1.82,2,2.74,1.1,1.58,2.07,3.32,4.65,2.9-.56,1.41-1.38,2.85.3,3.6S528.19,944.8,529,943.44Z" transform="translate(-499.64 -919.88)"/><path class="cls-1" d="M502.32,949.73a3.9,3.9,0,0,1-2.65-3.85c0-7.28-.05-14.56,0-21.83a4,4,0,0,1,4.34-4.16q19.5,0,39,0a4.07,4.07,0,0,1,4.35,4.33q.06,10.75,0,21.51c0,2.69-1.74,4.3-4.52,4.31q-11.48,0-23,0c-.62,0-1.45.31-1.38-.91.06-1,.15-1.55,1.4-1.54,7.12.07,14.24,0,21.35,0H543a1.7,1.7,0,0,0,1.92-1.86q0-10.75,0-21.51a1.75,1.75,0,0,0-1.86-2c-.64,0-1.29,0-1.93,0h-36.6c-1.92,0-2.47.54-2.48,2.48q0,10.28,0,20.55C502.09,946.72,502.82,948.1,502.32,949.73Z" transform="translate(-499.64 -919.88)"/><path class="cls-1" d="M511.9,924.71a4.15,4.15,0,0,1,4.19,4.14,4.15,4.15,0,1,1-8.29.11A4.16,4.16,0,0,1,511.9,924.71Z" transform="translate(-499.64 -919.88)"/><path class="cls-1" d="M534.29,931.33c-1.3,2.54-2.58,5.08-3.88,7.61-.88,1.71-1.75,3.42-2.67,5.1-.32.57-.83,1.15-1.54.74s-.54-1.16-.17-1.7c2.65-4,5.33-7.93,8-11.89Z" transform="translate(-499.64 -919.88)"/><path class="cls-1" d="M511.83,934.44c.65.43,1.73-.42,1.77.63a1.65,1.65,0,0,1-3.29,0C510.32,933.93,511.46,935.05,511.83,934.44Z" transform="translate(-499.64 -919.88)"/></svg>