<svg id="Layer_1" data-name="Layer 1" xmlns="http://www.w3.org/2000/svg" viewBox="0 0 75.74 33.29"><defs><style>.cls-1,.cls-2{fill:#64c5ba;}.cls-2{font-size:12.02px;font-family:FranklinGothic-Medium, Franklin Gothic Medium;font-weight:500;}.cls-3{letter-spacing:-0.02em;}</style></defs><path class="cls-1" d="M515.1,946.61a13.61,13.61,0,1,1-13.61,13.72A13.61,13.61,0,0,1,515.1,946.61Zm13.16,13.62a13.16,13.16,0,1,0-13.17,13.15A13.19,13.19,0,0,0,528.26,960.23Z" transform="translate(-498.46 -943.58)"/><path class="cls-1" d="M505,948.52c.1,0,.19,0,.22.07s.24.25.39.36a.31.31,0,0,1,0,.48c-.13.15-.29.28-.43.42a.09.09,0,0,1-.15,0l-.66-.73s-.06-.08,0-.12a1.6,1.6,0,0,1,.59-.47Zm.32.62c-.08,0-.29.18-.27.22s.08.15.14.12.22-.12.24-.25S505.42,949.14,505.36,949.14Zm-.45,0a.48.48,0,0,0,.2-.2c0-.06,0-.1-.07-.1a.34.34,0,0,0-.25.2S504.83,949.11,504.91,949.12Z" transform="translate(-498.46 -943.58)"/><path class="cls-1" d="M525.17,971.77a.26.26,0,0,1-.28-.21c0-.08-.06-.13-.16-.14a.35.35,0,0,1-.2-.56,4.57,4.57,0,0,1,.45-.43c.06-.06.1,0,.15,0l.65.73s.08.08,0,.13a2.54,2.54,0,0,1-.54.44A.38.38,0,0,1,525.17,971.77Zm0-.86s-.07-.11-.14-.11-.25.2-.24.25a.1.1,0,0,0,.13.09A.41.41,0,0,0,525.13,970.91Zm.31.35s-.06-.11-.1-.1a.35.35,0,0,0-.23.21s0,.11.09.1A.49.49,0,0,0,525.44,971.26Z" transform="translate(-498.46 -943.58)"/><path class="cls-1" d="M525.5,950a.66.66,0,0,1-.46-.26c-.24-.23-.25-.23,0-.48s.33-.33.48-.5.15-.1.23,0l.21.21a.47.47,0,0,1,.16.59A.76.76,0,0,1,525.5,950Zm.36-.65a.29.29,0,0,0-.17-.26c-.09-.05-.11.06-.16.1l-.25.24c-.07.07-.06.13,0,.18s.15.16.26.1A.63.63,0,0,0,525.86,949.35Z" transform="translate(-498.46 -943.58)"/><path class="cls-1" d="M504.75,970.38a.6.6,0,0,1,.46.27c.27.26.3.16,0,.46-.13.15-.27.29-.41.44s-.19.2-.38,0l-.14-.14c-.21-.21-.26-.38-.14-.61A.71.71,0,0,1,504.75,970.38Zm-.11.94a.15.15,0,0,1,0-.06c.09-.1.19-.19.28-.3s.13-.07.05-.15-.14-.21-.28-.14a.63.63,0,0,0-.31.33A.29.29,0,0,0,504.64,971.32Z" transform="translate(-498.46 -943.58)"/><path class="cls-1" d="M517.22,946l-.39,0c-.1,0-.12-.07-.11-.17,0-.29.1-.59.13-.88,0-.12.07-.14.17-.12l.42.07a.4.4,0,0,1,.36.4.77.77,0,0,1,0,.42C517.66,945.93,517.53,946,517.22,946Zm.28-.57v-.14a.25.25,0,0,0-.25-.23c-.17,0-.12.13-.14.21s0,.23-.05.34,0,.13.1.14S517.49,945.69,517.5,945.43Z" transform="translate(-498.46 -943.58)"/><path class="cls-1" d="M513,974.34c.54,0,.55,0,.49.55,0,.18,0,.36-.07.54s-.06.15-.17.13l-.4,0a.45.45,0,0,1-.38-.37C512.38,974.7,512.62,974.34,513,974.34Zm.2.44c0-.07,0-.15-.06-.18s-.21-.05-.28.06a.56.56,0,0,0-.07.47c0,.13.15.15.26.15s.1-.1.11-.17S513.19,974.89,513.2,974.78Z" transform="translate(-498.46 -943.58)"/><path class="cls-1" d="M508.16,973.79c0-.27,0-.54,0-.8,0-.06,0-.18.09-.16s.24,0,.22.18.1.24.24.31a.15.15,0,0,0,.19,0,.21.21,0,0,1,.11-.08.24.24,0,0,1,.21.08c.06.08,0,.11-.08.15-.2.21-.42.4-.63.61s-.14.13-.27.07-.15-.14-.14-.26,0-.05,0-.07Z" transform="translate(-498.46 -943.58)"/><path class="cls-1" d="M522.13,946.46c0,.31,0,.61-.07.92,0,0,0,.15-.09.13s-.22,0-.2-.16-.09-.25-.22-.31-.16-.06-.23,0-.19.06-.29,0-.07-.06,0-.11l.79-.73c.09-.08.17,0,.25,0S522.12,946.38,522.13,946.46Zm-.32.17c-.07,0-.15.08-.18.17C521.88,946.93,521.77,946.7,521.81,946.63Z" transform="translate(-498.46 -943.58)"/><path class="cls-1" d="M512.77,946.06c-.1,0-.12,0-.13-.11s-.08-.41-.1-.61-.06-.2-.2-.16-.17,0-.19-.12.08-.11.15-.13l.65-.11c.09,0,.15,0,.17.1s0,.15-.12.15-.2.09-.16.24.06.37.1.56S512.9,946.07,512.77,946.06Z" transform="translate(-498.46 -943.58)"/><path class="cls-1" d="M517.27,975.5c-.08,0-.11,0-.12-.11s0-.14.1-.14.22-.09.17-.26a5.4,5.4,0,0,1-.1-.58c0-.1,0-.14.11-.15s.17,0,.19.1.06.41.1.62,0,.2.2.15.16,0,.19.1-.05.14-.14.15Z" transform="translate(-498.46 -943.58)"/><path class="cls-1" d="M500.12,960.56a.35.35,0,0,1-.36-.36.36.36,0,0,1,.36-.36.38.38,0,0,1,.37.37A.36.36,0,0,1,500.12,960.56Z" transform="translate(-498.46 -943.58)"/><path class="cls-1" d="M530.09,960.56a.36.36,0,0,1-.36-.36.37.37,0,0,1,.36-.36.38.38,0,0,1,.37.36A.34.34,0,0,1,530.09,960.56Z" transform="translate(-498.46 -943.58)"/><path class="cls-1" d="M508.86,947.34c-.06,0-.07-.05-.09-.09l-.4-.84c-.05-.1,0-.16.07-.2s.15-.05.2.06l.39.83A.17.17,0,0,1,508.86,947.34Z" transform="translate(-498.46 -943.58)"/><path class="cls-1" d="M521.37,973c.07,0,.08.06.1.1.14.28.27.56.4.83,0,.09,0,.15-.06.2s-.16,0-.21-.08c-.12-.27-.26-.53-.39-.8A.18.18,0,0,1,521.37,973Z" transform="translate(-498.46 -943.58)"/><path class="cls-1" d="M521.85,954.84c0,.63,0,1.26,0,1.89s0,1-.07,1.54c0,.14,0,.21.17.23a1.28,1.28,0,0,1,.31.11.68.68,0,0,1,.42.7,5.08,5.08,0,0,0,0,.78,2.49,2.49,0,0,1-.3,1.39.77.77,0,0,0-.06.3,2.5,2.5,0,0,1-.5,1.69.34.34,0,0,0,0,.22c0,.66,0,1.32,0,2a1,1,0,0,1-.15.54,11.4,11.4,0,0,1-1.64,2c-.83.87-1.72,1.67-2.58,2.5a1.17,1.17,0,0,1-.72.25,12.54,12.54,0,0,1-3,0,1.43,1.43,0,0,1-.88-.38c-1-1-2.1-1.92-3.07-3a9.09,9.09,0,0,1-1.15-1.47,1,1,0,0,1-.17-.59c0-.64,0-1.28,0-1.92a.53.53,0,0,0-.11-.34,1.94,1.94,0,0,1-.39-1.17,2.86,2.86,0,0,0-.27-1.16,1.17,1.17,0,0,1-.1-.55c0-.39,0-.78,0-1.17a.66.66,0,0,1,.33-.62.73.73,0,0,1,.36-.16c.22,0,.23-.12.23-.31-.07-1.76-.12-3.52-.1-5.28a.47.47,0,0,1,.15-.36,19.79,19.79,0,0,1,2-1.86,7.31,7.31,0,0,1,3.12-1.31,7.72,7.72,0,0,1,7.35,2.46l.77.77a.28.28,0,0,1,.1.22c0,.67,0,1.33,0,2Zm-6.72-2.24h-3.4a.28.28,0,0,0-.23.09L510.23,954a.33.33,0,0,0-.11.27v2.41a.57.57,0,0,1-.07.31l-1,1.87a.37.37,0,0,0,0,.29,2.6,2.6,0,0,1,0,1.24,3.2,3.2,0,0,0-.16.68c0,.64,0,1.28,0,1.92a5.15,5.15,0,0,0,.24,1.65,2.46,2.46,0,0,0,1.14,1.63,1.66,1.66,0,0,1,.3.22c.13.14.24.11.4,0,.77-.48,1.53-1,2.33-1.39a1.85,1.85,0,0,1,1.78-.09.29.29,0,0,0,.24,0,1.66,1.66,0,0,1,1-.13,2.83,2.83,0,0,1,.89.34c.73.42,1.45.84,2.16,1.29a.29.29,0,0,0,.4,0c.26-.21.54-.4.81-.6a.53.53,0,0,0,.16-.2,6.08,6.08,0,0,0,.58-2.68c0-.54,0-1.07,0-1.61a1.68,1.68,0,0,0-.08-.59,2.6,2.6,0,0,1,0-1.63.39.39,0,0,0,0-.35c-.34-.61-.66-1.23-1-1.84a.59.59,0,0,1-.07-.29v-2.39a.34.34,0,0,0-.08-.27l-1.29-1.28a.38.38,0,0,0-.31-.12Zm6.18,5.46h0c0-.59.08-1.19.09-1.79,0-1.07,0-2.14,0-3.2a.36.36,0,0,0-.11-.28c-.25-.24-.5-.49-.74-.75a7.19,7.19,0,0,0-2.32-1.69,7.87,7.87,0,0,0-3.8-.62,7,7,0,0,0-4.44,1.95l-1,1a.54.54,0,0,0-.19.43c0,1.33,0,2.66.06,4a9.32,9.32,0,0,0,.05,1c.24-.43.44-.83.65-1.22a.94.94,0,0,0,.12-.49V954a.35.35,0,0,1,.1-.26l1.47-1.46a.31.31,0,0,1,.25-.11h7.24a.31.31,0,0,1,.24.1l1.46,1.46a.39.39,0,0,1,.13.29c0,.84,0,1.67,0,2.5a.36.36,0,0,0,0,.21Zm-4.22,12.3,0,0,1-1a.22.22,0,0,0,.06-.2c0-.34,0-.69,0-1,0-.16,0-.23.23-.24s.22.1.22.25,0,.48,0,.72l.07.05a4.81,4.81,0,0,1,.42-.48.81.81,0,0,0,.33-.78,2.08,2.08,0,0,1,0-.5.28.28,0,0,0-.16-.3c-.8-.48-1.6-1-2.41-1.43a1.47,1.47,0,0,0-1.5-.08.45.45,0,0,1-.45,0,1.42,1.42,0,0,0-1.45.07c-.81.44-1.59.92-2.37,1.4a.21.21,0,0,0-.12.22c0,.33,0,.65,0,1a.49.49,0,0,0,.19.42c.19.16.36.35.55.52a1.05,1.05,0,0,0,.3.25c0-.38,0-.75,0-1.11,0-.14,0-.22.19-.21s.26,0,.26.21c0,.46,0,.93,0,1.39a.26.26,0,0,0,.06.21l.78.72a.2.2,0,0,0,.18,0c.07,0,0-.1,0-.16,0-.59,0-1.18,0-1.77,0-.18.06-.23.22-.23s.22.06.22.23c0,.6,0,1.2,0,1.8,0,.14,0,.2.19.21s.51,0,.76,0,.19-.06.19-.2c0-.52,0-1,0-1.56,0-.16,0-.23.22-.23s.23.05.22.23c0,.52,0,1,0,1.58,0,.12,0,.16.15.15s.51,0,.76,0,.23-.08.23-.25c0-.63,0-1.26,0-1.88,0-.18.09-.18.22-.18s.23,0,.22.18,0,.5,0,.75Zm4.68-7.82a1.77,1.77,0,0,0,.11-.68,1.41,1.41,0,0,1,.11-.57,2,2,0,0,0,.26-1.08c0-.31,0-.61,0-.92a.44.44,0,0,0-.44-.37.07.07,0,0,0-.07.05,2.68,2.68,0,0,0-.09,1.63,2.2,2.2,0,0,1,.12.76C521.76,961.76,521.77,962.15,521.77,962.54Zm-13.35,0h0v-.35a7,7,0,0,1,.18-2,1.81,1.81,0,0,0,0-1c0-.09,0-.21-.16-.25a.44.44,0,0,0-.46.37c0,.37,0,.73,0,1.09a1.13,1.13,0,0,0,.11.55,2.3,2.3,0,0,1,.27,1.2A1.58,1.58,0,0,0,508.42,962.51Zm2.13,5.37c0-.28,0-.51,0-.74a.24.24,0,0,0-.12-.24l-1-.7a.7.7,0,0,1-.25-.29l-.32-.63a1.1,1.1,0,0,0,.05.67A11,11,0,0,0,510.55,967.88Zm9.34-.21a9.2,9.2,0,0,0,1.39-1.72,1.06,1.06,0,0,0,0-.53,1,1,0,0,0-.12.26,1.2,1.2,0,0,1-.51.64c-.24.16-.46.34-.69.51a.19.19,0,0,0-.11.17Z" transform="translate(-498.46 -943.58)"/><path class="cls-1" d="M514.86,972.12c0,.36-.1.49-.31.47a.23.23,0,0,1-.22-.18.73.73,0,0,1,0-.44.24.24,0,0,1,.25-.22.26.26,0,0,1,.27.21A.6.6,0,0,1,514.86,972.12Zm-.21.07s0-.06,0-.07,0-.17,0-.17-.07.11-.08.17a.08.08,0,0,0,0,0c0,.09,0,.23.08.23S514.63,972.25,514.65,972.19Z" transform="translate(-498.46 -943.58)"/><path class="cls-1" d="M516.52,972.16c0-.28.09-.4.29-.4s.28.13.28.4-.1.43-.29.43S516.52,972.46,516.52,972.16Zm.36,0c0-.07,0-.21-.08-.21s-.06.13-.06.21,0,.22.07.22S516.86,972.25,516.88,972.17Z" transform="translate(-498.46 -943.58)"/><path class="cls-1" d="M513.52,972.39c.07.05.23,0,.23.11s-.16.06-.25.09h-.06c-.08,0-.2.06-.24-.05s.06-.19.13-.26l.19-.2s.05-.08,0-.12-.09,0-.12,0a.11.11,0,0,1-.19,0c-.05-.07,0-.14.06-.19a.34.34,0,0,1,.4,0,.27.27,0,0,1,0,.37A1.51,1.51,0,0,1,513.52,972.39Z" transform="translate(-498.46 -943.58)"/><path class="cls-1" d="M515.69,972.4h.14c.06,0,.12,0,.12.09s0,.1-.11.1h-.29c-.06,0-.13,0-.15-.05a.16.16,0,0,1,.05-.16c.07-.09.16-.17.24-.26s.09-.11,0-.17-.09,0-.13,0a.11.11,0,0,1-.17,0s0-.11,0-.16a.32.32,0,0,1,.41-.05.24.24,0,0,1,.06.34A2.53,2.53,0,0,1,515.69,972.4Z" transform="translate(-498.46 -943.58)"/><path class="cls-1" d="M514.2,960.67c0,.88,0,1.76,0,2.64,0,.17,0,.25.23.23a.7.7,0,0,1,.71.27c0,.06.09.05.14,0,.3-.4.74-.29,1.14-.27.15,0,.06.18.08.28s0,.14-.12.14H516c-.28,0-.39.07-.46.35s-.11.17-.24.17-.34,0-.39-.25a.33.33,0,0,0-.38-.26H514c-.21,0-.27-.07-.25-.26v-.08c0-1.7,0-3.41,0-5.11,0-.18,0-.24-.23-.24h-3.11a.26.26,0,0,0-.26.16c-.05.1-.13.2-.17.3s-.12.15-.24.07-.24-.13-.09-.37a1.51,1.51,0,0,0,.1-.17c.12-.37.38-.44.75-.43,1.14,0,2.29,0,3.44,0,.17,0,.21,0,.21.22C514.19,958.92,514.2,959.8,514.2,960.67Z" transform="translate(-498.46 -943.58)"/><path class="cls-1" d="M518.28,957.76h1.79a.24.24,0,0,1,.27.15q.13.29.3.57c.1.17-.07.17-.14.23s-.18.12-.24,0l0,0c-.11-.38-.37-.46-.75-.45-1,0-2,0-3,0a.24.24,0,0,1-.22-.37c0-.08.12-.06.19-.06Z" transform="translate(-498.46 -943.58)"/><path class="cls-1" d="M518.42,959.77h-1.35c-.16,0-.2-.06-.2-.21s0-.24.19-.23h2.75c.16,0,.16.1.15.2s0,.25-.16.24Z" transform="translate(-498.46 -943.58)"/><path class="cls-1" d="M511.59,960h-1.35c-.15,0-.2-.06-.2-.21s0-.24.21-.24H513c.18,0,.17.1.18.23s0,.23-.19.22Z" transform="translate(-498.46 -943.58)"/><path class="cls-1" d="M515.37,957.81c0,.36,0,.73,0,1.09,0,.14,0,.22-.19.21s-.26,0-.25-.22c0-.6,0-1.21,0-1.81v-.39a.24.24,0,0,1,.37-.24c.09,0,.07.12.07.18Z" transform="translate(-498.46 -943.58)"/><path class="cls-1" d="M515.24,966.89h-2.38c-.18,0-.21-.06-.21-.22s0-.22.2-.22h4.8c.18,0,.19.08.19.21s0,.23-.2.23Z" transform="translate(-498.46 -943.58)"/><path class="cls-1" d="M515.25,967.43c.28,0,.56,0,.83,0s.2.05.18.18.06.26-.15.26l-1.68,0c-.22,0-.19-.14-.2-.27s.06-.18.2-.18h.82Z" transform="translate(-498.46 -943.58)"/><path class="cls-1" d="M515.1,976.87a16.59,16.59,0,1,1,6.48-1.31A16.49,16.49,0,0,1,515.1,976.87Zm0-32.9a16.26,16.26,0,1,0,16.25,16.25A16.27,16.27,0,0,0,515.1,944Z" transform="translate(-498.46 -943.58)"/><text class="cls-2" transform="translate(36.74 21.04)">BIT<tspan class="cls-3" x="16.32" y="0">D</tspan><tspan x="23.89" y="0">AD</tspan></text></svg>