<svg id="Layer_1" data-name="Layer 1" xmlns="http://www.w3.org/2000/svg" viewBox="0 0 36.97 52.84"><defs><style>.cls-1{fill:#7a7574;}</style></defs><path class="cls-1" d="M549.36,933.74c1.24,1.23,2.5,2.46,3.73,3.71.26.27.41.3.69,0,1.09-1.1,2.2-2.16,3.29-3.25a.91.91,0,0,1,1.64.71v50.6c0,.42-.07.83-.48,1a1.05,1.05,0,0,1-1.19-.3c-1.06-1.12-2.16-2.19-3.23-3.3-.28-.31-.45-.34-.76,0-1.06,1.1-2.15,2.16-3.23,3.23-.59.6-1,.6-1.59,0q-1.63-1.62-3.26-3.27c-.27-.28-.43-.27-.69,0-1.07,1.1-2.17,2.18-3.26,3.27-.6.59-1,.58-1.59,0-1.1-1.09-2.19-2.17-3.27-3.27-.24-.26-.39-.28-.64,0-1,1.06-2.07,2.08-3,3.18a1.19,1.19,0,0,1-2,0c-1-1.08-2.08-2.07-3.09-3.13-.32-.33-.48-.28-.77,0-1,1.09-2.12,2.13-3.15,3.23a1.11,1.11,0,0,1-1.27.37c-.46-.17-.48-.63-.48-1.08q0-24,0-47.91c0-.84,0-1.68,0-2.53,0-.47.07-.9.56-1.09a1,1,0,0,1,1.12.37c1.08,1.07,2.18,2.12,3.25,3.21.28.28.43.25.7,0,1.23-1.25,2.48-2.48,3.72-3.71h.66c1.25,1.23,2.5,2.46,3.73,3.71.27.28.42.28.69,0,1.23-1.25,2.48-2.48,3.73-3.71h.66c1.24,1.23,2.49,2.46,3.72,3.71.27.28.43.28.7,0,1.22-1.25,2.48-2.48,3.72-3.71Zm7.57,3.06-2.68,2.64c-.63.61-1,.61-1.64,0-1.07-1.07-2.16-2.14-3.22-3.23-.3-.31-.45-.28-.73,0-1.06,1.09-2.15,2.16-3.22,3.23-.62.62-1,.61-1.63,0-1-1-2.1-2.06-3.11-3.12-.35-.37-.55-.43-.93,0-1,1.05-2,2.06-3.06,3.08-.71.7-1.06.7-1.75,0-1.05-1-2.11-2.09-3.15-3.15-.29-.3-.46-.34-.77,0-1.08,1.13-2.19,2.22-3.3,3.32a.88.88,0,0,1-1.43,0c-.52-.5-1-1-1.53-1.51l-1.25-1.23v46.69c.07,0,.11,0,.13,0l2.55-2.59c.61-.62,1-.62,1.63,0,1.09,1.08,2.19,2.16,3.25,3.27.34.35.5.3.8,0,1-1.07,2-2.12,3.05-3.17.69-.71,1.06-.72,1.74,0,1.07,1.06,2.14,2.12,3.19,3.2.29.31.45.27.73,0,1-1.08,2.12-2.14,3.18-3.2.67-.66,1-.66,1.71,0,1,1,2,2,3,3,.38.4.6.46,1,0,.84-.92,1.75-1.77,2.63-2.66,1.25-1.24,1.31-1.23,2.57,0,.71.72,1.46,1.41,2.2,2.12Z" transform="translate(-521.74 -933.74)"/><path class="cls-1" d="M549,957.36a1.82,1.82,0,0,1,0,.33c-.09.48.12.67.58.83a4.11,4.11,0,0,1,2.74,3.82.87.87,0,1,1-1.73.12,3.82,3.82,0,0,0-.14-.81,2.45,2.45,0,0,0-4.76,1,2.43,2.43,0,0,0,2.28,2.21,4.24,4.24,0,0,1,4.24,3.25,4.15,4.15,0,0,1-2.75,4.93c-.37.12-.49.28-.47.65a10.45,10.45,0,0,1,0,1.37.87.87,0,1,1-1.74,0,5.57,5.57,0,0,0,0-1.69c-.19-.52-1-.47-1.4-.8a4.16,4.16,0,0,1-1.86-3.43.84.84,0,0,1,.8-.93.87.87,0,0,1,.92.82c0,.23,0,.48.1.7a2.45,2.45,0,1,0,2.42-3.12,4.19,4.19,0,0,1-1.41-8.16c.4-.14.51-.32.48-.69a11.22,11.22,0,0,1,0-1.16.87.87,0,1,1,1.74,0C549,956.88,549,957.12,549,957.36Z" transform="translate(-521.74 -933.74)"/><path class="cls-1" d="M538.08,947.81h-8.52a1.22,1.22,0,0,1-.79-.18.84.84,0,0,1-.31-.93.8.8,0,0,1,.69-.62,2,2,0,0,1,.49,0H546.9c.61,0,1,.35,1,.86s-.4.88-1,.88Q542.48,947.83,538.08,947.81Z" transform="translate(-521.74 -933.74)"/><path class="cls-1" d="M533.78,953.11H538c.68,0,1,.31,1.07.85s-.37.9-1.07.9h-8.46c-.67,0-1-.31-1.06-.85s.37-.89,1.06-.9Z" transform="translate(-521.74 -933.74)"/><path class="cls-1" d="M533.73,961.9h-4.12c-.8,0-1.19-.3-1.18-.89s.39-.85,1.16-.85h8.24c.8,0,1.2.29,1.19.88s-.4.86-1.16.86Z" transform="translate(-521.74 -933.74)"/><path class="cls-1" d="M532.6,968.94h-3.14c-.66,0-1-.32-1-.87s.37-.87,1-.87h6.33a.88.88,0,1,1,0,1.74Z" transform="translate(-521.74 -933.74)"/></svg>