<svg fill="#c0c1c2" id="Layer_1" data-name="Layer 1" xmlns="http://www.w3.org/2000/svg" viewBox="0 0 52.86 73.98"><path class="cls-1" d="M550,997.21c-1.68-1.75-1.63-4.61-3.43-5-1.48-.34-3.37,1.1-5.61,1.94,1.7-4.76,3.22-9,4.83-13.57H524.23c-4,0-4.13,0-4-4,.07-2-.46-2.69-2.53-2.63-3.9.11-3.91,0-3.91-4q0-21.5,0-43c0-3.64,0-3.68,3.72-3.68l33.28,0c3.19,0,3.61.21,3.35,3.27-.24,2.81.92,3.39,3.33,3.08s3.2.68,3.16,3.07c-.12,7.34,0,14.68-.07,22,0,.56.43,1.55-.52,1.62s-1-.9-1-1.68c0-6.92-.08-13.83,0-20.74,0-2-.59-2.58-2.6-2.56q-16,.13-32,0c-2.05,0-2.55.62-2.54,2.59q.12,21.12,0,42.23c0,2.15.6,2.75,2.72,2.7,5.37-.15,10.75,0,16.12-.08a11.84,11.84,0,0,1,7.25,2.53c1.27.89,3.39,2,5.38,1.3s1.78.34,1.38,1.49C553.23,988.36,551.63,992.64,550,997.21Zm-34.47-48.59c0,7.07.07,14.14,0,21.22,0,1.93.4,2.65,2.51,2.65s2.28-.91,2.27-2.61c-.05-12.27,0-24.54,0-36.82,0-3.16.33-3.49,3.52-3.49,8.86,0,17.72-.06,26.58,0,1.91,0,2.24-.71,2.2-2.38s-.13-2.49-2.14-2.48q-16.36.13-32.72,0c-1.93,0-2.2.74-2.19,2.39C515.53,934.3,515.49,941.46,515.48,948.62Z" transform="translate(-513.8 -923.23)"/><path class="cls-1" d="M557.82,980.35c-3,1.9-6.37,1-9.29-.45a12.13,12.13,0,0,1-6.26-7.72,11.62,11.62,0,0,1,1.77-9.93,12.25,12.25,0,0,1,5.84-4.56,12.54,12.54,0,0,1,9.85.6,11.83,11.83,0,0,1,6.26,7.83,12.23,12.23,0,0,1-1.23,8.79C564,976.21,559.71,980.39,557.82,980.35ZM554,978.56a9.48,9.48,0,1,0-9.36-9.51A9.62,9.62,0,0,0,554,978.56Z" transform="translate(-513.8 -923.23)"/><path class="cls-1" d="M566.65,991.57c-2-.28-3.65-2.2-5.07-1.51-1.25.6-1.77,2.72-2.81,4.49-1.13-3-2.26-5.79-3.16-8.62a3.15,3.15,0,0,1,3.14-4,2.13,2.13,0,0,0,2.1-1.06c1-1.43,1.63-.82,2.08.39C564.18,984.62,565.38,988,566.65,991.57Z" transform="translate(-513.8 -923.23)"/><path class="cls-1" d="M540.66,941.12c4.61,0,9.22,0,13.82,0,.71,0,1.81-.22,1.81.85s-1.09.89-1.81.89q-13.82,0-27.63,0c-.77,0-2.05.22-2-.94s1.28-.78,2-.79C531.45,941.1,536.06,941.12,540.66,941.12Z" transform="translate(-513.8 -923.23)"/><path class="cls-1" d="M533.67,954.43h-7.39c-.68,0-1.5.06-1.57-.86-.09-1.15.85-1.07,1.6-1.07h15c.71,0,1.51,0,1.58.87.08,1.07-.84,1.07-1.61,1.07Z" transform="translate(-513.8 -923.23)"/><path class="cls-1" d="M547.39,946.81h7.39c.68,0,1.52,0,1.53.89s-.78,1-1.48,1h-15.3c-.72,0-1.46-.15-1.38-1.07s1-.8,1.59-.81C542.29,946.8,544.84,946.81,547.39,946.81Z" transform="translate(-513.8 -923.23)"/><path class="cls-1" d="M532.61,960.1h-6.38c-.64,0-1.5.18-1.56-.82s.61-1.1,1.38-1.1h13.27c.77,0,1.39.28,1.31,1.16s-.81.74-1.38.74C537,960.11,534.82,960.1,532.61,960.1Z" transform="translate(-513.8 -923.23)"/><path class="cls-1" d="M532,965.8c-2,0-3.92,0-5.88,0-.64,0-1.5.16-1.48-.89,0-.79.68-.94,1.28-.94q6.13,0,12.26,0c.71,0,1.45.17,1.35,1.12s-.86.69-1.4.7C536.11,965.82,534.07,965.8,532,965.8Z" transform="translate(-513.8 -923.23)"/><path class="cls-1" d="M551.3,952.49h3.81c.65,0,1.24.23,1.22,1s-.62.94-1.26.94c-2.55,0-5.09,0-7.63,0a1,1,0,0,1-1.09-.85c-.07-.77.47-1,1.13-1C548.75,952.48,550,952.49,551.3,952.49Z" transform="translate(-513.8 -923.23)"/><path class="cls-1" d="M529.55,946.82h3.55c.56,0,1,.21,1.14.76a.91.91,0,0,1-.89,1c-2.61.06-5.23.07-7.84,0a.92.92,0,0,1-.86-1.07c.05-.64.55-.77,1.1-.76Z" transform="translate(-513.8 -923.23)"/><path class="cls-1" d="M546.3,969a7.84,7.84,0,1,1,7.75,7.93A8,8,0,0,1,546.3,969Z" transform="translate(-513.8 -923.23)"/></svg>