<svg id="Layer_1" data-name="Layer 1" xmlns="http://www.w3.org/2000/svg" viewBox="0 0 55.06 41.7"><defs><style>.cls-1{fill:#f2f2f2;}.cls-2{fill:#64c5ba;}</style></defs><path class="cls-1" d="M259.12,934.3a4.58,4.58,0,1,1-4.53,4.75A4.59,4.59,0,0,1,259.12,934.3Z" transform="translate(-221.11 -912.48)"/><path class="cls-1" d="M256.9,950.75c-.19.12-.24.08-.24-.13v-5c0-.18,0-.24.23-.18a6.89,6.89,0,0,0,4.55,0c.15-.05.23-.05.23.15,0,1.7,0,3.41,0,5.11a.86.86,0,0,1,0,.17l-1.46-.86-.35-.2a1.21,1.21,0,0,0-1.33,0C258,950.13,257.43,950.43,256.9,950.75Z" transform="translate(-221.11 -912.48)"/><path class="cls-2" d="M249.45,936.58a1.19,1.19,0,0,1,.3,2.34,1.5,1.5,0,0,1-.37,0H243v-2.37Z" transform="translate(-221.11 -912.48)"/><path class="cls-1" d="M248.62,929.09h14a1.2,1.2,0,0,0,1.3-1.28v-3.93a1.21,1.21,0,0,0-1.34-1.33H234.71a1.2,1.2,0,0,0-1.3,1.3v3.87a1.22,1.22,0,0,0,1.38,1.39Zm1.13,9.83a1.19,1.19,0,0,0-.3-2.34H236.53a1.18,1.18,0,0,0-1.23,1.21,1.2,1.2,0,0,0,1.25,1.16h12.83A1.5,1.5,0,0,0,249.75,938.92Zm9.3-7H236.6a1.2,1.2,0,0,0-1.32,1.19,1.16,1.16,0,0,0,1.12,1.18h17.17c.09,0,.19,0,.29.06a8.28,8.28,0,0,0-.87,1.31,7,7,0,0,0,1.1,8l.09.09a.29.29,0,0,1,.09.31c0,.15-.17.09-.26.09H231.83a.37.37,0,0,1-.43-.31,4.93,4.93,0,0,0-3.29-3.32c-.25-.08-.34-.18-.34-.44q0-8.45,0-16.9a.36.36,0,0,1,.29-.41,4.91,4.91,0,0,0,3.34-3.31.39.39,0,0,1,.46-.32h33.63a.32.32,0,0,1,.37.26,5,5,0,0,0,3.39,3.38.33.33,0,0,1,.26.38c0,3,0,6,0,8.93,0,2.66,0,5.33,0,8a.38.38,0,0,1-.31.44,5,5,0,0,0-3.35,3.38c-.06.18-.13.25-.31.24-.39,0-.78,0-1.16,0-.11,0-.26.09-.33-.08s.05-.27.15-.37a6.7,6.7,0,0,0,1-1.4,7,7,0,0,0-3.54-9.88A7.24,7.24,0,0,0,259.05,931.91Z" transform="translate(-221.11 -912.48)"/><path class="cls-2" d="M236.53,936.58H243V939h-6.47a1.2,1.2,0,0,1-1.25-1.16A1.18,1.18,0,0,1,236.53,936.58Z" transform="translate(-221.11 -912.48)"/><path class="cls-1" d="M236.06,924.91h22.51c.88,0,1.75,0,2.62,0,.26,0,.32.09.31.33a9.91,9.91,0,0,0,0,1.09c0,.3-.06.4-.39.4h-25c-.3,0-.37-.1-.36-.37a11.81,11.81,0,0,0,0-1.19C235.77,924.94,235.87,924.9,236.06,924.91Z" transform="translate(-221.11 -912.48)"/><path class="cls-2" d="M258.57,924.91H236.06c-.19,0-.29,0-.28.25a11.81,11.81,0,0,1,0,1.19c0,.27.06.37.36.37h25c.33,0,.41-.1.39-.4a9.91,9.91,0,0,1,0-1.09c0-.24-.05-.33-.31-.33C260.32,924.92,259.45,924.91,258.57,924.91Zm4,4.17H234.79a1.22,1.22,0,0,1-1.38-1.39v-3.87a1.2,1.2,0,0,1,1.3-1.3h27.83a1.21,1.21,0,0,1,1.34,1.33v3.93A1.2,1.2,0,0,1,262.58,929.08Z" transform="translate(-221.11 -912.48)"/><path class="cls-1" d="M254,948.42H223.92c-.42,0-.42,0-.42-.42V936.66q0-10.74,0-21.48c0-.32.15-.32.38-.32h49.4c.57,0,.51-.1.51.52V948c0,.4,0,.4-.4.4h-8.87c-.47,0-.47,0-.47-.45s0-.81,0-1.22c0-.19.06-.24.25-.24h2.5a1.16,1.16,0,0,0,1.23-1.17,2.68,2.68,0,0,1,2.72-2.69,1.15,1.15,0,0,0,1.14-1.19V921.81a1.17,1.17,0,0,0-1.25-1.19,2.65,2.65,0,0,1-1.73-.7A2.73,2.73,0,0,1,268,918a1.16,1.16,0,0,0-1.28-1.22H230.51a1.16,1.16,0,0,0-1.24,1.19,2.7,2.7,0,0,1-2.12,2.6,5.61,5.61,0,0,1-.59.06,1.19,1.19,0,0,0-1.16,1.25v19.49a1.18,1.18,0,0,0,1.24,1.3,2.68,2.68,0,0,1,2.62,2.62,1.17,1.17,0,0,0,1.3,1.23H254c.26,0,.35.06.33.32,0,.44,0,.88,0,1.32C254.29,948.37,254.21,948.43,254,948.42Z" transform="translate(-221.11 -912.48)"/><path class="cls-2" d="M259.15,943.46a4.58,4.58,0,1,0-4.56-4.41A4.59,4.59,0,0,0,259.15,943.46Zm-2.49,7.16c0,.21,0,.25.24.13.53-.32,1.06-.62,1.58-.94a1.21,1.21,0,0,1,1.33,0l.35.2,1.46.86a.86.86,0,0,0,0-.17c0-1.7,0-3.41,0-5.11,0-.2-.08-.2-.23-.15a6.89,6.89,0,0,1-4.55,0c-.2-.06-.23,0-.23.18Zm-2.76.18H222.51a1.24,1.24,0,0,1-1.4-1.38q0-5.4,0-10.8c0-3,0-6.1,0-9.15q0-7.23,0-14.46c0-.41,0-.81,0-1.22a1.22,1.22,0,0,1,1.33-1.32h52.33a1.24,1.24,0,0,1,1.4,1.4v35.51a1.24,1.24,0,0,1-1.41,1.42H264.35c-.23,0-.32.05-.31.31,0,.57,0,1.14,0,1.71a1.22,1.22,0,0,1-1.93,1.12c-.89-.56-1.81-1.07-2.71-1.61a.45.45,0,0,0-.51,0c-.89.55-1.78,1.07-2.67,1.61a1.22,1.22,0,0,1-2-1.11c0-.54,0-1.08,0-1.62C254.31,950.88,254.22,950.8,253.9,950.8Zm-3.06-2.38H254c.21,0,.29,0,.28-.27,0-.44,0-.88,0-1.32,0-.26-.07-.32-.33-.32H230.56a1.17,1.17,0,0,1-1.3-1.23,2.68,2.68,0,0,0-2.62-2.62,1.18,1.18,0,0,1-1.24-1.3V921.87a1.19,1.19,0,0,1,1.16-1.25,5.61,5.61,0,0,0,.59-.06,2.7,2.7,0,0,0,2.12-2.6,1.16,1.16,0,0,1,1.24-1.19h36.23A1.16,1.16,0,0,1,268,918a2.73,2.73,0,0,0,.88,1.93,2.65,2.65,0,0,0,1.73.7,1.17,1.17,0,0,1,1.25,1.19v19.65a1.15,1.15,0,0,1-1.14,1.19,2.68,2.68,0,0,0-2.72,2.69,1.16,1.16,0,0,1-1.23,1.17h-2.5c-.19,0-.26,0-.25.24,0,.41,0,.81,0,1.22s0,.45.47.45h8.87c.4,0,.4,0,.4-.4V915.38c0-.62.06-.52-.51-.52h-49.4c-.23,0-.38,0-.38.32q0,10.74,0,21.48V948c0,.42,0,.42.42.42h26.92Zm-.28-16.51h8.49a7.24,7.24,0,0,1,2.65.49,7,7,0,0,1,3.54,9.88,6.7,6.7,0,0,1-1,1.4c-.1.1-.21.21-.15.37s.22.08.33.08c.38,0,.77,0,1.16,0,.18,0,.25-.06.31-.24a5,5,0,0,1,3.35-3.38.38.38,0,0,0,.31-.44c0-2.66,0-5.33,0-8,0-3,0-6,0-8.93a.33.33,0,0,0-.26-.38,5,5,0,0,1-3.39-3.38.32.32,0,0,0-.37-.26H231.86a.39.39,0,0,0-.46.32,4.91,4.91,0,0,1-3.34,3.31.36.36,0,0,0-.29.41q0,8.46,0,16.9c0,.26.09.36.34.44a4.93,4.93,0,0,1,3.29,3.32.37.37,0,0,0,.43.31H254c.09,0,.22.06.26-.09a.29.29,0,0,0-.09-.31l-.09-.09a7,7,0,0,1-1.1-8,8.28,8.28,0,0,1,.87-1.31c-.1-.09-.2-.06-.29-.06H236.4a1.16,1.16,0,0,1-1.12-1.18,1.2,1.2,0,0,1,1.32-1.19Z" transform="translate(-221.11 -912.48)"/></svg>