<svg id="Layer_1" data-name="Layer 1" xmlns="http://www.w3.org/2000/svg" viewBox="0 0 78.04 72.07"><defs><style>.cls-1{fill:#f2f2f2;}.cls-2{fill:#34b88a;}</style></defs><path class="cls-1" d="M577.77,963.73v.75l-6.65,3.84v-7.67q3.32-1.93,6.65-3.84Z" transform="translate(-501.2 -924.19)"/><path class="cls-1" d="M577,955.54,571,959l-.64.37-6.65-3.84,6-3.46.65-.38Z" transform="translate(-501.2 -924.19)"/><path class="cls-1" d="M569.66,960.65v7.67l-6-3.46-.65-.38v-7.67l6,3.45Z" transform="translate(-501.2 -924.19)"/><path class="cls-1" d="M562.52,989.67v.76c-2.21,1.27-4.43,2.55-6.64,3.84v-7.68l6.64-3.84Z" transform="translate(-501.2 -924.19)"/><path class="cls-1" d="M562.52,937.79v.75l-6.64,3.83V934.7l6.64-3.84Z" transform="translate(-501.2 -924.19)"/><path class="cls-1" d="M561.79,929.6l-6,3.47-.65.37-6.64-3.84,6-3.47.64-.37Z" transform="translate(-501.2 -924.19)"/><path class="cls-1" d="M561.79,981.48l-6,3.47-.65.37c-2.21-1.28-4.43-2.55-6.64-3.84l6-3.46.64-.37Z" transform="translate(-501.2 -924.19)"/><path class="cls-1" d="M554.42,986.59v7.68l-6-3.47-.65-.37v-7.68q3,1.72,6,3.46Z" transform="translate(-501.2 -924.19)"/><path class="cls-1" d="M554.42,934.7v7.67l-6-3.45-.65-.38v-7.68l6,3.46Z" transform="translate(-501.2 -924.19)"/><path class="cls-1" d="M532.69,989.67v.76c-2.22,1.27-4.43,2.55-6.65,3.84v-7.68l6.65-3.84Z" transform="translate(-501.2 -924.19)"/><path class="cls-1" d="M532.69,937.79v.75L526,942.37V934.7l6.65-3.84Z" transform="translate(-501.2 -924.19)"/><path class="cls-1" d="M532,929.6l-6,3.47-.65.37-6.65-3.84,6-3.47.65-.37Z" transform="translate(-501.2 -924.19)"/><path class="cls-1" d="M532,981.48,526,985l-.65.37-6.65-3.84,6-3.46.65-.37Z" transform="translate(-501.2 -924.19)"/><path class="cls-1" d="M524.58,986.59v7.68q-3-1.74-6-3.47c-.21-.13-.43-.25-.65-.37v-7.68l6,3.46Z" transform="translate(-501.2 -924.19)"/><path class="cls-1" d="M524.58,934.7v7.67l-6-3.45-.65-.38v-7.68l6,3.46Z" transform="translate(-501.2 -924.19)"/><path class="cls-1" d="M516.71,955.54l-6,3.47-.65.37-6.65-3.84,6-3.46.65-.38Z" transform="translate(-501.2 -924.19)"/><path class="cls-1" d="M515.53,952.6l5.33-9.22.62-1.09c1.11.64,2.22,1.29,3.33,1.91l.14.07a.69.69,0,0,0,.73,0q3.55-2,7.09-4.1l1-.58a.76.76,0,0,0,.3-.32.65.65,0,0,0,0-.27s0,0,0,0V935.1H546a.88.88,0,0,0,.29,0c0,1.25,0,2.51,0,3.75V939s0,0,0,0a.65.65,0,0,0,.35.59l5.19,3c.88.51,1.77,1,2.65,1.53a2.11,2.11,0,0,0,.34.16l.06,0a.69.69,0,0,0,.49,0h0l.1,0c.2-.1.4-.22.6-.34l3-1.73c1.76,3,3.5,6.08,5.26,9.12l.75,1.29a1,1,0,0,0,.27.31l-2.31,1.33a6.71,6.71,0,0,0-1.19.7.85.85,0,0,0-.28.39h0a.86.86,0,0,0,0,.17s0,0,0,.07c0,.78,0,1.57,0,2.36,0,2.26,0,4.54,0,6.82v.14s0,0,0,0a.67.67,0,0,0,.35.6l3.32,1.91-5.62,9.73-.59,1c-.19-.12-.39-.23-.59-.34l-2.65-1.53a1,1,0,0,0-1-.16c-.21.11-.39.23-.6.35l-6.34,3.66a6.58,6.58,0,0,0-1.17.7.79.79,0,0,0-.29.39s0,0,0,0a.41.41,0,0,0,0,.16.14.14,0,0,0,0,.06c0,.79,0,1.59,0,2.37,0,.5,0,1,0,1.5a.9.9,0,0,0-.3,0H534.15v-2.78c0-.36,0-.71,0-1.06,0-.55-.52-.73-.92-1l-4.16-2.4-3.39-2a.73.73,0,0,0-.73,0l-3.37,2-5.39-9.33-.79-1.38,0,0,2.17-1.25,1-.58a.65.65,0,0,0,.36-.6s0,0,0,0v-8.3c0-.35,0-.7,0-1.06,0-.54-.52-.72-.92-.95L515.16,953A.85.85,0,0,0,515.53,952.6Z" transform="translate(-501.2 -924.19)"/><path class="cls-1" d="M517.45,964.48l-6.65,3.84v-7.67c2.22-1.29,4.43-2.57,6.65-3.84v7.67Z" transform="translate(-501.2 -924.19)"/><path class="cls-1" d="M509.34,960.65v7.67l-6-3.46-.65-.38v-7.67l6,3.45Z" transform="translate(-501.2 -924.19)"/><path class="cls-2" d="M577.77,964.48v-7.67q-3.33,1.91-6.65,3.84v7.67Zm-14.11.38,6,3.46v-7.67l-.66-.39-6-3.45v7.67Zm6.08-12.78-6,3.46,6.65,3.84L571,959l6-3.47-6.64-3.84Zm-7.22,30.67-6.64,3.84v7.68c2.21-1.29,4.43-2.57,6.64-3.84v-7.68Zm-6.64-40.38,6.64-3.83v-7.68l-6.64,3.84v7.67Zm-8.11,40.38v7.68l.65.37,6,3.47v-7.68l-.66-.38Q550.78,984.47,547.77,982.75ZM554.5,978l-6,3.46c2.21,1.29,4.43,2.56,6.64,3.84l.65-.37,6-3.47-6.65-3.83Zm0-51.89-6,3.47,6.64,3.84.65-.37,6-3.47-6.65-3.84Zm-6.08,12.79,6,3.45V934.7l-.66-.38-6-3.46v7.68Zm-15.73-.38v-7.68L526,934.7v7.67Zm0,51.89v-7.68L526,986.59v7.68C528.26,993,530.47,991.7,532.69,990.43Zm-8.11-48.06V934.7l-.65-.38-6-3.46v7.68l.65.38Zm0,51.9v-7.68l-.65-.38-6-3.46v7.68c.22.12.44.24.65.37Q521.6,992.53,524.58,994.27Zm.73-16.62-.65.37-6,3.46,6.65,3.84L526,985l6-3.47Zm6.65-48-6.65-3.84-.65.37-6,3.47,6.65,3.84.65-.37Zm-11.1,13.78-5.33,9.22a.85.85,0,0,1-.37.36l2.83,1.63c.4.23.88.41.92.95,0,.36,0,.71,0,1.06v8.3s0,0,0,0a.65.65,0,0,1-.36.6l-1,.58-2.17,1.25,0,0,.79,1.38,5.39,9.33,3.37-2a.73.73,0,0,1,.73,0l3.39,2,4.16,2.4c.4.23.88.41.92,1,0,.35,0,.7,0,1.06v2.78H546a.9.9,0,0,1,.3,0c0-.5,0-1,0-1.5,0-.78,0-1.58,0-2.37a.14.14,0,0,1,0-.06.41.41,0,0,1,0-.16s0,0,0,0a.79.79,0,0,1,.29-.39,6.58,6.58,0,0,1,1.17-.7l6.34-3.66c.21-.12.39-.24.6-.35a1,1,0,0,1,1,.16l2.65,1.53c.2.11.4.22.59.34l.59-1,5.62-9.73-3.32-1.91a.67.67,0,0,1-.35-.6s0,0,0,0v-.14c0-2.28,0-4.56,0-6.82,0-.79,0-1.58,0-2.36,0,0,0-.05,0-.07a.86.86,0,0,1,0-.17h0a.85.85,0,0,1,.28-.39,6.71,6.71,0,0,1,1.19-.7l2.31-1.33a1,1,0,0,1-.27-.31l-.75-1.29c-1.76-3-3.5-6.08-5.26-9.12l-3,1.73c-.2.12-.4.24-.6.34l-.1,0h0a.69.69,0,0,1-.49,0l-.06,0a2.11,2.11,0,0,1-.34-.16c-.88-.52-1.77-1-2.65-1.53l-5.19-3a.65.65,0,0,1-.35-.59s0,0,0,0v-.15c0-1.24,0-2.5,0-3.75a.88.88,0,0,1-.29,0H534.15V939s0,0,0,0a.65.65,0,0,1,0,.27.76.76,0,0,1-.3.32l-1,.58q-3.54,2.05-7.09,4.1a.69.69,0,0,1-.73,0l-.14-.07c-1.11-.62-2.22-1.27-3.33-1.91Zm-11.52,24.94v-7.67l-.66-.39-6-3.45v7.67l.65.38Zm7.37-12.78-6.64-3.84-.65.38-6,3.46,6.65,3.84.65-.37Zm-3,12.78-3.28,1.9a.81.81,0,0,1-.74,0l-.13-.08c-2-1.11-3.94-2.28-5.9-3.41-.68-.39-1.39-.76-2.05-1.18s-.39-1.39-.39-2v-7.33c0-.22,0-.45,0-.68,0,0,0-.06,0-.09a.08.08,0,0,1,0-.05.7.7,0,0,1,.23-.4.27.27,0,0,1,.08-.07l.29-.18,2.64-1.53,5.19-3a.75.75,0,0,1,.74,0l3.39,2h0a.88.88,0,0,1,.12-.5l.76-1.31,5.2-9-1-.59c-.68-.39-1.39-.76-2-1.19s-.39-1.39-.39-2v-7.33c0-.22,0-.46,0-.68a.29.29,0,0,0,0-.09l0-.06a.79.79,0,0,1,.22-.39l.09-.07a1.67,1.67,0,0,1,.28-.18l2.65-1.53,5.2-3a.73.73,0,0,1,.73,0l3.39,2,4.16,2.39c.4.24.88.42.92,1,0,.35,0,.71,0,1.06v2.47H546a1.46,1.46,0,0,1,.31,0V932c0-.78,0-1.57,0-2.36a.25.25,0,0,1,0-.07.45.45,0,0,1,0-.16v0a.73.73,0,0,1,.29-.38,6,6,0,0,1,1.17-.7l6.34-3.67.6-.34a1,1,0,0,1,1,.15c.88.52,1.76,1,2.65,1.53l5.19,3a.71.71,0,0,1,.36.63v.15c0,2.27,0,4.55,0,6.82,0,.78,0,1.57,0,2.36s-1,1-1.52,1.33l-1.78,1,.68,1.17,5.32,9.23a.9.9,0,0,1,.13.4l2.61-1.51c.2-.12.39-.24.59-.34.4-.21.69,0,1,.14l2.64,1.53,5.19,3a.76.76,0,0,1,.37.63v.15c0,2.27,0,4.55,0,6.82,0,.79,0,1.58,0,2.36s-1,1-1.53,1.33l-6.34,3.67c-.2.11-.39.24-.59.34l-.11,0h0a.75.75,0,0,1-.49,0l-.06,0a2.11,2.11,0,0,1-.34-.16l-2.64-1.53-.22-.12c-.25.45-.52.9-.78,1.35l-5.43,9.4,2.94,1.7a.7.7,0,0,1,.36.62v8.72c0,.46.09,1-.36,1.27-.29.2-.62.36-.92.54l-7.19,4.15a.73.73,0,0,1-.73,0l-1-.59-7.09-4.1a.64.64,0,0,1-.35-.59s0,0,0,0v-.15c0-1.13,0-2.28,0-3.42a.88.88,0,0,1-.29.05H534.15v3.52s0,0,0,0a.62.62,0,0,1,0,.27.66.66,0,0,1-.3.32l-1,.59-7.09,4.1a.73.73,0,0,1-.73,0l-.14-.08c-2-1.1-3.93-2.27-5.9-3.41-.68-.39-1.39-.75-2-1.17s-.39-1.4-.39-2v-7.32c0-.23,0-.46,0-.69a.31.31,0,0,0,0-.08l0-.06a.83.83,0,0,1,.22-.39l.09-.08a2.68,2.68,0,0,1,.28-.18l2.65-1.53.17-.09c-.19-.31-.36-.62-.54-.93l-5.64-9.77A.14.14,0,0,1,513.72,968.32Zm-2.92,0,6.65-3.84v-7.67c-2.22,1.27-4.43,2.55-6.65,3.84v7.67Z" transform="translate(-501.2 -924.19)"/></svg>