<svg id="Layer_1" data-name="Layer 1" xmlns="http://www.w3.org/2000/svg" viewBox="0 0 48.58 59.7"><defs><style>.cls-1{fill:#64c5ba;}.cls-2{fill:#f2f2f2;}.cls-3{fill:#34b88a;}</style></defs><path class="cls-1" d="M542.18,909.11a6.29,6.29,0,0,1,2,4.85c0,12.37,0,24.76,0,37.13,0,3.43-.82,4.65-4,5.9H499.56c-3.14-1.21-4-2.46-4-5.88V903.17c0-3.43.82-4.64,4-5.88h29.71a8.44,8.44,0,0,1,3.34,2.26C535.77,902.77,538.94,906,542.18,909.11Zm-1.33,42.49c0-12.37,0-24.75,0-37.12,0-.9-.31-1.13-1.15-1.12-3.14,0-6.28,0-9.42,0-1.82,0-2.27-.45-2.28-2.29,0-3,0-6.1,0-9.15,0-1.09-.3-1.41-1.41-1.4-8.44.05-16.88,0-25.33,0-2.08,0-2.47.39-2.47,2.47v24.13q0,12.14,0,24.27c0,1.74.44,2.26,2,2.26H538.8C540.35,953.7,540.85,953.18,540.85,951.6Zm-9-41.55h6.34c-2.33-2.32-4.52-4.52-6.9-6.9,0,2.18,0,4.19,0,6.21C531.33,909.73,531.39,910.05,531.89,910.05Z" transform="translate(-495.57 -897.29)"/><path class="cls-2" d="M540.88,914.48c0,12.37,0,24.75,0,37.12,0,1.58-.5,2.1-2.05,2.11H500.87c-1.58,0-2-.52-2-2.26q0-12.13,0-24.27V903c0-2.08.39-2.47,2.47-2.47,8.45,0,16.89,0,25.33,0,1.11,0,1.43.31,1.41,1.4-.08,3,0,6.11,0,9.15,0,1.84.46,2.28,2.28,2.29,3.14,0,6.28,0,9.42,0C540.57,913.35,540.88,913.58,540.88,914.48Zm-6.55,13.68c0-1.72-1.11-1.11-1.87-1.13-2.11-.06-2.12,0-2.12-2.06s0-2-2.06-2c-.86,0-1,.32-1,1.08,0,.93.31,2.15-.15,2.7s-1.83.15-2.78.25c-.32,0-.7-.15-.92.29a1.6,1.6,0,0,0,1.45,2.42c2.41,0,2.45,0,2.39,2.44,0,1.15.07,2,1.55,1.54,1.43.42,1.59-.34,1.56-1.52-.08-2.46,0-2.54,2.35-2.43C534,929.8,534.31,929.44,534.33,928.16Zm-14.22,8.08c2.23,0,2.23,0,1.42-1.88-1.67-3.88-3.36-7.76-5-11.64-.91-2.13-.9-2.09-3.2-2.12a1.41,1.41,0,0,0-1.56,1c-.77,1.92-1.62,3.81-2.44,5.71-1.15,2.68-2.31,5.34-3.44,8-.13.29-.59.69.17.88,2,.48,3.2,0,3.93-2,.4-1.06.91-1.56,2.1-1.43a12.54,12.54,0,0,0,3.18,0,2.15,2.15,0,0,1,2.75,1.82C518.26,935.88,518.91,936.63,520.11,936.24Z" transform="translate(-495.57 -897.29)"/><path class="cls-2" d="M538.23,910h-6.34c-.5,0-.56-.32-.56-.7,0-2,0-4,0-6.21C533.71,905.52,535.9,907.72,538.23,910Z" transform="translate(-495.57 -897.29)"/><path class="cls-2" d="M523.42,927.3c.22-.44.6-.25.92-.29.95-.1,2.22.42,2.78-.25s.19-1.77.15-2.7c0-.76.15-1.08,1-1.08,2.06,0,2.06-.05,2.06,2s0,2,2.12,2.06c.76,0,1.9-.59,1.87,1.13,0,1.28-.34,1.64-1.61,1.59-2.37-.11-2.43,0-2.35,2.43,0,1.18-.13,1.94-1.56,1.52-1.48.45-1.58-.39-1.55-1.54.06-2.44,0-2.44-2.39-2.44A1.6,1.6,0,0,1,523.42,927.3Z" transform="translate(-495.57 -897.29)"/><path class="cls-2" d="M521.53,934.36c.81,1.88.81,1.88-1.42,1.88-1.2.39-1.85-.36-2.13-1.6a2.15,2.15,0,0,0-2.75-1.82,12.54,12.54,0,0,1-3.18,0c-1.19-.13-1.7.37-2.1,1.43-.73,1.94-1.94,2.47-3.93,2-.76-.19-.3-.59-.17-.88,1.13-2.68,2.29-5.34,3.44-8,.82-1.9,1.67-3.79,2.44-5.71a1.41,1.41,0,0,1,1.56-1c2.3,0,2.29,0,3.2,2.12C518.17,926.6,519.86,930.48,521.53,934.36ZM515,929.84c.71,0,.82-.23.52-.87-.53-1.13-1-2.31-1.62-3.77-.37.87-.6,1.43-.85,2C511.79,930.09,511.79,930.07,515,929.84Z" transform="translate(-495.57 -897.29)"/><path class="cls-2" d="M515.52,929c.3.64.19.83-.52.87-3.21.23-3.21.25-2-2.66.25-.55.48-1.11.85-2C514.53,926.66,515,927.84,515.52,929Z" transform="translate(-495.57 -897.29)"/><path class="cls-3" d="M535.58,930.7v2.39a2.7,2.7,0,0,0-.12.47,15.84,15.84,0,0,1-11.65,13.62c-1,.27-2.11.35-3.16.56H519c-.69-.1-1.39-.17-2.07-.3A15.83,15.83,0,1,1,535,927.82C535.29,928.77,535.36,929.75,535.58,930.7Zm-3.1,1.17A12.71,12.71,0,1,0,520,944.62,12.67,12.67,0,0,0,532.48,931.87Z" transform="translate(-495.57 -897.29)"/><path class="cls-3" d="M512.82,930.4a1.18,1.18,0,0,1,1,.44c1,1,2.06,2,3,3,.42.44.66.5,1.13,0,2.53-2.57,5.11-5.1,7.68-7.64a1.51,1.51,0,0,1,2.17-.1,1.49,1.49,0,0,1-.07,2.14c-3.06,3.17-6.14,6.31-9.34,9.35a1.33,1.33,0,0,1-1.94,0c-1.68-1.53-3.28-3.15-4.82-4.81a1.4,1.4,0,0,1-.24-1.63A1.31,1.31,0,0,1,512.82,930.4Z" transform="translate(-495.57 -897.29)"/></svg>