<svg id="Layer_1" data-name="Layer 1" xmlns="http://www.w3.org/2000/svg" viewBox="0 0 24.4 22.84"><defs><style>.cls-1{fill:#7a7574;}</style></defs><path class="cls-1" d="M507.66,935.34V918.57a1.44,1.44,0,0,1,1.22-.39,14.75,14.75,0,0,0,7.4-1.3c.81-.35,1.69-.54,2.5-.89a2.89,2.89,0,0,1,2.2,0c3.33,1.07,6.54,2.67,10.21,2.21.72-.08.87.46.87,1.08,0,5.11,0,10.23,0,15.34,0,.81-.29,1.15-1.11,1.14-1.75,0-3.5,0-5.24,0-.56,0-.87.07-.87.76s.37.75.9.72.82,0,1.24,0a.64.64,0,0,1,.72.7c0,.46-.3.67-.74.68h-14.2c-.44,0-.74-.22-.75-.68a.64.64,0,0,1,.72-.7h1.14c.51,0,1,.12,1-.72s-.42-.76-1-.75c-1.69,0-3.37,0-5,0A1.52,1.52,0,0,1,507.66,935.34Zm19-15.46c-.71.33-1.5.15-1.49,1.25,0,3.12.5,2.19-2.41,3.54a6.17,6.17,0,0,1-5.67.08c-2.49-1.17-2.57-1-2.61-3.78,0-.55-.22-.74-.69-1a10.43,10.43,0,0,0-3.84-.43c-.74,0-.91.24-.9.93,0,4.28,0,8.57,0,12.85,0,.83.29,1,1.05,1q9.75,0,19.51,0c.81,0,1-.24,1-1,0-4,0-8,0-12,0-1.87,0-1.85-1.87-1.75-.48,0-.68.17-.67.67,0,1.08,0,2.16,0,3.24,0,.54,0,1.11-.72,1.1s-.69-.61-.68-1.14C526.7,922.31,526.69,921.17,526.69,919.88Zm-1.58-1-4.77-1.6a1.11,1.11,0,0,0-.74-.06l-4.73,1.66c1.74.61,3.26,1.15,4.78,1.67a.77.77,0,0,0,.45,0ZM523.75,921a.8.8,0,0,0-.27,0,7.2,7.2,0,0,1-7,0c-.43-.23-.51,0-.56.41-.11.93.2,1.38,1.12,1.81a5.71,5.71,0,0,0,5.47.07C523.88,922.51,524,922.65,523.75,921ZM520,935.74c-1,0-2,0-3,0-.59,0-.67.25-.67.74s.08.76.67.75c2,0,3.93,0,5.89,0,.59,0,.67-.26.67-.75s-.08-.76-.67-.74C521.85,935.77,520.9,935.74,520,935.74Z" transform="translate(-507.66 -915.77)"/><path class="cls-1" d="M522.75,929.27h-5.43c-.52,0-1-.1-1-.71s.51-.7,1-.69h10.75c.51,0,1,0,1.07.65s-.53.75-1.08.74Z" transform="translate(-507.66 -915.77)"/><path class="cls-1" d="M522.71,930.75c1.81,0,3.62,0,5.43,0,.52,0,1,.09,1,.71s-.52.7-1,.7H517.36c-.5,0-1,0-1.06-.67s.53-.74,1.08-.74Z" transform="translate(-507.66 -915.77)"/><path class="cls-1" d="M512.72,927.88c2.07,0,2.15-.28,2.13,2.12,0,2.14,0,2.14-2.12,2.15-2.35,0-2.2.16-2.21-2.23S510.52,927.88,512.72,927.88Zm.66,2.13c.12-.6-.16-.74-.72-.76s-.69.33-.7.82.2.68.72.7S513.49,930.58,513.38,930Z" transform="translate(-507.66 -915.77)"/></svg>