<svg id="Layer_1" data-name="Layer 1" xmlns="http://www.w3.org/2000/svg" viewBox="0 0 22 22.07"><defs><style>.cls-1{fill:#7a7574;}</style></defs><path class="cls-1" d="M530.39,901v1.67c0,.11-.07.22-.08.33a11,11,0,0,1-8.12,9.49c-.72.19-1.47.24-2.2.39h-1.17c-.49-.07-1-.12-1.45-.21A11,11,0,1,1,530,899C530.19,899.63,530.24,900.31,530.39,901Zm-2.16.82a8.85,8.85,0,1,0-8.7,8.89A8.84,8.84,0,0,0,528.23,901.79Z" transform="translate(-508.39 -890.78)"/><path class="cls-1" d="M514.53,900.77a.78.78,0,0,1,.71.3c.71.7,1.44,1.38,2.13,2.11.29.3.45.34.78,0,1.77-1.79,3.56-3.55,5.35-5.32a1,1,0,0,1,1.51-.07,1,1,0,0,1,0,1.48c-2.13,2.21-4.29,4.41-6.51,6.53a.93.93,0,0,1-1.35,0c-1.17-1.07-2.29-2.2-3.37-3.36a1,1,0,0,1-.16-1.13A.9.9,0,0,1,514.53,900.77Z" transform="translate(-508.39 -890.78)"/></svg>