<svg id="Layer_1" data-name="Layer 1" xmlns="http://www.w3.org/2000/svg" viewBox="0 0 147.22 144"><defs><style>.cls-1{fill:#64c5ba;}.cls-2{fill:#f2f2f2;}</style></defs><path class="cls-1" d="M508.16,851.49a71.91,71.91,0,0,1,71.58,72.64c-.21,39.58-32.59,71.49-72.42,71.36a71.93,71.93,0,0,1-71.58-72.65C436,883.25,468.32,851.35,508.16,851.49Zm47.56,117.86c23.61-23,26.72-66-1.26-93.41a66.51,66.51,0,0,0-97.63,4.51c-24.65,29-17.83,70,3.13,88.77C478.44,925.47,538.13,926.29,555.72,969.35Z" transform="translate(-435.74 -851.49)"/><path class="cls-1" d="M533.67,901.11c0,15.55-11.53,27.91-26,27.84s-25.92-12.39-25.85-28c.07-15.28,11.53-27.6,25.77-27.66C522,873.24,533.65,885.63,533.67,901.11Z" transform="translate(-435.74 -851.49)"/><circle class="cls-2" cx="125.22" cy="116.69" r="20"/><path class="cls-1" d="M561.07,990.55A21.88,21.88,0,1,1,583,968.6,21.87,21.87,0,0,1,561.07,990.55Zm-9.4-9.9c1.82.56,2.91-.46,4-1.61,3-3.09,6.08-6.11,9.13-9.16,4.21-4.21,4.21-4.2-.2-8.11l-.16-.16c-.45-.55-.85-.61-1.41-.05-4.48,4.51-9,8.94-13.44,13.53-1.32,1.39-.69,3.4-.41,5C549.4,981.25,550.86,980.45,551.67,980.65Zm18.56-16.12a25.17,25.17,0,0,0,2.55-2.85c.54-.8-.15-1.49-.74-2.07s-1.39-1.3-2-2c-1.09-1.25-1.95-1-3.12,0-1.54,1.33-1.87,2.34-.06,3.66a23.11,23.11,0,0,1,2.5,2.45C569.6,964,569.86,964.21,570.23,964.53Z" transform="translate(-435.74 -851.49)"/></svg>