<svg id="Layer_1" data-name="Layer 1" xmlns="http://www.w3.org/2000/svg" viewBox="0 0 27.6 24.63"><defs><style>.cls-1{fill:#7a7574;}</style></defs><path class="cls-1" d="M506.06,928.1c0-2,.67-3.16,2.24-3.84,2.49-1.07,4.94-2.24,7.4-3.37.28-.12.52-.24.57-.61s.33-.53.63-.67l3.05-1.39a1,1,0,0,1,.87-.09,1.26,1.26,0,0,0,1.23-.15c2.06-1,4.14-1.87,6.19-2.85a2.48,2.48,0,0,1,2.66.17,6.13,6.13,0,0,1,2.76,5,2.41,2.41,0,0,1-.61,1.83.7.7,0,0,0-.14.6,2.6,2.6,0,0,1-1.63,2.78c-1,.5-2.1,1-3.16,1.45-.29.13-.36.24-.2.56a1.42,1.42,0,0,1-.46,2.18,1.18,1.18,0,0,0-.53.95.86.86,0,0,1-.11.51c-.5.61-.24,1.28-.21,1.94.07,1.25.08,2.51.15,3.76a9,9,0,0,0,.26,1.23.62.62,0,0,1-.94.75c-.58-.34-1.18-.67-1.75-1-.24-.15-.41-.16-.6.07-.32.39-.66.75-1,1.13s-.39.53-.78.45-.49-.42-.58-.75a10,10,0,0,1-.32-2.61,19.63,19.63,0,0,0-.11-2.87c-.05-.33-.09-.53-.53-.5a1.31,1.31,0,0,1-1.36-1.05c-.14-.43-.31-.42-.67-.25-1.78.85-3.58,1.67-5.37,2.5a3.37,3.37,0,0,1-3.12-.1A6.91,6.91,0,0,1,506.06,928.1Zm26.39-7.84a5.13,5.13,0,0,0-2.22-3.92,1.24,1.24,0,0,0-1.3-.17c-2.13,1-4.27,2-6.41,2.94-.29.13-.33.25-.15.52a7.06,7.06,0,0,1,1,2.4c.09.42.26.49.65.43,1.22-.21,1.6,0,2,1.1.14.36.28.42.64.25,1.61-.76,3.21-1.51,4.85-2.21A1.28,1.28,0,0,0,532.45,920.26Zm-5.78,5.56c0-.26-.2-.31-.38-.38A2.08,2.08,0,0,1,525,924c-.09-.38-.32-.43-.67-.35a2,2,0,0,1-1.94-.44c-.27-.26-.46-.09-.64.13a2,2,0,0,1-1.78.81c-.33,0-.54.1-.54.47a2.06,2.06,0,0,1-1,1.75.41.41,0,0,0-.14.65,2,2,0,0,1,.25,2,.41.41,0,0,0,.28.64,2,2,0,0,1,1.36,1.48.41.41,0,0,0,.59.32,2.08,2.08,0,0,1,2,.43c.24.2.42.14.6-.08a2.1,2.1,0,0,1,1.82-.87.47.47,0,0,0,.55-.53,1.88,1.88,0,0,1,.9-1.61c.37-.24.39-.49.15-.84a1.89,1.89,0,0,1-.2-1.77Q526.63,926,526.67,925.82Zm-16.2-1.17a6.5,6.5,0,0,1,2.73,5c0,.38.21.24.38.16l3.48-1.59c.28-.13.35-.24.2-.54-.59-1.24-.53-1.5.52-2.4a.78.78,0,0,0,.36-.82,6.82,6.82,0,0,0-1-2.39.5.5,0,0,0-.74-.17c-1.58.75-3.18,1.47-4.78,2.2Zm-3.19,3.19a5.88,5.88,0,0,0,2.92,4.75,2.32,2.32,0,0,0,2.29.21c1.57-.73,3.14-1.45,4.71-2.2.13-.06.57-.05.28-.39s-.07-.81-.73-.49c-1.46.73-3,1.37-4.44,2.06a2.22,2.22,0,0,1-2.78-.81.6.6,0,0,1,.07-.82.58.58,0,0,1,.81,0c.11.08.19.2.3.29s.49.47.84.31.38-.49.41-.81a5,5,0,0,0-2.35-4.31,1.27,1.27,0,0,0-1.25,0C507.45,926.08,507.35,926.92,507.28,927.84Zm18.25,9.26c-.12-1.53,0-2.93-.18-4.32,0-.21,0-.52-.27-.6a.64.64,0,0,0-.64.26c-.6.71-1.27,1.15-2.28.53.23,1.54,0,3,.23,4.45.36-.35.68-.63,1-.93a.74.74,0,0,1,1.07-.1C524.74,936.61,525.08,936.82,525.53,937.1ZM519.34,923a1.86,1.86,0,0,0,1.7-.69,1,1,0,0,1,.7-.43c.27,0,.32-.15.21-.4a10.27,10.27,0,0,0-1.11-1.9c-.18-.25-.36-.25-.62-.12l-2.33,1.07c-.29.12-.38.23-.13.5a6.18,6.18,0,0,1,1.11,1.76C518.93,922.91,519,923.09,519.34,923Zm8.57,2.73,3-1.41a1.31,1.31,0,0,0,.73-1,.41.41,0,0,0,0-.33c-.09-.11-.22,0-.32.06l-2.76,1.26c-.29.13-.67.2-.84.43S528,925.31,527.91,925.71Z" transform="translate(-506.06 -914.82)"/><path class="cls-1" d="M522.36,924.62a2.93,2.93,0,0,1,1.09,5.72,2.94,2.94,0,0,1-3.53-1.52c-.19-.4-.32-.83.19-1.07s.72.09.91.5a1.66,1.66,0,0,0,1.81,1,1.7,1.7,0,0,0,.41-3.23,1.67,1.67,0,0,0-2,.49c-.07.07-.12.16-.19.23a.6.6,0,0,1-1-.72A2.79,2.79,0,0,1,522.36,924.62Z" transform="translate(-506.06 -914.82)"/><path class="cls-1" d="M508.48,928.5A2.06,2.06,0,0,1,509,927a.62.62,0,0,1,.9-.14.57.57,0,0,1,.07.89,1.15,1.15,0,0,0-.16,1.13c.11.42.11.83-.42.94s-.7-.26-.78-.69C508.52,928.84,508.49,928.58,508.48,928.5Z" transform="translate(-506.06 -914.82)"/></svg>