<svg id="Layer_1" data-name="Layer 1" xmlns="http://www.w3.org/2000/svg" viewBox="0 0 20.33 22"><defs><style>.cls-1{fill:#7a7574;}</style></defs><path class="cls-1" d="M507,904.14a.35.35,0,0,0-.26-.1h-7.25a.56.56,0,0,1-.64-.63V884.89a.57.57,0,0,1,.63-.63h2.34a.8.8,0,0,1,.77.5,1.36,1.36,0,0,1,.11.6,1,1,0,0,0,.69.95,2.24,2.24,0,0,0,.81.15h5.63a2.12,2.12,0,0,0,.9-.2,1.23,1.23,0,0,0,.76-1c0-.05,0-.1,0-.15a1.15,1.15,0,0,1,.24-.54.67.67,0,0,1,.46-.25h2.58a.54.54,0,0,1,.55.55V885c0,2.49,0,5,0,7.46a.43.43,0,0,0,.26.46,3.79,3.79,0,0,1,.76.49l.07,0s0,0,0-.08v-9a1.77,1.77,0,0,0,0-.23,1.1,1.1,0,0,0-1.14-1h-3.1a1,1,0,0,1-.24,0,2.41,2.41,0,0,0-.6,0,1,1,0,0,0-.92.79,2,2,0,0,0,0,.42,1,1,0,0,1-1,1h-4.5a1.06,1.06,0,0,1-1.13-1.1,1,1,0,0,0-1-1.08,4.38,4.38,0,0,0-.81,0h-3.1a1.1,1.1,0,0,0-1.17,1.17q0,9.81,0,19.62a1.73,1.73,0,0,0,0,.32,1.1,1.1,0,0,0,1.12.86h9.28v0L508,905A6.29,6.29,0,0,1,507,904.14Z" transform="translate(-497.7 -883.14)"/><path class="cls-1" d="M507.31,892h4.54c.12,0,.15,0,.15-.15s0-.52,0-.78,0-.17-.18-.17H502.2c-.08,0-.1,0-.1.11,0,.28,0,.56,0,.84,0,.12,0,.15.15.15h5.06Z" transform="translate(-497.7 -883.14)"/><path class="cls-1" d="M505.71,895.71a6,6,0,0,1,.57-.9s.06,0,.05-.09-.07,0-.11,0h-4c-.09,0-.12,0-.12.12v.86c0,.1,0,.12.12.12h3.33A.17.17,0,0,0,505.71,895.71Z" transform="translate(-497.7 -883.14)"/><path class="cls-1" d="M505.53,884.26h3.05c.08,0,.12,0,.12-.11q0-.43,0-.87c0-.1,0-.12-.12-.12h-3.06c-.09,0-.12,0-.12.12,0,.28,0,.57,0,.86C505.4,884.25,505.44,884.27,505.53,884.26Z" transform="translate(-497.7 -883.14)"/><path class="cls-1" d="M504.76,898.54h-2.55c-.09,0-.11,0-.11.11v.87c0,.1,0,.13.13.13h2.52c.09,0,.12,0,.12-.11a4.31,4.31,0,0,1,0-.88C504.87,898.57,504.84,898.54,504.76,898.54Z" transform="translate(-497.7 -883.14)"/><path class="cls-1" d="M512,893.05a6,6,0,1,0,6,6.05A6.06,6.06,0,0,0,512,893.05Zm4.2,5.15-4.91,4.32a.77.77,0,0,1-1.06,0c-.9-1.08-1.81-2.15-2.72-3.22a.77.77,0,0,1,0-1.06.75.75,0,0,1,1.06,0l2.18,2.57,5-4.4c.18-.16.3-.18.44-.06.66-.14,1.33.69.71,1.23Z" transform="translate(-497.7 -883.14)"/></svg>