<svg id="Layer_1" data-name="Layer 1" xmlns="http://www.w3.org/2000/svg" viewBox="0 0 53.05 53.04"><path class="cls-1" d="M540.54,934.2a26.53,26.53,0,1,1-26.68,26.29A26.49,26.49,0,0,1,540.54,934.2Zm17.52,43.42c8.69-8.46,9.84-24.29-.47-34.41a24.5,24.5,0,0,0-36,1.66c-9.08,10.68-6.57,25.78,1.15,32.7A19,19,0,0,1,558.06,977.62Z" transform="translate(-513.86 -934.2)"/><path class="cls-1" d="M549.93,952.48c0,5.73-4.24,10.28-9.58,10.26s-9.55-4.57-9.52-10.31,4.25-10.16,9.49-10.19S549.93,946.78,549.93,952.48Z" transform="translate(-513.86 -934.2)"/></svg>