<svg id="Layer_1" data-name="Layer 1" xmlns="http://www.w3.org/2000/svg" viewBox="0 0 22 27.04"><defs><style>.cls-1{fill:#7a7574;}</style></defs><path class="cls-1" d="M529.5,968.85H511.12a2.31,2.31,0,0,1-1.81-2.66V944.48a2.3,2.3,0,0,1,1.81-2.66h13.45a3.79,3.79,0,0,1,1.51,1c1.43,1.46,2.87,2.91,4.34,4.33a2.88,2.88,0,0,1,.89,2.2q0,8.4,0,16.81A2.31,2.31,0,0,1,529.5,968.85Zm-18.7-13.5c0,3.66,0,7.32,0,11,0,.79.2,1,.91,1h17.18c.7,0,.93-.23.93-1q0-8.4,0-16.81c0-.4-.14-.51-.52-.5h-4.26c-.83,0-1-.2-1-1,0-1.38,0-2.76,0-4.14,0-.5-.13-.64-.63-.64-3.83,0-7.65,0-11.47,0-.95,0-1.12.18-1.12,1.12C510.79,948.06,510.8,951.71,510.8,955.35Zm14.71-10.89v2.82c0,.17,0,.31.25.31h2.87Z" transform="translate(-509.31 -941.82)"/><path class="cls-1" d="M520.42,959.45c-.54.18-.83-.16-1-.72a1,1,0,0,0-1.25-.82,6.22,6.22,0,0,1-1.43,0,.81.81,0,0,0-1,.64,1.3,1.3,0,0,1-1.78.9c-.34-.08-.13-.26-.08-.39.52-1.22,1-2.42,1.57-3.63.37-.86.75-1.72,1.1-2.59a.63.63,0,0,1,.7-.47c1,0,1,0,1.46,1l2.28,5.27C521.44,959.45,521.44,959.45,520.42,959.45Zm-2.81-5-.38.89c-.57,1.32-.58,1.31.88,1.21.32,0,.37-.11.24-.39C518.11,955.65,517.9,955.12,517.61,954.46Z" transform="translate(-509.31 -941.82)"/><path class="cls-1" d="M524.36,958.31c-.67.2-.71-.18-.7-.7,0-1.11,0-1.11-1.08-1.11a.73.73,0,0,1-.66-1.1c.1-.19.27-.11.42-.12.43,0,1,.19,1.26-.12s.08-.8.07-1.22.06-.49.45-.49c.94,0,.94,0,.94.9s0,.91,1,.93c.34,0,.86-.26.84.52,0,.58-.15.74-.73.72-1.07,0-1.09,0-1.06,1.1C525.08,958.15,525,958.5,524.36,958.31Z" transform="translate(-509.31 -941.82)"/></svg>