<svg id="Layer_1" data-name="Layer 1" xmlns="http://www.w3.org/2000/svg" viewBox="0 0 22 27.8"><defs><style>.cls-1{fill:#7a7574;}</style></defs><path class="cls-1" d="M530.86,928v11a1.72,1.72,0,0,1-1.93,2h-18.3a1.69,1.69,0,0,1-1.77-1.74q0-11.26,0-22.52a1.69,1.69,0,0,1,1.85-1.8c2.09,0,4.19,0,6.29,0,.4,0,.65-.05.84-.48a2.09,2.09,0,0,1,2-1.26,2.05,2.05,0,0,1,2,1.29.73.73,0,0,0,.81.45c2,0,4.11,0,6.16,0,1.43,0,2,.59,2,2C530.87,920.68,530.86,924.36,530.86,928ZM510,928h0c0,3.65,0,7.31,0,11,0,.81.1.93.88.93h17.84c.86,0,1-.14,1-1V917c0-.68-.21-.89-.89-.89h-2.92c-1.42,0-1.42,0-1.44,1.45,0,.76-.1.86-.87.86h-6.88c-1.51,0-1.51,0-1.5-1.54a2.25,2.25,0,0,1,0-.26c.06-.44-.15-.55-.56-.54-1.21,0-2.42,0-3.63,0-.93,0-1,.1-1,1Zm9.84-10.73h0c.95,0,1.89,0,2.84,0,.41,0,.69,0,.67-.57s-.18-.66-.65-.6h-.38c-1,0-1,0-1.39-.94a1.08,1.08,0,0,0-1.08-.77,1.06,1.06,0,0,0-1.09.75c-.35,1-.34,1-1.36,1a3,3,0,0,1-.52,0c-.48-.07-.52.21-.51.58s0,.61.49.59C517.87,917.24,518.86,917.27,519.86,917.27Z" transform="translate(-508.86 -913.24)"/><path class="cls-1" d="M523.91,933.82l-.3.27-1,1a.57.57,0,0,1-.86,0,.55.55,0,0,1,0-.86c.3-.3.6-.62.92-.91s.35-.44,0-.71-.58-.58-.87-.87-.45-.62-.1-1,.68-.16,1,.13.63.6.91.93.36.22.57,0,.66-.68,1-1a.57.57,0,0,1,.87,0,.55.55,0,0,1-.05.85,12.42,12.42,0,0,1-1,1c-.3.26-.26.43,0,.66s.59.58.88.87.42.58.12.91-.65.25-1-.06l-.92-.91A2.83,2.83,0,0,0,523.91,933.82Z" transform="translate(-508.86 -913.24)"/><path class="cls-1" d="M525.67,927.72c-.34,0-.53-.26-.74-.47-1-1-1-1-2,0a3.19,3.19,0,0,1-.33.31.56.56,0,0,1-.82,0,.54.54,0,0,1,0-.81c.33-.34.65-.69,1-1s.24-.4,0-.62-.65-.63-1-1-.35-.57-.07-.86a.58.58,0,0,1,.91,0c.34.33.69.67,1,1s.33.21.52,0,.64-.64,1-1,.65-.39,1-.06.12.63-.14.9l-.51.51c-.69.7-.69.7,0,1.43.21.21.44.42.63.65a.52.52,0,0,1,.07.61A.63.63,0,0,1,525.67,927.72Z" transform="translate(-508.86 -913.24)"/><path class="cls-1" d="M516.35,933.51h-2.79c-.4,0-.7-.11-.72-.55s.29-.61.68-.61h5.64c.38,0,.7.14.69.59s-.32.56-.72.56h-2.78Z" transform="translate(-508.86 -913.24)"/><path class="cls-1" d="M516.28,926h-2.72c-.4,0-.7-.14-.71-.56s.28-.6.68-.6h5.63c.39,0,.7.16.69.6s-.33.55-.72.55Z" transform="translate(-508.86 -913.24)"/></svg>