<svg id="Layer_1" data-name="Layer 1" xmlns="http://www.w3.org/2000/svg" viewBox="0 0 39.02 50.93"><path class="cls-1" d="M521.32,985.69a1.09,1.09,0,0,1-.61-1.09q0-24.37,0-48.74c0-.83.27-1.1,1.1-1.1h36.81c.82,0,1.09.27,1.09,1.11q0,19.21,0,38.44a1.37,1.37,0,0,1-.44,1.05l-9.89,9.88c-.16.16-.35.3-.52.45Zm1-25.52c0,7.79,0,15.58,0,23.37,0,.4.09.54.52.54H547.3c.39,0,.51-.1.51-.5,0-2.85,0-5.7,0-8.55,0-1,.24-1.27,1.25-1.27,2.83,0,5.67,0,8.5,0,.47,0,.57-.13.57-.58q0-18.12,0-36.25c0-.45-.11-.58-.57-.58q-17.32,0-34.66,0c-.47,0-.57.15-.57.59C522.34,944.69,522.33,952.43,522.33,960.17Zm27.11,22.53,7.28-7.28a.27.27,0,0,0-.11,0H549.8c-.34,0-.36.16-.36.43v6.66C549.44,982.57,549.41,982.67,549.44,982.7Z" transform="translate(-520.71 -934.76)"/><path class="cls-1" d="M544,952.65h-8.39a.82.82,0,0,1-.82-.84.8.8,0,0,1,.8-.78,3.38,3.38,0,0,1,.45,0H552a3.45,3.45,0,0,1,.64,0,.79.79,0,0,1,0,1.51,2,2,0,0,1-.68.08Z" transform="translate(-520.71 -934.76)"/><path class="cls-1" d="M544,960.22h-8a1.5,1.5,0,0,1-.63-.07.76.76,0,0,1-.48-.84.72.72,0,0,1,.67-.68,2.2,2.2,0,0,1,.44,0h16.1a2.64,2.64,0,0,1,.4,0,.8.8,0,0,1,.77.77.83.83,0,0,1-.72.82,4.13,4.13,0,0,1-.5,0Z" transform="translate(-520.71 -934.76)"/><path class="cls-1" d="M544.05,967.8h-8a3.25,3.25,0,0,1-.54,0,.74.74,0,0,1-.68-.73.75.75,0,0,1,.58-.82,1.6,1.6,0,0,1,.49,0h16.2a2.23,2.23,0,0,1,.45,0,.76.76,0,0,1,.66.81.74.74,0,0,1-.71.76,4,4,0,0,1-.49,0Z" transform="translate(-520.71 -934.76)"/><path class="cls-1" d="M544.64,943.42H552a3.38,3.38,0,0,1,.55,0,.76.76,0,0,1,.66.81.74.74,0,0,1-.71.76,3.26,3.26,0,0,1-.54,0H537.29a2.76,2.76,0,0,1-.64,0,.72.72,0,0,1-.61-.68.76.76,0,0,1,.51-.82,1.53,1.53,0,0,1,.64-.08Z" transform="translate(-520.71 -934.76)"/><path class="cls-1" d="M533.17,959.44c0,.67,0,1.33,0,2s-.29,1-.89,1c-1.39,0-2.79,0-4.18,0a.81.81,0,0,1-.88-.88c0-1.4,0-2.81,0-4.22a.8.8,0,0,1,.9-.85q2.08,0,4.17,0a.8.8,0,0,1,.88.87c0,.71,0,1.42,0,2.13Zm-1.61,0c0-.41,0-.75,0-1.08s-.07-.36-.33-.35-.7,0-1.05,0-1-.19-1.24.09-.09.82-.08,1.25-.2,1,.1,1.29.82.07,1.25.07,1,.19,1.25-.07S531.51,959.83,531.56,959.47Z" transform="translate(-520.71 -934.76)"/><path class="cls-1" d="M533.17,974.6c0,.66,0,1.32,0,2s-.29,1-1,1h-4a.83.83,0,0,1-.95-.95c0-1.34,0-2.68,0-4,0-.67.32-1,1-1,1.33,0,2.65,0,4,0,.7,0,1,.3,1,1S533.17,973.93,533.17,974.6Zm-1.61,0c0-.37,0-.67,0-1s-.06-.47-.43-.45c-.62,0-1.25,0-1.88,0-.29,0-.42.06-.4.38,0,.64,0,1.29,0,1.93,0,.35.12.42.43.4s.63,0,.94,0,1,.18,1.24-.08S531.51,975,531.56,974.65Z" transform="translate(-520.71 -934.76)"/><path class="cls-1" d="M533.17,951.85c0,.66,0,1.32,0,2s-.27.95-.88,1c-1.4,0-2.79,0-4.18,0a.81.81,0,0,1-.89-.91c0-1.38,0-2.75,0-4.13a.82.82,0,0,1,.94-.9c1.36,0,2.72,0,4.08,0,.65,0,.92.29.93.95S533.17,951.17,533.17,951.85Zm-4.33-.1c0,.47-.18,1,.09,1.32s.88.08,1.33.09.94.18,1.2-.06.09-.81.09-1.24.19-1-.07-1.29-.87-.08-1.33-.09-.94-.18-1.2.06S528.91,951.36,528.84,951.75Z" transform="translate(-520.71 -934.76)"/><path class="cls-1" d="M533.17,967c0,.67,0,1.33,0,2s-.3,1-.94,1h-4.07a.83.83,0,0,1-.94-.91c0-1.38,0-2.75,0-4.13a.84.84,0,0,1,.94-.92h4.08c.63,0,.92.33.93,1S533.17,966.34,533.17,967Zm-3-1.39c-.42.06-1-.19-1.27.1s-.08.86-.08,1.3-.19,1,.09,1.24.81.08,1.24.08,1,.2,1.28-.09.08-.85.08-1.29.19-1-.08-1.24S530.65,965.68,530.21,965.63Z" transform="translate(-520.71 -934.76)"/><path class="cls-1" d="M540.45,975.39H536a2.93,2.93,0,0,1-.59,0,.74.74,0,0,1-.61-.69.76.76,0,0,1,.5-.82,1.55,1.55,0,0,1,.64-.08h9.23c.6,0,1,.35,1,.84s-.37.78-1,.79Z" transform="translate(-520.71 -934.76)"/><path class="cls-1" d="M530.23,947.2a.82.82,0,0,1-.67-.29c-.5-.49-1-1-1.48-1.48a.82.82,0,0,1-.06-1.23.84.84,0,0,1,1.2.08,8.33,8.33,0,0,1,.66.67c.22.26.37.27.62,0,1-1.08,2.12-2.13,3.19-3.2a3.44,3.44,0,0,1,.41-.35.75.75,0,0,1,1,.1.73.73,0,0,1,.09,1,2.28,2.28,0,0,1-.29.34L531,946.78A1,1,0,0,1,530.23,947.2Z" transform="translate(-520.71 -934.76)"/></svg>