<svg id="Layer_1" data-name="Layer 1" xmlns="http://www.w3.org/2000/svg" viewBox="0 0 22.3 25.37"><path class="cls-1" d="M529.06,955.2a15.53,15.53,0,0,1,.07-2.55,1.9,1.9,0,0,1,1.86-1.89,24.52,24.52,0,0,0,2.81-.45,14.13,14.13,0,0,0,4.61-2.08,2.9,2.9,0,0,1,3.78,0,12.71,12.71,0,0,0,6.83,2.41c1.58.11,2.29.72,2.31,2.18.12,7.12-2,13.34-7.52,18.11a19.69,19.69,0,0,1-1.75,1.29,3.18,3.18,0,0,1-3.78.07,17.83,17.83,0,0,1-8.22-10.48A27.72,27.72,0,0,1,529.06,955.2Zm20.25-.81a6.26,6.26,0,0,1,0-.75c.09-.58-.17-.78-.73-.83a15.34,15.34,0,0,1-7.83-2.9.67.67,0,0,0-.92,0,16.47,16.47,0,0,1-8,2.92c-.52.05-.72.27-.73.81a29.8,29.8,0,0,0,.33,5c.84,5,3.22,9.07,7.72,11.72a1.68,1.68,0,0,0,2.05-.07C546.74,966.4,548.9,960.85,549.31,954.39Z" transform="translate(-529.04 -947.55)"/><path class="cls-1" d="M539.85,965.23h-3.38c-.78,0-1-.26-1.05-1,0-1.63,0-3.25,0-4.88,0-.69.32-1,1-1,2.3,0,4.6,0,6.9,0,.77,0,1,.26,1,1,0,1.6,0,3.2,0,4.8,0,.76-.27,1-1.05,1Zm0-.58h2.85a.86.86,0,0,0,1-1c0-1.25,0-2.51,0-3.76a.87.87,0,0,0-1-1H537a.83.83,0,0,0-1,1c0,1.25,0,2.5,0,3.75,0,.76.26,1,1,1Z" transform="translate(-529.04 -947.55)"/><path class="cls-1" d="M536.63,956.26c0-2,.86-3.28,2.58-3.67a3.25,3.25,0,0,1,3.93,3c0,.45,0,.9,0,1.35.07.6-.17.76-.75.74s-.59-.2-.57-.63a10.56,10.56,0,0,0,0-1.49,1.94,1.94,0,0,0-3.81-.19,6.73,6.73,0,0,0-.08,1.79c0,.49-.23.53-.6.51s-.74.09-.69-.49C536.65,956.86,536.63,956.56,536.63,956.26Z" transform="translate(-529.04 -947.55)"/><path class="cls-1" d="M539.89,964.09h-2.32c-.62,0-.93-.27-.92-.9q0-1.43,0-2.85a.79.79,0,0,1,.86-.9c1.58,0,3.15,0,4.73,0,.61,0,.9.33.9.95,0,.92,0,1.85,0,2.77a.81.81,0,0,1-.92.92Zm-.82-2.67a3.06,3.06,0,0,1,.43,1.45c0,.22.25.3.47.25a.37.37,0,0,0,.33-.42,1.52,1.52,0,0,1,.32-1.1.68.68,0,0,0-.12-.89.8.8,0,0,0-1-.21C539.23,960.63,539.05,960.9,539.07,961.42Z" transform="translate(-529.04 -947.55)"/></svg>