<svg id="Layer_1" data-name="Layer 1" xmlns="http://www.w3.org/2000/svg" viewBox="0 0 20.18 22"><defs><style>.cls-1{fill:#7a7574;}</style></defs><path class="cls-1" d="M506.6,931.82a.32.32,0,0,0-.25-.1h-7.14a.55.55,0,0,1-.63-.62V912.85a.55.55,0,0,1,.62-.62h2.3a.77.77,0,0,1,.76.5,1.28,1.28,0,0,1,.11.58,1,1,0,0,0,.68.94,2.18,2.18,0,0,0,.8.15h5.55a2.06,2.06,0,0,0,.88-.2,1.2,1.2,0,0,0,.75-1s0-.09,0-.14a1,1,0,0,1,.24-.53.63.63,0,0,1,.45-.25h2.54a.52.52,0,0,1,.54.54V913c0,2.45,0,4.9,0,7.34,0,.23,0,.36.26.46a4.92,4.92,0,0,1,.74.48s0,0,.06,0,0,0,0-.07v-8.87a1.77,1.77,0,0,0,0-.23,1.09,1.09,0,0,0-1.12-.94h-3.3a2.33,2.33,0,0,0-.59,0,1,1,0,0,0-.91.79,1.84,1.84,0,0,0,0,.41,1,1,0,0,1-.95,1h-4.44a1,1,0,0,1-1.1-1.08,1.34,1.34,0,0,0-.07-.4,1,1,0,0,0-.88-.66,4.28,4.28,0,0,0-.8,0h-3.06a1.08,1.08,0,0,0-1.15,1.16v19.33a1.05,1.05,0,0,0,0,.31,1.07,1.07,0,0,0,1.09.85h9.15v0l-.1-.07A7,7,0,0,1,506.6,931.82Z" transform="translate(-497.5 -911.12)"/><path class="cls-1" d="M507,919.81h4.47c.12,0,.15,0,.15-.14s0-.51,0-.77,0-.17-.18-.17h-9.47c-.08,0-.1,0-.1.11,0,.27,0,.55,0,.82s0,.16.16.15h5Z" transform="translate(-497.5 -911.12)"/><path class="cls-1" d="M505.38,923.51a7.48,7.48,0,0,1,.57-.89s.06,0,0-.08-.07,0-.1,0H502c-.09,0-.13,0-.12.11v.86c0,.09,0,.11.12.11h3.28A.15.15,0,0,0,505.38,923.51Z" transform="translate(-497.5 -911.12)"/><path class="cls-1" d="M505.21,912.23h3c.08,0,.12,0,.12-.11v-.86c0-.09,0-.11-.12-.11h-3c-.08,0-.11,0-.11.11,0,.28,0,.57,0,.85C505.07,912.22,505.11,912.23,505.21,912.23Z" transform="translate(-497.5 -911.12)"/><path class="cls-1" d="M504.45,926.3h-2.52c-.08,0-.1,0-.1.11v.85c0,.1,0,.13.12.13h2.49c.09,0,.12,0,.11-.12a6.17,6.17,0,0,1,0-.86C504.56,926.33,504.53,926.3,504.45,926.3Z" transform="translate(-497.5 -911.12)"/><path class="cls-1" d="M511.6,921a6.09,6.09,0,1,0,6.08,6.09A6.09,6.09,0,0,0,511.6,921Zm3.65,9.56a.84.84,0,0,1-1.16,0l-.76-.76L511.6,928l-2.5,2.5a.83.83,0,0,1-1.15,0,.81.81,0,0,1,0-1.15l.76-.76,1.73-1.74-2.49-2.5a.81.81,0,0,1,0-1.15.83.83,0,0,1,1.15,0l.76.76,1.74,1.74,2.49-2.5a.84.84,0,0,1,1.16,0,.83.83,0,0,1,0,1.15l-.77.76-1.73,1.74,2.5,2.5A.83.83,0,0,1,515.25,930.51Z" transform="translate(-497.5 -911.12)"/></svg>