<svg id="Layer_1" data-name="Layer 1" xmlns="http://www.w3.org/2000/svg" viewBox="0 0 22 15.05"><defs><style>.cls-1{fill:#7a7574;}</style></defs><path class="cls-1" d="M502.55,901.11c-.71,0-1.41,0-2.12,0a3.74,3.74,0,0,1-1.81-.54A4.43,4.43,0,0,1,497,899a4.12,4.12,0,0,1-.61-1.67,5,5,0,0,1,0-1.63,4.43,4.43,0,0,1,2-3,5.76,5.76,0,0,1,1-.48c.11,0,.24-.05.36-.08s.11,0,.09-.14a3,3,0,0,1,0-1.44,2.72,2.72,0,0,1,.83-1.34,2.77,2.77,0,0,1,1.47-.7,3.08,3.08,0,0,1,1.59.1,4,4,0,0,1,.59.27.16.16,0,0,0,.25-.07,5.69,5.69,0,0,1,.88-1.14,5.83,5.83,0,0,1,2-1.24,6.14,6.14,0,0,1,1.47-.33,5.47,5.47,0,0,1,1.85.12,5.14,5.14,0,0,1,1.72.73,5.25,5.25,0,0,1,1.62,1.56,5,5,0,0,1,.69,1.44,5.16,5.16,0,0,1,.21,2c0,.17.05.23.2.27a4.35,4.35,0,0,1,2.41,1.89,4.45,4.45,0,0,1,.64,1.84,4.77,4.77,0,0,1-.3,2.36,4.44,4.44,0,0,1-1,1.52,3.94,3.94,0,0,1-1.2.86,4.14,4.14,0,0,1-1.69.39h-3.44c-.15,0-.2,0-.19-.19v-4.24c0-.14,0-.18.18-.18h1.83s.12,0,.15,0,0-.09-.08-.12c-.63-.68-1.29-1.34-1.93-2s-1.19-1.23-1.78-1.86l-1-1c-.12-.13-.19-.11-.3,0l-2.92,3-1.79,1.85s-.1.07-.08.13.1,0,.16,0h1.8c.15,0,.2,0,.2.2,0,1.4,0,2.81,0,4.22,0,.15,0,.19-.19.19h-2.21Z" transform="translate(-496.34 -886.07)"/></svg>