<svg id="Layer_1" data-name="Layer 1" xmlns="http://www.w3.org/2000/svg" viewBox="0 0 43.89 39.2"><path class="cls-1" d="M551.37,970.79a19.57,19.57,0,0,0,2.25-.07A7.68,7.68,0,0,0,559.4,967a7.85,7.85,0,0,0-2.64-10.79,9.59,9.59,0,0,0-1.16-.57,1.37,1.37,0,0,1-.92-1.54,10,10,0,0,0-1.22-6.26,10.15,10.15,0,0,0-7.28-5.15A10.32,10.32,0,0,0,536,947l-.45.75a1.2,1.2,0,0,1-1.85.47,6,6,0,0,0-9.09,5.33,5.49,5.49,0,0,0,.11.8,1.41,1.41,0,0,1-.72,1.57,8.1,8.1,0,0,0-2.59,2.17,7.64,7.64,0,0,0-1.56,5.71,7.84,7.84,0,0,0,6.15,6.79,8.15,8.15,0,0,0,1.84.18h3.3a.77.77,0,0,1,.77,1,.74.74,0,0,1-.66.52,42.56,42.56,0,0,1-4.66-.06,9.18,9.18,0,0,1-7-4.48A9.41,9.41,0,0,1,522,955.35a8.26,8.26,0,0,1,1-.65.19.19,0,0,0,.12-.24,7.49,7.49,0,0,1,6.09-8.57,7.25,7.25,0,0,1,4.89.82c.15.09.2.06.28-.08a11.6,11.6,0,0,1,8.5-5.55A11.78,11.78,0,0,1,556.24,954c0,.17,0,.23.19.29a9.16,9.16,0,0,1,5.17,5.62,9.46,9.46,0,0,1-7,12.24,8.7,8.7,0,0,1-1.76.19h-3.67a.77.77,0,0,1-.77-.67.79.79,0,0,1,.52-.83,1.33,1.33,0,0,1,.4,0Z" transform="translate(-518.21 -940.96)"/><path class="cls-1" d="M539.34,959c-.08,0-.13.1-.18.15L533.3,965a.84.84,0,0,1-.67.3.75.75,0,0,1-.67-.49.73.73,0,0,1,.15-.81l.76-.77,6.13-6.13a1.51,1.51,0,0,1,2.29,0l6.81,6.81a.78.78,0,0,1,.24.87.72.72,0,0,1-.64.51.8.8,0,0,1-.7-.28l-4.67-4.68-1.4-1.41v20.34a.81.81,0,0,1-.59.89.78.78,0,0,1-1-.7,2.43,2.43,0,0,1,0-.27V959.23A.46.46,0,0,0,539.34,959Z" transform="translate(-518.21 -940.96)"/></svg>