<svg id="Layer_1" data-name="Layer 1" xmlns="http://www.w3.org/2000/svg" viewBox="0 0 22 14.94"><defs><style>.cls-1{fill:#7a7574;}</style></defs><path class="cls-1" d="M508.09,929.69c-2.06,0-4.12-.05-6.18,0a5.17,5.17,0,0,1-5.21-4.47,5.58,5.58,0,0,1,2.11-5.62,4.44,4.44,0,0,1,2.94-1,.49.49,0,0,0,.52-.31,6.37,6.37,0,0,1,4.4-3.46,5.84,5.84,0,0,1,5.65,1.88,7.14,7.14,0,0,1,1.65,2.86c0,.14.07.25.27.24a4,4,0,0,1,4.11,3.22,5.69,5.69,0,0,1-.82,5,3.49,3.49,0,0,1-3,1.55C512.35,929.68,510.22,929.69,508.09,929.69Zm0-.92h6.42a2.62,2.62,0,0,0,2.13-1,5,5,0,0,0,.1-5.83,2.62,2.62,0,0,0-2.29-1.12c-.2,0-.39,0-.58,0-.51,0-.6-.07-.73-.57a6.25,6.25,0,0,0-1.74-3,4.86,4.86,0,0,0-4.64-1.37,5.4,5.4,0,0,0-3.71,3c-.42.8-.28.79-1.31.77a3.63,3.63,0,0,0-2.52.86,4.71,4.71,0,0,0-1.55,5,4.2,4.2,0,0,0,4.27,3.32C504,928.72,506.07,928.77,508.12,928.77Z" transform="translate(-496.6 -914.77)"/><path class="cls-1" d="M505.41,923.19c.12,0,.24.1.36.23.26.33.54.65.8,1,.13.17.2.15.34,0l2.5-2.5a.58.58,0,0,1,.43-.24.46.46,0,0,1,.42.66,1.06,1.06,0,0,1-.19.23l-2.93,2.93c-.35.36-.58.34-.9,0L505,924a.46.46,0,0,1-.1-.53A.47.47,0,0,1,505.41,923.19Z" transform="translate(-496.6 -914.77)"/></svg>