<svg id="Layer_1" data-name="Layer 1" xmlns="http://www.w3.org/2000/svg" viewBox="0 0 39.95 18.14"><defs><style>.cls-1{fill:#7a7574;}</style></defs><path class="cls-1" d="M513.69,931.19H502c-1.65,0-2.2-.54-2.2-2.18q0-6.9,0-13.81c0-1.57.57-2.15,2.14-2.15h23.53c1.55,0,2.1.59,2.1,2.18V929c0,1.58-.55,2.14-2.13,2.15Zm-10.5-16.47c-.09.21,0,.27.12.35,3.31,2.87,6.63,5.73,9.92,8.62.48.42.74.17,1.08-.12l9.7-8.43c.12-.1.37-.16.26-.42Zm21.31,14.77c-2.28-2.09-4.42-4-6.54-6-.43-.4-.73-.3-1.1,0-.78.71-1.61,1.37-2.38,2.09a1,1,0,0,1-1.54,0c-.78-.71-1.6-1.38-2.37-2.1a.72.72,0,0,0-1.18,0c-.66.65-1.38,1.25-2.07,1.88l-4.4,4Zm-23-13.8v12.76c2.36-2.15,4.59-4.18,6.83-6.19.29-.27.24-.44,0-.67Zm24.27,12.62V915.84L523,918.22l-2.75,2.38c-.46.41-1.22.78-1.31,1.26s.79.9,1.24,1.33C522,924.92,523.9,926.58,525.81,928.31Z" transform="translate(-487.64 -913.04)"/><path class="cls-1" d="M492.84,916.1h4.1c.53,0,.94.14,1,.73s-.41.9-.94.91c-2.8,0-5.59,0-8.39,0-.53,0-1-.27-.94-.91s.46-.74,1-.74C490.05,916.11,491.44,916.1,492.84,916.1Z" transform="translate(-487.64 -913.04)"/><path class="cls-1" d="M493.61,922.93h-3.25c-.6,0-1-.28-1-.86s.43-.77,1-.76H497c.53,0,.94.17,1,.76s-.37.86-1,.86Z" transform="translate(-487.64 -913.04)"/><path class="cls-1" d="M494.55,928.13h-2.42c-.53,0-.95-.14-1-.73s.41-.88,1-.89c1.64,0,3.29,0,4.94,0a.77.77,0,0,1,.88.85c0,.6-.41.77-.95.76Z" transform="translate(-487.64 -913.04)"/></svg>